G04 #@! TF.FileFunction,Legend,Top*
%FSLAX46Y46*%
G04 Gerber Fmt 4.6, Leading zero omitted, Abs format (unit mm)*
G04 Created by KiCad (PCBNEW 4.0.1-stable) date 2016/01/10 9:36:40*
%MOMM*%
G01*
G04 APERTURE LIST*
%ADD10C,0.100000*%
%ADD11C,0.300000*%
%ADD12C,0.200000*%
%ADD13C,0.150000*%
%ADD14C,0.114300*%
%ADD15R,3.900120X3.900120*%
%ADD16R,2.127200X2.127200*%
%ADD17O,2.127200X2.127200*%
%ADD18C,4.900000*%
%ADD19R,1.400000X1.543000*%
%ADD20C,1.800000*%
%ADD21C,1.000000*%
G04 APERTURE END LIST*
D10*
D11*
X110985715Y-133778571D02*
X110271429Y-133778571D01*
X110271429Y-132278571D01*
X111485715Y-132992857D02*
X111985715Y-132992857D01*
X112200001Y-133778571D02*
X111485715Y-133778571D01*
X111485715Y-132278571D01*
X112200001Y-132278571D01*
X112842858Y-133778571D02*
X112842858Y-132278571D01*
X113200001Y-132278571D01*
X113414286Y-132350000D01*
X113557144Y-132492857D01*
X113628572Y-132635714D01*
X113700001Y-132921429D01*
X113700001Y-133135714D01*
X113628572Y-133421429D01*
X113557144Y-133564286D01*
X113414286Y-133707143D01*
X113200001Y-133778571D01*
X112842858Y-133778571D01*
X115200001Y-133635714D02*
X115128572Y-133707143D01*
X114914286Y-133778571D01*
X114771429Y-133778571D01*
X114557144Y-133707143D01*
X114414286Y-133564286D01*
X114342858Y-133421429D01*
X114271429Y-133135714D01*
X114271429Y-132921429D01*
X114342858Y-132635714D01*
X114414286Y-132492857D01*
X114557144Y-132350000D01*
X114771429Y-132278571D01*
X114914286Y-132278571D01*
X115128572Y-132350000D01*
X115200001Y-132421429D01*
X116485715Y-132778571D02*
X116485715Y-133778571D01*
X115842858Y-132778571D02*
X115842858Y-133564286D01*
X115914286Y-133707143D01*
X116057144Y-133778571D01*
X116271429Y-133778571D01*
X116414286Y-133707143D01*
X116485715Y-133635714D01*
X117200001Y-133778571D02*
X117200001Y-132278571D01*
X117200001Y-132850000D02*
X117342858Y-132778571D01*
X117628572Y-132778571D01*
X117771429Y-132850000D01*
X117842858Y-132921429D01*
X117914287Y-133064286D01*
X117914287Y-133492857D01*
X117842858Y-133635714D01*
X117771429Y-133707143D01*
X117628572Y-133778571D01*
X117342858Y-133778571D01*
X117200001Y-133707143D01*
X119128572Y-133707143D02*
X118985715Y-133778571D01*
X118700001Y-133778571D01*
X118557144Y-133707143D01*
X118485715Y-133564286D01*
X118485715Y-132992857D01*
X118557144Y-132850000D01*
X118700001Y-132778571D01*
X118985715Y-132778571D01*
X119128572Y-132850000D01*
X119200001Y-132992857D01*
X119200001Y-133135714D01*
X118485715Y-133278571D01*
X121485715Y-132992857D02*
X121700001Y-133064286D01*
X121771429Y-133135714D01*
X121842858Y-133278571D01*
X121842858Y-133492857D01*
X121771429Y-133635714D01*
X121700001Y-133707143D01*
X121557143Y-133778571D01*
X120985715Y-133778571D01*
X120985715Y-132278571D01*
X121485715Y-132278571D01*
X121628572Y-132350000D01*
X121700001Y-132421429D01*
X121771429Y-132564286D01*
X121771429Y-132707143D01*
X121700001Y-132850000D01*
X121628572Y-132921429D01*
X121485715Y-132992857D01*
X120985715Y-132992857D01*
X123128572Y-133778571D02*
X123128572Y-132992857D01*
X123057143Y-132850000D01*
X122914286Y-132778571D01*
X122628572Y-132778571D01*
X122485715Y-132850000D01*
X123128572Y-133707143D02*
X122985715Y-133778571D01*
X122628572Y-133778571D01*
X122485715Y-133707143D01*
X122414286Y-133564286D01*
X122414286Y-133421429D01*
X122485715Y-133278571D01*
X122628572Y-133207143D01*
X122985715Y-133207143D01*
X123128572Y-133135714D01*
X123771429Y-133707143D02*
X123914286Y-133778571D01*
X124200001Y-133778571D01*
X124342858Y-133707143D01*
X124414286Y-133564286D01*
X124414286Y-133492857D01*
X124342858Y-133350000D01*
X124200001Y-133278571D01*
X123985715Y-133278571D01*
X123842858Y-133207143D01*
X123771429Y-133064286D01*
X123771429Y-132992857D01*
X123842858Y-132850000D01*
X123985715Y-132778571D01*
X124200001Y-132778571D01*
X124342858Y-132850000D01*
X125628572Y-133707143D02*
X125485715Y-133778571D01*
X125200001Y-133778571D01*
X125057144Y-133707143D01*
X124985715Y-133564286D01*
X124985715Y-132992857D01*
X125057144Y-132850000D01*
X125200001Y-132778571D01*
X125485715Y-132778571D01*
X125628572Y-132850000D01*
X125700001Y-132992857D01*
X125700001Y-133135714D01*
X124985715Y-133278571D01*
X126842858Y-132992857D02*
X127057144Y-133064286D01*
X127128572Y-133135714D01*
X127200001Y-133278571D01*
X127200001Y-133492857D01*
X127128572Y-133635714D01*
X127057144Y-133707143D01*
X126914286Y-133778571D01*
X126342858Y-133778571D01*
X126342858Y-132278571D01*
X126842858Y-132278571D01*
X126985715Y-132350000D01*
X127057144Y-132421429D01*
X127128572Y-132564286D01*
X127128572Y-132707143D01*
X127057144Y-132850000D01*
X126985715Y-132921429D01*
X126842858Y-132992857D01*
X126342858Y-132992857D01*
X128057144Y-133778571D02*
X127914286Y-133707143D01*
X127842858Y-133635714D01*
X127771429Y-133492857D01*
X127771429Y-133064286D01*
X127842858Y-132921429D01*
X127914286Y-132850000D01*
X128057144Y-132778571D01*
X128271429Y-132778571D01*
X128414286Y-132850000D01*
X128485715Y-132921429D01*
X128557144Y-133064286D01*
X128557144Y-133492857D01*
X128485715Y-133635714D01*
X128414286Y-133707143D01*
X128271429Y-133778571D01*
X128057144Y-133778571D01*
X129842858Y-133778571D02*
X129842858Y-132992857D01*
X129771429Y-132850000D01*
X129628572Y-132778571D01*
X129342858Y-132778571D01*
X129200001Y-132850000D01*
X129842858Y-133707143D02*
X129700001Y-133778571D01*
X129342858Y-133778571D01*
X129200001Y-133707143D01*
X129128572Y-133564286D01*
X129128572Y-133421429D01*
X129200001Y-133278571D01*
X129342858Y-133207143D01*
X129700001Y-133207143D01*
X129842858Y-133135714D01*
X130557144Y-133778571D02*
X130557144Y-132778571D01*
X130557144Y-133064286D02*
X130628572Y-132921429D01*
X130700001Y-132850000D01*
X130842858Y-132778571D01*
X130985715Y-132778571D01*
X132128572Y-133778571D02*
X132128572Y-132278571D01*
X132128572Y-133707143D02*
X131985715Y-133778571D01*
X131700001Y-133778571D01*
X131557143Y-133707143D01*
X131485715Y-133635714D01*
X131414286Y-133492857D01*
X131414286Y-133064286D01*
X131485715Y-132921429D01*
X131557143Y-132850000D01*
X131700001Y-132778571D01*
X131985715Y-132778571D01*
X132128572Y-132850000D01*
D10*
X72142858Y-38871429D02*
X72142858Y-38271429D01*
X72285715Y-38271429D01*
X72371430Y-38300000D01*
X72428572Y-38357143D01*
X72457144Y-38414286D01*
X72485715Y-38528571D01*
X72485715Y-38614286D01*
X72457144Y-38728571D01*
X72428572Y-38785714D01*
X72371430Y-38842857D01*
X72285715Y-38871429D01*
X72142858Y-38871429D01*
X72857144Y-38271429D02*
X72971430Y-38271429D01*
X73028572Y-38300000D01*
X73085715Y-38357143D01*
X73114287Y-38471429D01*
X73114287Y-38671429D01*
X73085715Y-38785714D01*
X73028572Y-38842857D01*
X72971430Y-38871429D01*
X72857144Y-38871429D01*
X72800001Y-38842857D01*
X72742858Y-38785714D01*
X72714287Y-38671429D01*
X72714287Y-38471429D01*
X72742858Y-38357143D01*
X72800001Y-38300000D01*
X72857144Y-38271429D01*
X73371429Y-38271429D02*
X73371429Y-38757143D01*
X73400001Y-38814286D01*
X73428572Y-38842857D01*
X73485715Y-38871429D01*
X73600001Y-38871429D01*
X73657143Y-38842857D01*
X73685715Y-38814286D01*
X73714286Y-38757143D01*
X73714286Y-38271429D01*
X73914286Y-38271429D02*
X74257143Y-38271429D01*
X74085714Y-38871429D02*
X74085714Y-38271429D01*
X74457143Y-38642857D02*
X74914286Y-38642857D01*
X75200000Y-38471429D02*
X75657143Y-38642857D01*
X75200000Y-38814286D01*
X75942857Y-38871429D02*
X75942857Y-38271429D01*
X76085714Y-38271429D01*
X76171429Y-38300000D01*
X76228571Y-38357143D01*
X76257143Y-38414286D01*
X76285714Y-38528571D01*
X76285714Y-38614286D01*
X76257143Y-38728571D01*
X76228571Y-38785714D01*
X76171429Y-38842857D01*
X76085714Y-38871429D01*
X75942857Y-38871429D01*
X76885714Y-38871429D02*
X76685714Y-38585714D01*
X76542857Y-38871429D02*
X76542857Y-38271429D01*
X76771429Y-38271429D01*
X76828571Y-38300000D01*
X76857143Y-38328571D01*
X76885714Y-38385714D01*
X76885714Y-38471429D01*
X76857143Y-38528571D01*
X76828571Y-38557143D01*
X76771429Y-38585714D01*
X76542857Y-38585714D01*
X77142857Y-38557143D02*
X77342857Y-38557143D01*
X77428571Y-38871429D02*
X77142857Y-38871429D01*
X77142857Y-38271429D01*
X77428571Y-38271429D01*
X77600000Y-38271429D02*
X77942857Y-38271429D01*
X77771428Y-38871429D02*
X77771428Y-38271429D01*
D12*
X67304762Y-36452381D02*
X67304762Y-35452381D01*
X67542857Y-35452381D01*
X67685715Y-35500000D01*
X67780953Y-35595238D01*
X67828572Y-35690476D01*
X67876191Y-35880952D01*
X67876191Y-36023810D01*
X67828572Y-36214286D01*
X67780953Y-36309524D01*
X67685715Y-36404762D01*
X67542857Y-36452381D01*
X67304762Y-36452381D01*
X68876191Y-36452381D02*
X68542857Y-35976190D01*
X68304762Y-36452381D02*
X68304762Y-35452381D01*
X68685715Y-35452381D01*
X68780953Y-35500000D01*
X68828572Y-35547619D01*
X68876191Y-35642857D01*
X68876191Y-35785714D01*
X68828572Y-35880952D01*
X68780953Y-35928571D01*
X68685715Y-35976190D01*
X68304762Y-35976190D01*
X69304762Y-35928571D02*
X69638096Y-35928571D01*
X69780953Y-36452381D02*
X69304762Y-36452381D01*
X69304762Y-35452381D01*
X69780953Y-35452381D01*
X70066667Y-35452381D02*
X70638096Y-35452381D01*
X70352381Y-36452381D02*
X70352381Y-35452381D01*
X59809524Y-36552381D02*
X59809524Y-35552381D01*
X60047619Y-35552381D01*
X60190477Y-35600000D01*
X60285715Y-35695238D01*
X60333334Y-35790476D01*
X60380953Y-35980952D01*
X60380953Y-36123810D01*
X60333334Y-36314286D01*
X60285715Y-36409524D01*
X60190477Y-36504762D01*
X60047619Y-36552381D01*
X59809524Y-36552381D01*
X61000000Y-35552381D02*
X61190477Y-35552381D01*
X61285715Y-35600000D01*
X61380953Y-35695238D01*
X61428572Y-35885714D01*
X61428572Y-36219048D01*
X61380953Y-36409524D01*
X61285715Y-36504762D01*
X61190477Y-36552381D01*
X61000000Y-36552381D01*
X60904762Y-36504762D01*
X60809524Y-36409524D01*
X60761905Y-36219048D01*
X60761905Y-35885714D01*
X60809524Y-35695238D01*
X60904762Y-35600000D01*
X61000000Y-35552381D01*
X61857143Y-35552381D02*
X61857143Y-36361905D01*
X61904762Y-36457143D01*
X61952381Y-36504762D01*
X62047619Y-36552381D01*
X62238096Y-36552381D01*
X62333334Y-36504762D01*
X62380953Y-36457143D01*
X62428572Y-36361905D01*
X62428572Y-35552381D01*
X62761905Y-35552381D02*
X63333334Y-35552381D01*
X63047619Y-36552381D02*
X63047619Y-35552381D01*
X57909524Y-42952381D02*
X57433333Y-42952381D01*
X57433333Y-41952381D01*
X57909524Y-40452381D02*
X57576190Y-39976190D01*
X57338095Y-40452381D02*
X57338095Y-39452381D01*
X57719048Y-39452381D01*
X57814286Y-39500000D01*
X57861905Y-39547619D01*
X57909524Y-39642857D01*
X57909524Y-39785714D01*
X57861905Y-39880952D01*
X57814286Y-39928571D01*
X57719048Y-39976190D01*
X57338095Y-39976190D01*
X57314286Y-37052381D02*
X57314286Y-37861905D01*
X57361905Y-37957143D01*
X57409524Y-38004762D01*
X57504762Y-38052381D01*
X57695239Y-38052381D01*
X57790477Y-38004762D01*
X57838096Y-37957143D01*
X57885715Y-37861905D01*
X57885715Y-37052381D01*
D13*
X43999500Y-54499120D02*
X43999500Y-63500880D01*
X40499380Y-54499120D02*
X40499380Y-63500880D01*
X40499380Y-63500880D02*
X55000240Y-63500880D01*
X55000240Y-63500880D02*
X55000240Y-54499120D01*
X55000240Y-54499120D02*
X40499380Y-54499120D01*
X52500000Y-124050000D02*
X50950000Y-124050000D01*
X50950000Y-122500000D02*
X50950000Y-124050000D01*
X53770000Y-123770000D02*
X53770000Y-121230000D01*
X53770000Y-121230000D02*
X51230000Y-121230000D01*
X51230000Y-121230000D02*
X51230000Y-118690000D01*
X51230000Y-118690000D02*
X56310000Y-118690000D01*
X56310000Y-118690000D02*
X56310000Y-123770000D01*
X56310000Y-123770000D02*
X53770000Y-123770000D01*
X77500000Y-124050000D02*
X75950000Y-124050000D01*
X75950000Y-122500000D02*
X75950000Y-124050000D01*
X78770000Y-123770000D02*
X78770000Y-121230000D01*
X78770000Y-121230000D02*
X76230000Y-121230000D01*
X76230000Y-121230000D02*
X76230000Y-118690000D01*
X76230000Y-118690000D02*
X81310000Y-118690000D01*
X81310000Y-118690000D02*
X81310000Y-123770000D01*
X81310000Y-123770000D02*
X78770000Y-123770000D01*
X102500000Y-124050000D02*
X100950000Y-124050000D01*
X100950000Y-122500000D02*
X100950000Y-124050000D01*
X103770000Y-123770000D02*
X103770000Y-121230000D01*
X103770000Y-121230000D02*
X101230000Y-121230000D01*
X101230000Y-121230000D02*
X101230000Y-118690000D01*
X101230000Y-118690000D02*
X106310000Y-118690000D01*
X106310000Y-118690000D02*
X106310000Y-123770000D01*
X106310000Y-123770000D02*
X103770000Y-123770000D01*
X127500000Y-124050000D02*
X125950000Y-124050000D01*
X125950000Y-122500000D02*
X125950000Y-124050000D01*
X128770000Y-123770000D02*
X128770000Y-121230000D01*
X128770000Y-121230000D02*
X126230000Y-121230000D01*
X126230000Y-121230000D02*
X126230000Y-118690000D01*
X126230000Y-118690000D02*
X131310000Y-118690000D01*
X131310000Y-118690000D02*
X131310000Y-123770000D01*
X131310000Y-123770000D02*
X128770000Y-123770000D01*
X127500000Y-99050000D02*
X125950000Y-99050000D01*
X125950000Y-97500000D02*
X125950000Y-99050000D01*
X128770000Y-98770000D02*
X128770000Y-96230000D01*
X128770000Y-96230000D02*
X126230000Y-96230000D01*
X126230000Y-96230000D02*
X126230000Y-93690000D01*
X126230000Y-93690000D02*
X131310000Y-93690000D01*
X131310000Y-93690000D02*
X131310000Y-98770000D01*
X131310000Y-98770000D02*
X128770000Y-98770000D01*
X102500000Y-99050000D02*
X100950000Y-99050000D01*
X100950000Y-97500000D02*
X100950000Y-99050000D01*
X103770000Y-98770000D02*
X103770000Y-96230000D01*
X103770000Y-96230000D02*
X101230000Y-96230000D01*
X101230000Y-96230000D02*
X101230000Y-93690000D01*
X101230000Y-93690000D02*
X106310000Y-93690000D01*
X106310000Y-93690000D02*
X106310000Y-98770000D01*
X106310000Y-98770000D02*
X103770000Y-98770000D01*
X77500000Y-99050000D02*
X75950000Y-99050000D01*
X75950000Y-97500000D02*
X75950000Y-99050000D01*
X78770000Y-98770000D02*
X78770000Y-96230000D01*
X78770000Y-96230000D02*
X76230000Y-96230000D01*
X76230000Y-96230000D02*
X76230000Y-93690000D01*
X76230000Y-93690000D02*
X81310000Y-93690000D01*
X81310000Y-93690000D02*
X81310000Y-98770000D01*
X81310000Y-98770000D02*
X78770000Y-98770000D01*
X52500000Y-99050000D02*
X50950000Y-99050000D01*
X50950000Y-97500000D02*
X50950000Y-99050000D01*
X53770000Y-98770000D02*
X53770000Y-96230000D01*
X53770000Y-96230000D02*
X51230000Y-96230000D01*
X51230000Y-96230000D02*
X51230000Y-93690000D01*
X51230000Y-93690000D02*
X56310000Y-93690000D01*
X56310000Y-93690000D02*
X56310000Y-98770000D01*
X56310000Y-98770000D02*
X53770000Y-98770000D01*
X52500000Y-74050000D02*
X50950000Y-74050000D01*
X50950000Y-72500000D02*
X50950000Y-74050000D01*
X53770000Y-73770000D02*
X53770000Y-71230000D01*
X53770000Y-71230000D02*
X51230000Y-71230000D01*
X51230000Y-71230000D02*
X51230000Y-68690000D01*
X51230000Y-68690000D02*
X56310000Y-68690000D01*
X56310000Y-68690000D02*
X56310000Y-73770000D01*
X56310000Y-73770000D02*
X53770000Y-73770000D01*
X77500000Y-74050000D02*
X75950000Y-74050000D01*
X75950000Y-72500000D02*
X75950000Y-74050000D01*
X78770000Y-73770000D02*
X78770000Y-71230000D01*
X78770000Y-71230000D02*
X76230000Y-71230000D01*
X76230000Y-71230000D02*
X76230000Y-68690000D01*
X76230000Y-68690000D02*
X81310000Y-68690000D01*
X81310000Y-68690000D02*
X81310000Y-73770000D01*
X81310000Y-73770000D02*
X78770000Y-73770000D01*
X102500000Y-74050000D02*
X100950000Y-74050000D01*
X100950000Y-72500000D02*
X100950000Y-74050000D01*
X103770000Y-73770000D02*
X103770000Y-71230000D01*
X103770000Y-71230000D02*
X101230000Y-71230000D01*
X101230000Y-71230000D02*
X101230000Y-68690000D01*
X101230000Y-68690000D02*
X106310000Y-68690000D01*
X106310000Y-68690000D02*
X106310000Y-73770000D01*
X106310000Y-73770000D02*
X103770000Y-73770000D01*
X127500000Y-74050000D02*
X125950000Y-74050000D01*
X125950000Y-72500000D02*
X125950000Y-74050000D01*
X128770000Y-73770000D02*
X128770000Y-71230000D01*
X128770000Y-71230000D02*
X126230000Y-71230000D01*
X126230000Y-71230000D02*
X126230000Y-68690000D01*
X126230000Y-68690000D02*
X131310000Y-68690000D01*
X131310000Y-68690000D02*
X131310000Y-73770000D01*
X131310000Y-73770000D02*
X128770000Y-73770000D01*
X127500000Y-49050000D02*
X125950000Y-49050000D01*
X125950000Y-47500000D02*
X125950000Y-49050000D01*
X128770000Y-48770000D02*
X128770000Y-46230000D01*
X128770000Y-46230000D02*
X126230000Y-46230000D01*
X126230000Y-46230000D02*
X126230000Y-43690000D01*
X126230000Y-43690000D02*
X131310000Y-43690000D01*
X131310000Y-43690000D02*
X131310000Y-48770000D01*
X131310000Y-48770000D02*
X128770000Y-48770000D01*
X102500000Y-49050000D02*
X100950000Y-49050000D01*
X100950000Y-47500000D02*
X100950000Y-49050000D01*
X103770000Y-48770000D02*
X103770000Y-46230000D01*
X103770000Y-46230000D02*
X101230000Y-46230000D01*
X101230000Y-46230000D02*
X101230000Y-43690000D01*
X101230000Y-43690000D02*
X106310000Y-43690000D01*
X106310000Y-43690000D02*
X106310000Y-48770000D01*
X106310000Y-48770000D02*
X103770000Y-48770000D01*
X77500000Y-49050000D02*
X75950000Y-49050000D01*
X75950000Y-47500000D02*
X75950000Y-49050000D01*
X78770000Y-48770000D02*
X78770000Y-46230000D01*
X78770000Y-46230000D02*
X76230000Y-46230000D01*
X76230000Y-46230000D02*
X76230000Y-43690000D01*
X76230000Y-43690000D02*
X81310000Y-43690000D01*
X81310000Y-43690000D02*
X81310000Y-48770000D01*
X81310000Y-48770000D02*
X78770000Y-48770000D01*
X52500000Y-49050000D02*
X50950000Y-49050000D01*
X50950000Y-47500000D02*
X50950000Y-49050000D01*
X53770000Y-48770000D02*
X53770000Y-46230000D01*
X53770000Y-46230000D02*
X51230000Y-46230000D01*
X51230000Y-46230000D02*
X51230000Y-43690000D01*
X51230000Y-43690000D02*
X56310000Y-43690000D01*
X56310000Y-43690000D02*
X56310000Y-48770000D01*
X56310000Y-48770000D02*
X53770000Y-48770000D01*
X56310000Y-143140000D02*
X56310000Y-134310000D01*
X53770000Y-143140000D02*
X56310000Y-143140000D01*
X53770000Y-134310000D02*
X56310000Y-134310000D01*
X56310000Y-134310000D02*
X56310000Y-143140000D01*
X53770000Y-134310000D02*
X53770000Y-143140000D01*
X51230000Y-134310000D02*
X53770000Y-134310000D01*
X52500000Y-129350000D02*
X50950000Y-129350000D01*
X50950000Y-129350000D02*
X50950000Y-130500000D01*
X51230000Y-134310000D02*
X51230000Y-143140000D01*
X51230000Y-143140000D02*
X53770000Y-143140000D01*
X53770000Y-143140000D02*
X53770000Y-134310000D01*
X46050000Y-49050000D02*
X46050000Y-47500000D01*
X44500000Y-49050000D02*
X46050000Y-49050000D01*
X44500000Y-49050000D02*
X46050000Y-49050000D01*
X43230000Y-48770000D02*
X43230000Y-46230000D01*
X43230000Y-46230000D02*
X45770000Y-46230000D01*
X45770000Y-46230000D02*
X45770000Y-43690000D01*
X45770000Y-43690000D02*
X40690000Y-43690000D01*
X40690000Y-43690000D02*
X40690000Y-48770000D01*
X40690000Y-48770000D02*
X43230000Y-48770000D01*
X42976000Y-119706000D02*
X43484000Y-119706000D01*
X42976000Y-120214000D02*
X43484000Y-120214000D01*
X42976000Y-122246000D02*
X43484000Y-122246000D01*
X42976000Y-122754000D02*
X43484000Y-122754000D01*
X40436000Y-122754000D02*
X40944000Y-122754000D01*
X40436000Y-122246000D02*
X40944000Y-122246000D01*
X40436000Y-120214000D02*
X40944000Y-120214000D01*
X40436000Y-119706000D02*
X40944000Y-119706000D01*
X44500000Y-124050000D02*
X45650000Y-124050000D01*
X45650000Y-124050000D02*
X45650000Y-122500000D01*
X37896000Y-122627000D02*
X31927000Y-122627000D01*
X31927000Y-122627000D02*
X31927000Y-122373000D01*
X31927000Y-122373000D02*
X37769000Y-122373000D01*
X37769000Y-122373000D02*
X37769000Y-122500000D01*
X37769000Y-122500000D02*
X31927000Y-122500000D01*
X40436000Y-118690000D02*
X37896000Y-118690000D01*
X40436000Y-121230000D02*
X37896000Y-121230000D01*
X40436000Y-121230000D02*
X40436000Y-118690000D01*
X40436000Y-118690000D02*
X37896000Y-118690000D01*
X37896000Y-120214000D02*
X31800000Y-120214000D01*
X31800000Y-120214000D02*
X31800000Y-119706000D01*
X31800000Y-119706000D02*
X37896000Y-119706000D01*
X37896000Y-118690000D02*
X37896000Y-121230000D01*
X37896000Y-121230000D02*
X37896000Y-123770000D01*
X31800000Y-122246000D02*
X37896000Y-122246000D01*
X31800000Y-122754000D02*
X31800000Y-122246000D01*
X37896000Y-122754000D02*
X31800000Y-122754000D01*
X40436000Y-121230000D02*
X37896000Y-121230000D01*
X40436000Y-123770000D02*
X40436000Y-121230000D01*
X40436000Y-123770000D02*
X37896000Y-123770000D01*
X55294000Y-37976000D02*
X55294000Y-38484000D01*
X54786000Y-37976000D02*
X54786000Y-38484000D01*
X52754000Y-37976000D02*
X52754000Y-38484000D01*
X52246000Y-37976000D02*
X52246000Y-38484000D01*
X52246000Y-35436000D02*
X52246000Y-35944000D01*
X52754000Y-35436000D02*
X52754000Y-35944000D01*
X54786000Y-35436000D02*
X54786000Y-35944000D01*
X55294000Y-35436000D02*
X55294000Y-35944000D01*
X50950000Y-39500000D02*
X50950000Y-40650000D01*
X50950000Y-40650000D02*
X52500000Y-40650000D01*
X52373000Y-32896000D02*
X52373000Y-26927000D01*
X52373000Y-26927000D02*
X52627000Y-26927000D01*
X52627000Y-26927000D02*
X52627000Y-32769000D01*
X52627000Y-32769000D02*
X52500000Y-32769000D01*
X52500000Y-32769000D02*
X52500000Y-26927000D01*
X56310000Y-35436000D02*
X56310000Y-32896000D01*
X53770000Y-35436000D02*
X53770000Y-32896000D01*
X53770000Y-35436000D02*
X56310000Y-35436000D01*
X56310000Y-35436000D02*
X56310000Y-32896000D01*
X54786000Y-32896000D02*
X54786000Y-26800000D01*
X54786000Y-26800000D02*
X55294000Y-26800000D01*
X55294000Y-26800000D02*
X55294000Y-32896000D01*
X56310000Y-32896000D02*
X53770000Y-32896000D01*
X53770000Y-32896000D02*
X51230000Y-32896000D01*
X52754000Y-26800000D02*
X52754000Y-32896000D01*
X52246000Y-26800000D02*
X52754000Y-26800000D01*
X52246000Y-32896000D02*
X52246000Y-26800000D01*
X53770000Y-35436000D02*
X53770000Y-32896000D01*
X51230000Y-35436000D02*
X53770000Y-35436000D01*
X51230000Y-35436000D02*
X51230000Y-32896000D01*
X137024000Y-50294000D02*
X136516000Y-50294000D01*
X137024000Y-49786000D02*
X136516000Y-49786000D01*
X137024000Y-47754000D02*
X136516000Y-47754000D01*
X137024000Y-47246000D02*
X136516000Y-47246000D01*
X139564000Y-47246000D02*
X139056000Y-47246000D01*
X139564000Y-47754000D02*
X139056000Y-47754000D01*
X139564000Y-49786000D02*
X139056000Y-49786000D01*
X139564000Y-50294000D02*
X139056000Y-50294000D01*
X135500000Y-45950000D02*
X134350000Y-45950000D01*
X134350000Y-45950000D02*
X134350000Y-47500000D01*
X142104000Y-47373000D02*
X148073000Y-47373000D01*
X148073000Y-47373000D02*
X148073000Y-47627000D01*
X148073000Y-47627000D02*
X142231000Y-47627000D01*
X142231000Y-47627000D02*
X142231000Y-47500000D01*
X142231000Y-47500000D02*
X148073000Y-47500000D01*
X139564000Y-51310000D02*
X142104000Y-51310000D01*
X139564000Y-48770000D02*
X142104000Y-48770000D01*
X139564000Y-48770000D02*
X139564000Y-51310000D01*
X139564000Y-51310000D02*
X142104000Y-51310000D01*
X142104000Y-49786000D02*
X148200000Y-49786000D01*
X148200000Y-49786000D02*
X148200000Y-50294000D01*
X148200000Y-50294000D02*
X142104000Y-50294000D01*
X142104000Y-51310000D02*
X142104000Y-48770000D01*
X142104000Y-48770000D02*
X142104000Y-46230000D01*
X148200000Y-47754000D02*
X142104000Y-47754000D01*
X148200000Y-47246000D02*
X148200000Y-47754000D01*
X142104000Y-47246000D02*
X148200000Y-47246000D01*
X139564000Y-48770000D02*
X142104000Y-48770000D01*
X139564000Y-46230000D02*
X139564000Y-48770000D01*
X139564000Y-46230000D02*
X142104000Y-46230000D01*
X76750000Y-40800000D02*
X73150000Y-40800000D01*
X73150000Y-40800000D02*
X73150000Y-39200000D01*
X73150000Y-39200000D02*
X76750000Y-39200000D01*
X76750000Y-39200000D02*
X76750000Y-40800000D01*
X70750000Y-40800000D02*
X67150000Y-40800000D01*
X67150000Y-40800000D02*
X67150000Y-39200000D01*
X67150000Y-39200000D02*
X70750000Y-39200000D01*
X70750000Y-39200000D02*
X70750000Y-40800000D01*
X59750000Y-39200000D02*
X63350000Y-39200000D01*
X63350000Y-39200000D02*
X63350000Y-40800000D01*
X63350000Y-40800000D02*
X59750000Y-40800000D01*
X59750000Y-40800000D02*
X59750000Y-39200000D01*
X70750000Y-38300000D02*
X67150000Y-38300000D01*
X67150000Y-38300000D02*
X67150000Y-36700000D01*
X67150000Y-36700000D02*
X70750000Y-36700000D01*
X70750000Y-36700000D02*
X70750000Y-38300000D01*
X59750000Y-36700000D02*
X63350000Y-36700000D01*
X63350000Y-36700000D02*
X63350000Y-38300000D01*
X63350000Y-38300000D02*
X59750000Y-38300000D01*
X59750000Y-38300000D02*
X59750000Y-36700000D01*
X70750000Y-43300000D02*
X67150000Y-43300000D01*
X67150000Y-43300000D02*
X67150000Y-41700000D01*
X67150000Y-41700000D02*
X70750000Y-41700000D01*
X70750000Y-41700000D02*
X70750000Y-43300000D01*
X59750000Y-41700000D02*
X63350000Y-41700000D01*
X63350000Y-41700000D02*
X63350000Y-43300000D01*
X63350000Y-43300000D02*
X59750000Y-43300000D01*
X59750000Y-43300000D02*
X59750000Y-41700000D01*
X51885715Y-53757143D02*
X51838096Y-53804762D01*
X51695239Y-53852381D01*
X51600001Y-53852381D01*
X51457143Y-53804762D01*
X51361905Y-53709524D01*
X51314286Y-53614286D01*
X51266667Y-53423810D01*
X51266667Y-53280952D01*
X51314286Y-53090476D01*
X51361905Y-52995238D01*
X51457143Y-52900000D01*
X51600001Y-52852381D01*
X51695239Y-52852381D01*
X51838096Y-52900000D01*
X51885715Y-52947619D01*
X52504762Y-52852381D02*
X52695239Y-52852381D01*
X52790477Y-52900000D01*
X52885715Y-52995238D01*
X52933334Y-53185714D01*
X52933334Y-53519048D01*
X52885715Y-53709524D01*
X52790477Y-53804762D01*
X52695239Y-53852381D01*
X52504762Y-53852381D01*
X52409524Y-53804762D01*
X52314286Y-53709524D01*
X52266667Y-53519048D01*
X52266667Y-53185714D01*
X52314286Y-52995238D01*
X52409524Y-52900000D01*
X52504762Y-52852381D01*
X53361905Y-53852381D02*
X53361905Y-52852381D01*
X53933334Y-53852381D01*
X53933334Y-52852381D01*
X54933334Y-53852381D02*
X54361905Y-53852381D01*
X54647619Y-53852381D02*
X54647619Y-52852381D01*
X54552381Y-52995238D01*
X54457143Y-53090476D01*
X54361905Y-53138095D01*
X47852381Y-123238095D02*
X46852381Y-123238095D01*
X46852381Y-122857142D01*
X46900000Y-122761904D01*
X46947619Y-122714285D01*
X47042857Y-122666666D01*
X47185714Y-122666666D01*
X47280952Y-122714285D01*
X47328571Y-122761904D01*
X47376190Y-122857142D01*
X47376190Y-123238095D01*
X47852381Y-121714285D02*
X47852381Y-122285714D01*
X47852381Y-122000000D02*
X46852381Y-122000000D01*
X46995238Y-122095238D01*
X47090476Y-122190476D01*
X47138095Y-122285714D01*
X72852381Y-123238095D02*
X71852381Y-123238095D01*
X71852381Y-122857142D01*
X71900000Y-122761904D01*
X71947619Y-122714285D01*
X72042857Y-122666666D01*
X72185714Y-122666666D01*
X72280952Y-122714285D01*
X72328571Y-122761904D01*
X72376190Y-122857142D01*
X72376190Y-123238095D01*
X71947619Y-122285714D02*
X71900000Y-122238095D01*
X71852381Y-122142857D01*
X71852381Y-121904761D01*
X71900000Y-121809523D01*
X71947619Y-121761904D01*
X72042857Y-121714285D01*
X72138095Y-121714285D01*
X72280952Y-121761904D01*
X72852381Y-122333333D01*
X72852381Y-121714285D01*
X97852381Y-123238095D02*
X96852381Y-123238095D01*
X96852381Y-122857142D01*
X96900000Y-122761904D01*
X96947619Y-122714285D01*
X97042857Y-122666666D01*
X97185714Y-122666666D01*
X97280952Y-122714285D01*
X97328571Y-122761904D01*
X97376190Y-122857142D01*
X97376190Y-123238095D01*
X96852381Y-122333333D02*
X96852381Y-121714285D01*
X97233333Y-122047619D01*
X97233333Y-121904761D01*
X97280952Y-121809523D01*
X97328571Y-121761904D01*
X97423810Y-121714285D01*
X97661905Y-121714285D01*
X97757143Y-121761904D01*
X97804762Y-121809523D01*
X97852381Y-121904761D01*
X97852381Y-122190476D01*
X97804762Y-122285714D01*
X97757143Y-122333333D01*
X122852381Y-123238095D02*
X121852381Y-123238095D01*
X121852381Y-122857142D01*
X121900000Y-122761904D01*
X121947619Y-122714285D01*
X122042857Y-122666666D01*
X122185714Y-122666666D01*
X122280952Y-122714285D01*
X122328571Y-122761904D01*
X122376190Y-122857142D01*
X122376190Y-123238095D01*
X122185714Y-121809523D02*
X122852381Y-121809523D01*
X121804762Y-122047619D02*
X122519048Y-122285714D01*
X122519048Y-121666666D01*
X122852381Y-98238095D02*
X121852381Y-98238095D01*
X121852381Y-97857142D01*
X121900000Y-97761904D01*
X121947619Y-97714285D01*
X122042857Y-97666666D01*
X122185714Y-97666666D01*
X122280952Y-97714285D01*
X122328571Y-97761904D01*
X122376190Y-97857142D01*
X122376190Y-98238095D01*
X121852381Y-96761904D02*
X121852381Y-97238095D01*
X122328571Y-97285714D01*
X122280952Y-97238095D01*
X122233333Y-97142857D01*
X122233333Y-96904761D01*
X122280952Y-96809523D01*
X122328571Y-96761904D01*
X122423810Y-96714285D01*
X122661905Y-96714285D01*
X122757143Y-96761904D01*
X122804762Y-96809523D01*
X122852381Y-96904761D01*
X122852381Y-97142857D01*
X122804762Y-97238095D01*
X122757143Y-97285714D01*
X97852381Y-98238095D02*
X96852381Y-98238095D01*
X96852381Y-97857142D01*
X96900000Y-97761904D01*
X96947619Y-97714285D01*
X97042857Y-97666666D01*
X97185714Y-97666666D01*
X97280952Y-97714285D01*
X97328571Y-97761904D01*
X97376190Y-97857142D01*
X97376190Y-98238095D01*
X96852381Y-96809523D02*
X96852381Y-97000000D01*
X96900000Y-97095238D01*
X96947619Y-97142857D01*
X97090476Y-97238095D01*
X97280952Y-97285714D01*
X97661905Y-97285714D01*
X97757143Y-97238095D01*
X97804762Y-97190476D01*
X97852381Y-97095238D01*
X97852381Y-96904761D01*
X97804762Y-96809523D01*
X97757143Y-96761904D01*
X97661905Y-96714285D01*
X97423810Y-96714285D01*
X97328571Y-96761904D01*
X97280952Y-96809523D01*
X97233333Y-96904761D01*
X97233333Y-97095238D01*
X97280952Y-97190476D01*
X97328571Y-97238095D01*
X97423810Y-97285714D01*
X72852381Y-98238095D02*
X71852381Y-98238095D01*
X71852381Y-97857142D01*
X71900000Y-97761904D01*
X71947619Y-97714285D01*
X72042857Y-97666666D01*
X72185714Y-97666666D01*
X72280952Y-97714285D01*
X72328571Y-97761904D01*
X72376190Y-97857142D01*
X72376190Y-98238095D01*
X71852381Y-97333333D02*
X71852381Y-96666666D01*
X72852381Y-97095238D01*
X47852381Y-98238095D02*
X46852381Y-98238095D01*
X46852381Y-97857142D01*
X46900000Y-97761904D01*
X46947619Y-97714285D01*
X47042857Y-97666666D01*
X47185714Y-97666666D01*
X47280952Y-97714285D01*
X47328571Y-97761904D01*
X47376190Y-97857142D01*
X47376190Y-98238095D01*
X47280952Y-97095238D02*
X47233333Y-97190476D01*
X47185714Y-97238095D01*
X47090476Y-97285714D01*
X47042857Y-97285714D01*
X46947619Y-97238095D01*
X46900000Y-97190476D01*
X46852381Y-97095238D01*
X46852381Y-96904761D01*
X46900000Y-96809523D01*
X46947619Y-96761904D01*
X47042857Y-96714285D01*
X47090476Y-96714285D01*
X47185714Y-96761904D01*
X47233333Y-96809523D01*
X47280952Y-96904761D01*
X47280952Y-97095238D01*
X47328571Y-97190476D01*
X47376190Y-97238095D01*
X47471429Y-97285714D01*
X47661905Y-97285714D01*
X47757143Y-97238095D01*
X47804762Y-97190476D01*
X47852381Y-97095238D01*
X47852381Y-96904761D01*
X47804762Y-96809523D01*
X47757143Y-96761904D01*
X47661905Y-96714285D01*
X47471429Y-96714285D01*
X47376190Y-96761904D01*
X47328571Y-96809523D01*
X47280952Y-96904761D01*
X47852381Y-73238095D02*
X46852381Y-73238095D01*
X46852381Y-72857142D01*
X46900000Y-72761904D01*
X46947619Y-72714285D01*
X47042857Y-72666666D01*
X47185714Y-72666666D01*
X47280952Y-72714285D01*
X47328571Y-72761904D01*
X47376190Y-72857142D01*
X47376190Y-73238095D01*
X47852381Y-72190476D02*
X47852381Y-72000000D01*
X47804762Y-71904761D01*
X47757143Y-71857142D01*
X47614286Y-71761904D01*
X47423810Y-71714285D01*
X47042857Y-71714285D01*
X46947619Y-71761904D01*
X46900000Y-71809523D01*
X46852381Y-71904761D01*
X46852381Y-72095238D01*
X46900000Y-72190476D01*
X46947619Y-72238095D01*
X47042857Y-72285714D01*
X47280952Y-72285714D01*
X47376190Y-72238095D01*
X47423810Y-72190476D01*
X47471429Y-72095238D01*
X47471429Y-71904761D01*
X47423810Y-71809523D01*
X47376190Y-71761904D01*
X47280952Y-71714285D01*
X72852381Y-73714286D02*
X71852381Y-73714286D01*
X71852381Y-73333333D01*
X71900000Y-73238095D01*
X71947619Y-73190476D01*
X72042857Y-73142857D01*
X72185714Y-73142857D01*
X72280952Y-73190476D01*
X72328571Y-73238095D01*
X72376190Y-73333333D01*
X72376190Y-73714286D01*
X72852381Y-72190476D02*
X72852381Y-72761905D01*
X72852381Y-72476191D02*
X71852381Y-72476191D01*
X71995238Y-72571429D01*
X72090476Y-72666667D01*
X72138095Y-72761905D01*
X71852381Y-71571429D02*
X71852381Y-71476190D01*
X71900000Y-71380952D01*
X71947619Y-71333333D01*
X72042857Y-71285714D01*
X72233333Y-71238095D01*
X72471429Y-71238095D01*
X72661905Y-71285714D01*
X72757143Y-71333333D01*
X72804762Y-71380952D01*
X72852381Y-71476190D01*
X72852381Y-71571429D01*
X72804762Y-71666667D01*
X72757143Y-71714286D01*
X72661905Y-71761905D01*
X72471429Y-71809524D01*
X72233333Y-71809524D01*
X72042857Y-71761905D01*
X71947619Y-71714286D01*
X71900000Y-71666667D01*
X71852381Y-71571429D01*
X97852381Y-73714286D02*
X96852381Y-73714286D01*
X96852381Y-73333333D01*
X96900000Y-73238095D01*
X96947619Y-73190476D01*
X97042857Y-73142857D01*
X97185714Y-73142857D01*
X97280952Y-73190476D01*
X97328571Y-73238095D01*
X97376190Y-73333333D01*
X97376190Y-73714286D01*
X97852381Y-72190476D02*
X97852381Y-72761905D01*
X97852381Y-72476191D02*
X96852381Y-72476191D01*
X96995238Y-72571429D01*
X97090476Y-72666667D01*
X97138095Y-72761905D01*
X97852381Y-71238095D02*
X97852381Y-71809524D01*
X97852381Y-71523810D02*
X96852381Y-71523810D01*
X96995238Y-71619048D01*
X97090476Y-71714286D01*
X97138095Y-71809524D01*
X122852381Y-73714286D02*
X121852381Y-73714286D01*
X121852381Y-73333333D01*
X121900000Y-73238095D01*
X121947619Y-73190476D01*
X122042857Y-73142857D01*
X122185714Y-73142857D01*
X122280952Y-73190476D01*
X122328571Y-73238095D01*
X122376190Y-73333333D01*
X122376190Y-73714286D01*
X122852381Y-72190476D02*
X122852381Y-72761905D01*
X122852381Y-72476191D02*
X121852381Y-72476191D01*
X121995238Y-72571429D01*
X122090476Y-72666667D01*
X122138095Y-72761905D01*
X121947619Y-71809524D02*
X121900000Y-71761905D01*
X121852381Y-71666667D01*
X121852381Y-71428571D01*
X121900000Y-71333333D01*
X121947619Y-71285714D01*
X122042857Y-71238095D01*
X122138095Y-71238095D01*
X122280952Y-71285714D01*
X122852381Y-71857143D01*
X122852381Y-71238095D01*
X122852381Y-48714286D02*
X121852381Y-48714286D01*
X121852381Y-48333333D01*
X121900000Y-48238095D01*
X121947619Y-48190476D01*
X122042857Y-48142857D01*
X122185714Y-48142857D01*
X122280952Y-48190476D01*
X122328571Y-48238095D01*
X122376190Y-48333333D01*
X122376190Y-48714286D01*
X122852381Y-47190476D02*
X122852381Y-47761905D01*
X122852381Y-47476191D02*
X121852381Y-47476191D01*
X121995238Y-47571429D01*
X122090476Y-47666667D01*
X122138095Y-47761905D01*
X121852381Y-46857143D02*
X121852381Y-46238095D01*
X122233333Y-46571429D01*
X122233333Y-46428571D01*
X122280952Y-46333333D01*
X122328571Y-46285714D01*
X122423810Y-46238095D01*
X122661905Y-46238095D01*
X122757143Y-46285714D01*
X122804762Y-46333333D01*
X122852381Y-46428571D01*
X122852381Y-46714286D01*
X122804762Y-46809524D01*
X122757143Y-46857143D01*
X97852381Y-48714286D02*
X96852381Y-48714286D01*
X96852381Y-48333333D01*
X96900000Y-48238095D01*
X96947619Y-48190476D01*
X97042857Y-48142857D01*
X97185714Y-48142857D01*
X97280952Y-48190476D01*
X97328571Y-48238095D01*
X97376190Y-48333333D01*
X97376190Y-48714286D01*
X97852381Y-47190476D02*
X97852381Y-47761905D01*
X97852381Y-47476191D02*
X96852381Y-47476191D01*
X96995238Y-47571429D01*
X97090476Y-47666667D01*
X97138095Y-47761905D01*
X97185714Y-46333333D02*
X97852381Y-46333333D01*
X96804762Y-46571429D02*
X97519048Y-46809524D01*
X97519048Y-46190476D01*
X72852381Y-48714286D02*
X71852381Y-48714286D01*
X71852381Y-48333333D01*
X71900000Y-48238095D01*
X71947619Y-48190476D01*
X72042857Y-48142857D01*
X72185714Y-48142857D01*
X72280952Y-48190476D01*
X72328571Y-48238095D01*
X72376190Y-48333333D01*
X72376190Y-48714286D01*
X72852381Y-47190476D02*
X72852381Y-47761905D01*
X72852381Y-47476191D02*
X71852381Y-47476191D01*
X71995238Y-47571429D01*
X72090476Y-47666667D01*
X72138095Y-47761905D01*
X71852381Y-46285714D02*
X71852381Y-46761905D01*
X72328571Y-46809524D01*
X72280952Y-46761905D01*
X72233333Y-46666667D01*
X72233333Y-46428571D01*
X72280952Y-46333333D01*
X72328571Y-46285714D01*
X72423810Y-46238095D01*
X72661905Y-46238095D01*
X72757143Y-46285714D01*
X72804762Y-46333333D01*
X72852381Y-46428571D01*
X72852381Y-46666667D01*
X72804762Y-46761905D01*
X72757143Y-46809524D01*
X47852381Y-48714286D02*
X46852381Y-48714286D01*
X46852381Y-48333333D01*
X46900000Y-48238095D01*
X46947619Y-48190476D01*
X47042857Y-48142857D01*
X47185714Y-48142857D01*
X47280952Y-48190476D01*
X47328571Y-48238095D01*
X47376190Y-48333333D01*
X47376190Y-48714286D01*
X47852381Y-47190476D02*
X47852381Y-47761905D01*
X47852381Y-47476191D02*
X46852381Y-47476191D01*
X46995238Y-47571429D01*
X47090476Y-47666667D01*
X47138095Y-47761905D01*
X46852381Y-46333333D02*
X46852381Y-46523810D01*
X46900000Y-46619048D01*
X46947619Y-46666667D01*
X47090476Y-46761905D01*
X47280952Y-46809524D01*
X47661905Y-46809524D01*
X47757143Y-46761905D01*
X47804762Y-46714286D01*
X47852381Y-46619048D01*
X47852381Y-46428571D01*
X47804762Y-46333333D01*
X47757143Y-46285714D01*
X47661905Y-46238095D01*
X47423810Y-46238095D01*
X47328571Y-46285714D01*
X47280952Y-46333333D01*
X47233333Y-46428571D01*
X47233333Y-46619048D01*
X47280952Y-46714286D01*
X47328571Y-46761905D01*
X47423810Y-46809524D01*
X50985714Y-128352381D02*
X50985714Y-127352381D01*
X51366667Y-127352381D01*
X51461905Y-127400000D01*
X51509524Y-127447619D01*
X51557143Y-127542857D01*
X51557143Y-127685714D01*
X51509524Y-127780952D01*
X51461905Y-127828571D01*
X51366667Y-127876190D01*
X50985714Y-127876190D01*
X52509524Y-128352381D02*
X51938095Y-128352381D01*
X52223809Y-128352381D02*
X52223809Y-127352381D01*
X52128571Y-127495238D01*
X52033333Y-127590476D01*
X51938095Y-127638095D01*
X52842857Y-127352381D02*
X53509524Y-127352381D01*
X53080952Y-128352381D01*
X40885714Y-42852381D02*
X40885714Y-41852381D01*
X41266667Y-41852381D01*
X41361905Y-41900000D01*
X41409524Y-41947619D01*
X41457143Y-42042857D01*
X41457143Y-42185714D01*
X41409524Y-42280952D01*
X41361905Y-42328571D01*
X41266667Y-42376190D01*
X40885714Y-42376190D01*
X42409524Y-42852381D02*
X41838095Y-42852381D01*
X42123809Y-42852381D02*
X42123809Y-41852381D01*
X42028571Y-41995238D01*
X41933333Y-42090476D01*
X41838095Y-42138095D01*
X42980952Y-42280952D02*
X42885714Y-42233333D01*
X42838095Y-42185714D01*
X42790476Y-42090476D01*
X42790476Y-42042857D01*
X42838095Y-41947619D01*
X42885714Y-41900000D01*
X42980952Y-41852381D01*
X43171429Y-41852381D01*
X43266667Y-41900000D01*
X43314286Y-41947619D01*
X43361905Y-42042857D01*
X43361905Y-42090476D01*
X43314286Y-42185714D01*
X43266667Y-42233333D01*
X43171429Y-42280952D01*
X42980952Y-42280952D01*
X42885714Y-42328571D01*
X42838095Y-42376190D01*
X42790476Y-42471429D01*
X42790476Y-42661905D01*
X42838095Y-42757143D01*
X42885714Y-42804762D01*
X42980952Y-42852381D01*
X43171429Y-42852381D01*
X43266667Y-42804762D01*
X43314286Y-42757143D01*
X43361905Y-42661905D01*
X43361905Y-42471429D01*
X43314286Y-42376190D01*
X43266667Y-42328571D01*
X43171429Y-42280952D01*
X43285714Y-117652381D02*
X43285714Y-116652381D01*
X43666667Y-116652381D01*
X43761905Y-116700000D01*
X43809524Y-116747619D01*
X43857143Y-116842857D01*
X43857143Y-116985714D01*
X43809524Y-117080952D01*
X43761905Y-117128571D01*
X43666667Y-117176190D01*
X43285714Y-117176190D01*
X44809524Y-117652381D02*
X44238095Y-117652381D01*
X44523809Y-117652381D02*
X44523809Y-116652381D01*
X44428571Y-116795238D01*
X44333333Y-116890476D01*
X44238095Y-116938095D01*
X45285714Y-117652381D02*
X45476190Y-117652381D01*
X45571429Y-117604762D01*
X45619048Y-117557143D01*
X45714286Y-117414286D01*
X45761905Y-117223810D01*
X45761905Y-116842857D01*
X45714286Y-116747619D01*
X45666667Y-116700000D01*
X45571429Y-116652381D01*
X45380952Y-116652381D01*
X45285714Y-116700000D01*
X45238095Y-116747619D01*
X45190476Y-116842857D01*
X45190476Y-117080952D01*
X45238095Y-117176190D01*
X45285714Y-117223810D01*
X45380952Y-117271429D01*
X45571429Y-117271429D01*
X45666667Y-117223810D01*
X45714286Y-117176190D01*
X45761905Y-117080952D01*
X47785714Y-36952381D02*
X47785714Y-35952381D01*
X48166667Y-35952381D01*
X48261905Y-36000000D01*
X48309524Y-36047619D01*
X48357143Y-36142857D01*
X48357143Y-36285714D01*
X48309524Y-36380952D01*
X48261905Y-36428571D01*
X48166667Y-36476190D01*
X47785714Y-36476190D01*
X48738095Y-36047619D02*
X48785714Y-36000000D01*
X48880952Y-35952381D01*
X49119048Y-35952381D01*
X49214286Y-36000000D01*
X49261905Y-36047619D01*
X49309524Y-36142857D01*
X49309524Y-36238095D01*
X49261905Y-36380952D01*
X48690476Y-36952381D01*
X49309524Y-36952381D01*
X49928571Y-35952381D02*
X50023810Y-35952381D01*
X50119048Y-36000000D01*
X50166667Y-36047619D01*
X50214286Y-36142857D01*
X50261905Y-36333333D01*
X50261905Y-36571429D01*
X50214286Y-36761905D01*
X50166667Y-36857143D01*
X50119048Y-36904762D01*
X50023810Y-36952381D01*
X49928571Y-36952381D01*
X49833333Y-36904762D01*
X49785714Y-36857143D01*
X49738095Y-36761905D01*
X49690476Y-36571429D01*
X49690476Y-36333333D01*
X49738095Y-36142857D01*
X49785714Y-36047619D01*
X49833333Y-36000000D01*
X49928571Y-35952381D01*
X134385714Y-45452381D02*
X134385714Y-44452381D01*
X134766667Y-44452381D01*
X134861905Y-44500000D01*
X134909524Y-44547619D01*
X134957143Y-44642857D01*
X134957143Y-44785714D01*
X134909524Y-44880952D01*
X134861905Y-44928571D01*
X134766667Y-44976190D01*
X134385714Y-44976190D01*
X135338095Y-44547619D02*
X135385714Y-44500000D01*
X135480952Y-44452381D01*
X135719048Y-44452381D01*
X135814286Y-44500000D01*
X135861905Y-44547619D01*
X135909524Y-44642857D01*
X135909524Y-44738095D01*
X135861905Y-44880952D01*
X135290476Y-45452381D01*
X135909524Y-45452381D01*
X136861905Y-45452381D02*
X136290476Y-45452381D01*
X136576190Y-45452381D02*
X136576190Y-44452381D01*
X136480952Y-44595238D01*
X136385714Y-44690476D01*
X136290476Y-44738095D01*
D14*
X74923800Y-41629810D02*
X74771400Y-41387905D01*
X74662543Y-41629810D02*
X74662543Y-41121810D01*
X74836715Y-41121810D01*
X74880257Y-41146000D01*
X74902029Y-41170190D01*
X74923800Y-41218571D01*
X74923800Y-41291143D01*
X74902029Y-41339524D01*
X74880257Y-41363714D01*
X74836715Y-41387905D01*
X74662543Y-41387905D01*
X75359229Y-41629810D02*
X75097972Y-41629810D01*
X75228600Y-41629810D02*
X75228600Y-41121810D01*
X75185057Y-41194381D01*
X75141515Y-41242762D01*
X75097972Y-41266952D01*
X68923800Y-41429810D02*
X68771400Y-41187905D01*
X68662543Y-41429810D02*
X68662543Y-40921810D01*
X68836715Y-40921810D01*
X68880257Y-40946000D01*
X68902029Y-40970190D01*
X68923800Y-41018571D01*
X68923800Y-41091143D01*
X68902029Y-41139524D01*
X68880257Y-41163714D01*
X68836715Y-41187905D01*
X68662543Y-41187905D01*
X69097972Y-40970190D02*
X69119743Y-40946000D01*
X69163286Y-40921810D01*
X69272143Y-40921810D01*
X69315686Y-40946000D01*
X69337457Y-40970190D01*
X69359229Y-41018571D01*
X69359229Y-41066952D01*
X69337457Y-41139524D01*
X69076200Y-41429810D01*
X69359229Y-41429810D01*
X61523800Y-41429810D02*
X61371400Y-41187905D01*
X61262543Y-41429810D02*
X61262543Y-40921810D01*
X61436715Y-40921810D01*
X61480257Y-40946000D01*
X61502029Y-40970190D01*
X61523800Y-41018571D01*
X61523800Y-41091143D01*
X61502029Y-41139524D01*
X61480257Y-41163714D01*
X61436715Y-41187905D01*
X61262543Y-41187905D01*
X61676200Y-40921810D02*
X61959229Y-40921810D01*
X61806829Y-41115333D01*
X61872143Y-41115333D01*
X61915686Y-41139524D01*
X61937457Y-41163714D01*
X61959229Y-41212095D01*
X61959229Y-41333048D01*
X61937457Y-41381429D01*
X61915686Y-41405619D01*
X61872143Y-41429810D01*
X61741515Y-41429810D01*
X61697972Y-41405619D01*
X61676200Y-41381429D01*
X68823800Y-39029810D02*
X68671400Y-38787905D01*
X68562543Y-39029810D02*
X68562543Y-38521810D01*
X68736715Y-38521810D01*
X68780257Y-38546000D01*
X68802029Y-38570190D01*
X68823800Y-38618571D01*
X68823800Y-38691143D01*
X68802029Y-38739524D01*
X68780257Y-38763714D01*
X68736715Y-38787905D01*
X68562543Y-38787905D01*
X69215686Y-38691143D02*
X69215686Y-39029810D01*
X69106829Y-38497619D02*
X68997972Y-38860476D01*
X69281000Y-38860476D01*
X61423800Y-38929810D02*
X61271400Y-38687905D01*
X61162543Y-38929810D02*
X61162543Y-38421810D01*
X61336715Y-38421810D01*
X61380257Y-38446000D01*
X61402029Y-38470190D01*
X61423800Y-38518571D01*
X61423800Y-38591143D01*
X61402029Y-38639524D01*
X61380257Y-38663714D01*
X61336715Y-38687905D01*
X61162543Y-38687905D01*
X61837457Y-38421810D02*
X61619743Y-38421810D01*
X61597972Y-38663714D01*
X61619743Y-38639524D01*
X61663286Y-38615333D01*
X61772143Y-38615333D01*
X61815686Y-38639524D01*
X61837457Y-38663714D01*
X61859229Y-38712095D01*
X61859229Y-38833048D01*
X61837457Y-38881429D01*
X61815686Y-38905619D01*
X61772143Y-38929810D01*
X61663286Y-38929810D01*
X61619743Y-38905619D01*
X61597972Y-38881429D01*
X68823800Y-43929810D02*
X68671400Y-43687905D01*
X68562543Y-43929810D02*
X68562543Y-43421810D01*
X68736715Y-43421810D01*
X68780257Y-43446000D01*
X68802029Y-43470190D01*
X68823800Y-43518571D01*
X68823800Y-43591143D01*
X68802029Y-43639524D01*
X68780257Y-43663714D01*
X68736715Y-43687905D01*
X68562543Y-43687905D01*
X69215686Y-43421810D02*
X69128600Y-43421810D01*
X69085057Y-43446000D01*
X69063286Y-43470190D01*
X69019743Y-43542762D01*
X68997972Y-43639524D01*
X68997972Y-43833048D01*
X69019743Y-43881429D01*
X69041515Y-43905619D01*
X69085057Y-43929810D01*
X69172143Y-43929810D01*
X69215686Y-43905619D01*
X69237457Y-43881429D01*
X69259229Y-43833048D01*
X69259229Y-43712095D01*
X69237457Y-43663714D01*
X69215686Y-43639524D01*
X69172143Y-43615333D01*
X69085057Y-43615333D01*
X69041515Y-43639524D01*
X69019743Y-43663714D01*
X68997972Y-43712095D01*
X61523800Y-43929810D02*
X61371400Y-43687905D01*
X61262543Y-43929810D02*
X61262543Y-43421810D01*
X61436715Y-43421810D01*
X61480257Y-43446000D01*
X61502029Y-43470190D01*
X61523800Y-43518571D01*
X61523800Y-43591143D01*
X61502029Y-43639524D01*
X61480257Y-43663714D01*
X61436715Y-43687905D01*
X61262543Y-43687905D01*
X61676200Y-43421810D02*
X61981000Y-43421810D01*
X61785057Y-43929810D01*
%LPC*%
D15*
X54200140Y-59000000D03*
X48200660Y-59000000D03*
X51200400Y-63699000D03*
D16*
X52500000Y-122500000D03*
D17*
X52500000Y-119960000D03*
X55040000Y-122500000D03*
X55040000Y-119960000D03*
D16*
X77500000Y-122500000D03*
D17*
X77500000Y-119960000D03*
X80040000Y-122500000D03*
X80040000Y-119960000D03*
D16*
X102500000Y-122500000D03*
D17*
X102500000Y-119960000D03*
X105040000Y-122500000D03*
X105040000Y-119960000D03*
D16*
X127500000Y-122500000D03*
D17*
X127500000Y-119960000D03*
X130040000Y-122500000D03*
X130040000Y-119960000D03*
D16*
X127500000Y-97500000D03*
D17*
X127500000Y-94960000D03*
X130040000Y-97500000D03*
X130040000Y-94960000D03*
D16*
X102500000Y-97500000D03*
D17*
X102500000Y-94960000D03*
X105040000Y-97500000D03*
X105040000Y-94960000D03*
D16*
X77500000Y-97500000D03*
D17*
X77500000Y-94960000D03*
X80040000Y-97500000D03*
X80040000Y-94960000D03*
D16*
X52500000Y-97500000D03*
D17*
X52500000Y-94960000D03*
X55040000Y-97500000D03*
X55040000Y-94960000D03*
D16*
X52500000Y-72500000D03*
D17*
X52500000Y-69960000D03*
X55040000Y-72500000D03*
X55040000Y-69960000D03*
D16*
X77500000Y-72500000D03*
D17*
X77500000Y-69960000D03*
X80040000Y-72500000D03*
X80040000Y-69960000D03*
D16*
X102500000Y-72500000D03*
D17*
X102500000Y-69960000D03*
X105040000Y-72500000D03*
X105040000Y-69960000D03*
D16*
X127500000Y-72500000D03*
D17*
X127500000Y-69960000D03*
X130040000Y-72500000D03*
X130040000Y-69960000D03*
D16*
X127500000Y-47500000D03*
D17*
X127500000Y-44960000D03*
X130040000Y-47500000D03*
X130040000Y-44960000D03*
D16*
X102500000Y-47500000D03*
D17*
X102500000Y-44960000D03*
X105040000Y-47500000D03*
X105040000Y-44960000D03*
D16*
X77500000Y-47500000D03*
D17*
X77500000Y-44960000D03*
X80040000Y-47500000D03*
X80040000Y-44960000D03*
D16*
X52500000Y-47500000D03*
D17*
X52500000Y-44960000D03*
X55040000Y-47500000D03*
X55040000Y-44960000D03*
D16*
X52500000Y-130500000D03*
D17*
X52500000Y-133040000D03*
X55040000Y-130500000D03*
X55040000Y-133040000D03*
D16*
X44500000Y-47500000D03*
D17*
X44500000Y-44960000D03*
X41960000Y-47500000D03*
X41960000Y-44960000D03*
D16*
X44500000Y-122500000D03*
D17*
X41960000Y-122500000D03*
X44500000Y-119960000D03*
X41960000Y-119960000D03*
D16*
X52500000Y-39500000D03*
D17*
X52500000Y-36960000D03*
X55040000Y-39500000D03*
X55040000Y-36960000D03*
D16*
X135500000Y-47500000D03*
D17*
X138040000Y-47500000D03*
X135500000Y-50040000D03*
X138040000Y-50040000D03*
D18*
X44000000Y-39000000D03*
X44000000Y-131000000D03*
X136000000Y-39000000D03*
X136000000Y-131000000D03*
D19*
X76000000Y-40000000D03*
X73900000Y-40000000D03*
X70000000Y-40000000D03*
X67900000Y-40000000D03*
X60500000Y-40000000D03*
X62600000Y-40000000D03*
X70000000Y-37500000D03*
X67900000Y-37500000D03*
X60500000Y-37500000D03*
X62600000Y-37500000D03*
X70000000Y-42500000D03*
X67900000Y-42500000D03*
X60500000Y-42500000D03*
X62600000Y-42500000D03*
D20*
X72500000Y-59000000D03*
X90000000Y-59000000D03*
X65500000Y-52500000D03*
X65500000Y-77500000D03*
X65500000Y-87500000D03*
X65500000Y-103000000D03*
X65500000Y-111500000D03*
X65500000Y-125000000D03*
X65500000Y-130000000D03*
X65500000Y-62000000D03*
X115500000Y-53000000D03*
X115500000Y-64000000D03*
X115500000Y-77500000D03*
X115500000Y-88000000D03*
X115500000Y-103000000D03*
X115500000Y-111500000D03*
X115500000Y-130000000D03*
X115500000Y-125000000D03*
X69800000Y-63500000D03*
X70400000Y-75700000D03*
X70900000Y-83000000D03*
X114100000Y-37300000D03*
X125300000Y-38400000D03*
X136100000Y-58100000D03*
X134900000Y-70400000D03*
X135700000Y-90100000D03*
X137100000Y-116500000D03*
X42600000Y-111800000D03*
X43100000Y-95600000D03*
X42800000Y-76100000D03*
X48300000Y-50600000D03*
X68100000Y-47200000D03*
X69900000Y-55100000D03*
X62900000Y-55900000D03*
X60400000Y-62400000D03*
X61600000Y-78900000D03*
X73900000Y-125500000D03*
X70000000Y-133000000D03*
X55700000Y-79900000D03*
X61400000Y-90100000D03*
X60400000Y-100600000D03*
X60800000Y-114700000D03*
X62600000Y-123700000D03*
X60800000Y-131800000D03*
X82900000Y-37400000D03*
X83000000Y-46500000D03*
X82500000Y-61800000D03*
X83000000Y-73500000D03*
X82700000Y-90600000D03*
X82900000Y-99100000D03*
X80500000Y-107000000D03*
X87600000Y-118200000D03*
X85300000Y-126500000D03*
X96900000Y-37800000D03*
X96900000Y-42900000D03*
X96900000Y-47800000D03*
X97000000Y-55400000D03*
X97100000Y-69400000D03*
X97200000Y-82300000D03*
X98200000Y-97700000D03*
X98600000Y-109000000D03*
X98100000Y-126600000D03*
X101200000Y-132800000D03*
X109000000Y-42400000D03*
X109100000Y-47200000D03*
X108700000Y-62000000D03*
X109000000Y-70600000D03*
X109400000Y-82300000D03*
X109800000Y-97300000D03*
X109700000Y-109100000D03*
X109900000Y-119800000D03*
X110300000Y-127400000D03*
X119500000Y-127400000D03*
X124300000Y-54000000D03*
X124300000Y-58600000D03*
X124100000Y-70000000D03*
X124200000Y-82500000D03*
X124300000Y-97000000D03*
X124400000Y-108900000D03*
X124200000Y-119900000D03*
D21*
X72500000Y-43500000D03*
X58500000Y-42000000D03*
X72500000Y-114500000D03*
X70500000Y-121000000D03*
X72000000Y-42000000D03*
X85500000Y-112500000D03*
X85500000Y-99000000D03*
X85500000Y-93000000D03*
X85500000Y-72500000D03*
X85500000Y-62500000D03*
X85500000Y-48500000D03*
X85500000Y-43000000D03*
X58100000Y-128500000D03*
X45000000Y-57500000D03*
X49000000Y-55000000D03*
X63000000Y-49000000D03*
X65000000Y-44000000D03*
X47000000Y-84000000D03*
X47000000Y-109000000D03*
X48000000Y-114500000D03*
X48000000Y-120000000D03*
X47000000Y-67000000D03*
X62500000Y-44000000D03*
X61000000Y-48000000D03*
X50500000Y-53500000D03*
X43500000Y-59000000D03*
X45000000Y-68500000D03*
X45000000Y-86500000D03*
X45000000Y-109500000D03*
X65000000Y-38500000D03*
X64000000Y-37500000D03*
X123500000Y-40500000D03*
X101500000Y-41000000D03*
X85500000Y-41000000D03*
X65500000Y-41000000D03*
X64000000Y-40000000D03*
X130000000Y-56000000D03*
X112500000Y-55500000D03*
X112500000Y-48500000D03*
X106000000Y-40000000D03*
X86500000Y-40000000D03*
M02*
