G04 #@! TF.FileFunction,Copper,L2,Bot,Signal*
%FSLAX46Y46*%
G04 Gerber Fmt 4.6, Leading zero omitted, Abs format (unit mm)*
G04 Created by KiCad (PCBNEW 4.0.1-stable) date 2016/01/09 18:54:27*
%MOMM*%
G01*
G04 APERTURE LIST*
%ADD10C,0.100000*%
%ADD11R,3.500120X3.500120*%
%ADD12R,1.727200X1.727200*%
%ADD13O,1.727200X1.727200*%
%ADD14C,4.500000*%
%ADD15C,1.200000*%
%ADD16C,0.600000*%
%ADD17C,1.500000*%
%ADD18C,0.400000*%
%ADD19C,0.170000*%
G04 APERTURE END LIST*
D10*
D11*
X54200140Y-59000000D03*
X48200660Y-59000000D03*
X51200400Y-63699000D03*
D12*
X52500000Y-122500000D03*
D13*
X52500000Y-119960000D03*
X55040000Y-122500000D03*
X55040000Y-119960000D03*
D12*
X77500000Y-122500000D03*
D13*
X77500000Y-119960000D03*
X80040000Y-122500000D03*
X80040000Y-119960000D03*
D12*
X102500000Y-122500000D03*
D13*
X102500000Y-119960000D03*
X105040000Y-122500000D03*
X105040000Y-119960000D03*
D12*
X127500000Y-122500000D03*
D13*
X127500000Y-119960000D03*
X130040000Y-122500000D03*
X130040000Y-119960000D03*
D12*
X127500000Y-97500000D03*
D13*
X127500000Y-94960000D03*
X130040000Y-97500000D03*
X130040000Y-94960000D03*
D12*
X102500000Y-97500000D03*
D13*
X102500000Y-94960000D03*
X105040000Y-97500000D03*
X105040000Y-94960000D03*
D12*
X77500000Y-97500000D03*
D13*
X77500000Y-94960000D03*
X80040000Y-97500000D03*
X80040000Y-94960000D03*
D12*
X52500000Y-97500000D03*
D13*
X52500000Y-94960000D03*
X55040000Y-97500000D03*
X55040000Y-94960000D03*
D12*
X52500000Y-72500000D03*
D13*
X52500000Y-69960000D03*
X55040000Y-72500000D03*
X55040000Y-69960000D03*
D12*
X77500000Y-72500000D03*
D13*
X77500000Y-69960000D03*
X80040000Y-72500000D03*
X80040000Y-69960000D03*
D12*
X102500000Y-72500000D03*
D13*
X102500000Y-69960000D03*
X105040000Y-72500000D03*
X105040000Y-69960000D03*
D12*
X127500000Y-72500000D03*
D13*
X127500000Y-69960000D03*
X130040000Y-72500000D03*
X130040000Y-69960000D03*
D12*
X127500000Y-47500000D03*
D13*
X127500000Y-44960000D03*
X130040000Y-47500000D03*
X130040000Y-44960000D03*
D12*
X102500000Y-47500000D03*
D13*
X102500000Y-44960000D03*
X105040000Y-47500000D03*
X105040000Y-44960000D03*
D12*
X77500000Y-47500000D03*
D13*
X77500000Y-44960000D03*
X80040000Y-47500000D03*
X80040000Y-44960000D03*
D12*
X52500000Y-47500000D03*
D13*
X52500000Y-44960000D03*
X55040000Y-47500000D03*
X55040000Y-44960000D03*
D12*
X52500000Y-130500000D03*
D13*
X52500000Y-133040000D03*
X55040000Y-130500000D03*
X55040000Y-133040000D03*
D12*
X44500000Y-47500000D03*
D13*
X44500000Y-44960000D03*
X41960000Y-47500000D03*
X41960000Y-44960000D03*
D12*
X44500000Y-122500000D03*
D13*
X41960000Y-122500000D03*
X44500000Y-119960000D03*
X41960000Y-119960000D03*
D12*
X52500000Y-39500000D03*
D13*
X52500000Y-36960000D03*
X55040000Y-39500000D03*
X55040000Y-36960000D03*
D12*
X135500000Y-47500000D03*
D13*
X138040000Y-47500000D03*
X135500000Y-50040000D03*
X138040000Y-50040000D03*
D14*
X44000000Y-39000000D03*
X44000000Y-131000000D03*
X136000000Y-39000000D03*
X136000000Y-131000000D03*
D15*
X72500000Y-59000000D03*
X90000000Y-59000000D03*
X65500000Y-52500000D03*
X65500000Y-77500000D03*
X65500000Y-87500000D03*
X65500000Y-103000000D03*
X65500000Y-111500000D03*
X65500000Y-125000000D03*
X65500000Y-130000000D03*
X65500000Y-62000000D03*
X115500000Y-53000000D03*
X115500000Y-64000000D03*
X115500000Y-77500000D03*
X115500000Y-88000000D03*
X115500000Y-103000000D03*
X115500000Y-111500000D03*
X115500000Y-130000000D03*
X115500000Y-125000000D03*
X69800000Y-63500000D03*
X70400000Y-75700000D03*
X70900000Y-83000000D03*
X114100000Y-37300000D03*
X125300000Y-38400000D03*
X136100000Y-58100000D03*
X134900000Y-70400000D03*
X135700000Y-90100000D03*
X137100000Y-116500000D03*
X42600000Y-111800000D03*
X43100000Y-95600000D03*
X42800000Y-76100000D03*
X48300000Y-50600000D03*
X68100000Y-47200000D03*
X69900000Y-55100000D03*
X62900000Y-55900000D03*
X60400000Y-62400000D03*
X61600000Y-78900000D03*
X73900000Y-125500000D03*
X70000000Y-133000000D03*
X55700000Y-79900000D03*
X61400000Y-90100000D03*
X60400000Y-100600000D03*
X60800000Y-114700000D03*
X62600000Y-123700000D03*
X60800000Y-131800000D03*
X82900000Y-37400000D03*
X83000000Y-46500000D03*
X82500000Y-61800000D03*
X83000000Y-73500000D03*
X82700000Y-90600000D03*
X82900000Y-99100000D03*
X80500000Y-107000000D03*
X87600000Y-118200000D03*
X85300000Y-126500000D03*
X96900000Y-37800000D03*
X96900000Y-42900000D03*
X96900000Y-47800000D03*
X97000000Y-55400000D03*
X97100000Y-69400000D03*
X97200000Y-82300000D03*
X98200000Y-97700000D03*
X98600000Y-109000000D03*
X98100000Y-126600000D03*
X101200000Y-132800000D03*
X109000000Y-42400000D03*
X109100000Y-47200000D03*
X108700000Y-62000000D03*
X109000000Y-70600000D03*
X109400000Y-82300000D03*
X109800000Y-97300000D03*
X109700000Y-109100000D03*
X109900000Y-119800000D03*
X110300000Y-127400000D03*
X119500000Y-127400000D03*
X124300000Y-54000000D03*
X124300000Y-58600000D03*
X124100000Y-70000000D03*
X124200000Y-82500000D03*
X124300000Y-97000000D03*
X124400000Y-108900000D03*
X124200000Y-119900000D03*
D16*
X72500000Y-43500000D03*
X58500000Y-42000000D03*
X72500000Y-114500000D03*
X70500000Y-121000000D03*
X72000000Y-42000000D03*
X85500000Y-112500000D03*
X85500000Y-99000000D03*
X85500000Y-93000000D03*
X85500000Y-72500000D03*
X85500000Y-62500000D03*
X85500000Y-48500000D03*
X85500000Y-43000000D03*
X58100000Y-128500000D03*
X45000000Y-57500000D03*
X49000000Y-55000000D03*
X63000000Y-49000000D03*
X65000000Y-44000000D03*
X47000000Y-84000000D03*
X47000000Y-109000000D03*
X48000000Y-114500000D03*
X48000000Y-120000000D03*
X47000000Y-67000000D03*
X62500000Y-44000000D03*
X61000000Y-48000000D03*
X50500000Y-53500000D03*
X43500000Y-59000000D03*
X45000000Y-68500000D03*
X45000000Y-86500000D03*
X45000000Y-109500000D03*
X65000000Y-38500000D03*
X64000000Y-37500000D03*
X123500000Y-40500000D03*
X101500000Y-41000000D03*
X85500000Y-41000000D03*
X65500000Y-41000000D03*
X64000000Y-40000000D03*
X130000000Y-56000000D03*
X112500000Y-55500000D03*
X112500000Y-48500000D03*
X106000000Y-40000000D03*
X86500000Y-40000000D03*
D17*
X44500000Y-44960000D02*
X44500000Y-47500000D01*
X115500000Y-64000000D02*
X110500000Y-59000000D01*
X110500000Y-59000000D02*
X108500000Y-59000000D01*
X65500000Y-62000000D02*
X68500000Y-59000000D01*
X68500000Y-59000000D02*
X72500000Y-59000000D01*
X90000000Y-59000000D02*
X92500000Y-59000000D01*
X92500000Y-59000000D02*
X108500000Y-59000000D01*
X65500000Y-52500000D02*
X64000000Y-51000000D01*
X52500000Y-50000000D02*
X52500000Y-47500000D01*
X53500000Y-51000000D02*
X52500000Y-50000000D01*
X64000000Y-51000000D02*
X53500000Y-51000000D01*
X65500000Y-52500000D02*
X67000000Y-51000000D01*
X77500000Y-49500000D02*
X77500000Y-47500000D01*
X76000000Y-51000000D02*
X77500000Y-49500000D01*
X67000000Y-51000000D02*
X76000000Y-51000000D01*
X65500000Y-77500000D02*
X67000000Y-79000000D01*
X77500000Y-77500000D02*
X77500000Y-72500000D01*
X76000000Y-79000000D02*
X77500000Y-77500000D01*
X67000000Y-79000000D02*
X76000000Y-79000000D01*
X77500000Y-97500000D02*
X77500000Y-103000000D01*
X67500000Y-105000000D02*
X65500000Y-103000000D01*
X75500000Y-105000000D02*
X67500000Y-105000000D01*
X77500000Y-103000000D02*
X75500000Y-105000000D01*
X52500000Y-97500000D02*
X52500000Y-103000000D01*
X63500000Y-105000000D02*
X65500000Y-103000000D01*
X54500000Y-105000000D02*
X63500000Y-105000000D01*
X52500000Y-103000000D02*
X54500000Y-105000000D01*
X65500000Y-130000000D02*
X75500000Y-130000000D01*
X77500000Y-128000000D02*
X77500000Y-122500000D01*
X75500000Y-130000000D02*
X77500000Y-128000000D01*
X52500000Y-122500000D02*
X52500000Y-123400000D01*
X65500000Y-87500000D02*
X65500000Y-103000000D01*
X65500000Y-111500000D02*
X65500000Y-125000000D01*
X65500000Y-77500000D02*
X65500000Y-62000000D01*
X65000000Y-130000000D02*
X65500000Y-130000000D01*
X60500000Y-125500000D02*
X65000000Y-130000000D01*
X54600000Y-125500000D02*
X60500000Y-125500000D01*
X52500000Y-123400000D02*
X54600000Y-125500000D01*
X115500000Y-130000000D02*
X114000000Y-131500000D01*
X104500000Y-131500000D02*
X102500000Y-129500000D01*
X102500000Y-129500000D02*
X102500000Y-122500000D01*
X114000000Y-131500000D02*
X104500000Y-131500000D01*
X54200140Y-59000000D02*
X62500000Y-59000000D01*
X62500000Y-59000000D02*
X65500000Y-62000000D01*
X115500000Y-53000000D02*
X114000000Y-51500000D01*
X114000000Y-51500000D02*
X103500000Y-51500000D01*
X103500000Y-51500000D02*
X102500000Y-50500000D01*
X102500000Y-50500000D02*
X102500000Y-47500000D01*
X127500000Y-50500000D02*
X127500000Y-47500000D01*
X126500000Y-51500000D02*
X127500000Y-50500000D01*
X117000000Y-51500000D02*
X126500000Y-51500000D01*
X115500000Y-53000000D02*
X117000000Y-51500000D01*
X102500000Y-72500000D02*
X102500000Y-78000000D01*
X102500000Y-78000000D02*
X104000000Y-79500000D01*
X104000000Y-79500000D02*
X113500000Y-79500000D01*
X113500000Y-79500000D02*
X115500000Y-77500000D01*
X127500000Y-72500000D02*
X127500000Y-77500000D01*
X117500000Y-79500000D02*
X115500000Y-77500000D01*
X125500000Y-79500000D02*
X117500000Y-79500000D01*
X127500000Y-77500000D02*
X125500000Y-79500000D01*
X102500000Y-97500000D02*
X102500000Y-105000000D01*
X102500000Y-105000000D02*
X104000000Y-106500000D01*
X104000000Y-106500000D02*
X112000000Y-106500000D01*
X112000000Y-106500000D02*
X115500000Y-103000000D01*
X127500000Y-97500000D02*
X127500000Y-104000000D01*
X119000000Y-106500000D02*
X115500000Y-103000000D01*
X125000000Y-106500000D02*
X119000000Y-106500000D01*
X127500000Y-104000000D02*
X125000000Y-106500000D01*
X115500000Y-111500000D02*
X115500000Y-125000000D01*
X115500000Y-64000000D02*
X115500000Y-77500000D01*
X115500000Y-88000000D02*
X115500000Y-103000000D01*
X127500000Y-128500000D02*
X127500000Y-122500000D01*
X124500000Y-131500000D02*
X127500000Y-128500000D01*
X117000000Y-131500000D02*
X124500000Y-131500000D01*
X115500000Y-130000000D02*
X117000000Y-131500000D01*
X82700000Y-90600000D02*
X78300000Y-90600000D01*
X69800000Y-75100000D02*
X69800000Y-63500000D01*
X70400000Y-75700000D02*
X69800000Y-75100000D01*
X70900000Y-83200000D02*
X70900000Y-83000000D01*
X78300000Y-90600000D02*
X70900000Y-83200000D01*
X136000000Y-39000000D02*
X125900000Y-39000000D01*
X125900000Y-39000000D02*
X125300000Y-38400000D01*
X136000000Y-131000000D02*
X136000000Y-117600000D01*
X136100000Y-58100000D02*
X136100000Y-58000000D01*
X134900000Y-89300000D02*
X134900000Y-70400000D01*
X135700000Y-90100000D02*
X134900000Y-89300000D01*
X136000000Y-117600000D02*
X137100000Y-116500000D01*
X43100000Y-76400000D02*
X43100000Y-95600000D01*
X42800000Y-76100000D02*
X43100000Y-76400000D01*
X44000000Y-39000000D02*
X44900000Y-39000000D01*
X44900000Y-39000000D02*
X48300000Y-42400000D01*
X48300000Y-42400000D02*
X48300000Y-50600000D01*
X63700000Y-55100000D02*
X69900000Y-55100000D01*
X62900000Y-55900000D02*
X63700000Y-55100000D01*
X60400000Y-77700000D02*
X60400000Y-62400000D01*
X61600000Y-78900000D02*
X60400000Y-77700000D01*
X70000000Y-133000000D02*
X62000000Y-133000000D01*
X77300000Y-107000000D02*
X73900000Y-110400000D01*
X73900000Y-110400000D02*
X73900000Y-125500000D01*
X80500000Y-107000000D02*
X77300000Y-107000000D01*
X61400000Y-99600000D02*
X61400000Y-90100000D01*
X60400000Y-100600000D02*
X61400000Y-99600000D01*
X60800000Y-121900000D02*
X60800000Y-114700000D01*
X62600000Y-123700000D02*
X60800000Y-121900000D01*
X62000000Y-133000000D02*
X60800000Y-131800000D01*
X83000000Y-61300000D02*
X83000000Y-46500000D01*
X82500000Y-61800000D02*
X83000000Y-61300000D01*
X83000000Y-90300000D02*
X83000000Y-73500000D01*
X82700000Y-90600000D02*
X83000000Y-90300000D01*
X82900000Y-104600000D02*
X82900000Y-99100000D01*
X80500000Y-107000000D02*
X82900000Y-104600000D01*
X87600000Y-124200000D02*
X87600000Y-118200000D01*
X85300000Y-126500000D02*
X87600000Y-124200000D01*
X96900000Y-42900000D02*
X96900000Y-37800000D01*
X96900000Y-55300000D02*
X96900000Y-47800000D01*
X97000000Y-55400000D02*
X96900000Y-55300000D01*
X97100000Y-82200000D02*
X97100000Y-69400000D01*
X97200000Y-82300000D02*
X97100000Y-82200000D01*
X98200000Y-108600000D02*
X98200000Y-97700000D01*
X98600000Y-109000000D02*
X98200000Y-108600000D01*
X98100000Y-129700000D02*
X98100000Y-126600000D01*
X101200000Y-132800000D02*
X98100000Y-129700000D01*
X109000000Y-47100000D02*
X109000000Y-42400000D01*
X109100000Y-47200000D02*
X109000000Y-47100000D01*
X108700000Y-70300000D02*
X108700000Y-62000000D01*
X109000000Y-70600000D02*
X108700000Y-70300000D01*
X109400000Y-96900000D02*
X109400000Y-82300000D01*
X109800000Y-97300000D02*
X109400000Y-96900000D01*
X109700000Y-119600000D02*
X109700000Y-109100000D01*
X109900000Y-119800000D02*
X109700000Y-119600000D01*
X119500000Y-127400000D02*
X110300000Y-127400000D01*
X124300000Y-54000000D02*
X124300000Y-53800000D01*
X124300000Y-69800000D02*
X124300000Y-58600000D01*
X124100000Y-70000000D02*
X124300000Y-69800000D01*
X124200000Y-96900000D02*
X124200000Y-82500000D01*
X124300000Y-97000000D02*
X124200000Y-96900000D01*
X124400000Y-119700000D02*
X124400000Y-108900000D01*
X124200000Y-119900000D02*
X124400000Y-119700000D01*
D18*
X77500000Y-119960000D02*
X77500000Y-116500000D01*
X105040000Y-117040000D02*
X105040000Y-119960000D01*
X104000000Y-116000000D02*
X105040000Y-117040000D01*
X78000000Y-116000000D02*
X104000000Y-116000000D01*
X77500000Y-116500000D02*
X78000000Y-116000000D01*
X127500000Y-119960000D02*
X127500000Y-117000000D01*
X132460000Y-94960000D02*
X130040000Y-94960000D01*
X133500000Y-96000000D02*
X132460000Y-94960000D01*
X133500000Y-115500000D02*
X133500000Y-96000000D01*
X132500000Y-116500000D02*
X133500000Y-115500000D01*
X128000000Y-116500000D02*
X132500000Y-116500000D01*
X127500000Y-117000000D02*
X128000000Y-116500000D01*
X102500000Y-94960000D02*
X80040000Y-94960000D01*
X52500000Y-94960000D02*
X52500000Y-93500000D01*
X57460000Y-69960000D02*
X55040000Y-69960000D01*
X58500000Y-71000000D02*
X57460000Y-69960000D01*
X58500000Y-92000000D02*
X58500000Y-71000000D01*
X57500000Y-93000000D02*
X58500000Y-92000000D01*
X53000000Y-93000000D02*
X57500000Y-93000000D01*
X52500000Y-93500000D02*
X53000000Y-93000000D01*
X77500000Y-69960000D02*
X77500000Y-66500000D01*
X105040000Y-66540000D02*
X105040000Y-69960000D01*
X104000000Y-65500000D02*
X105040000Y-66540000D01*
X78500000Y-65500000D02*
X104000000Y-65500000D01*
X77500000Y-66500000D02*
X78500000Y-65500000D01*
X127500000Y-69960000D02*
X127500000Y-67500000D01*
X131960000Y-44960000D02*
X130040000Y-44960000D01*
X133000000Y-46000000D02*
X131960000Y-44960000D01*
X133000000Y-65000000D02*
X133000000Y-46000000D01*
X131500000Y-66500000D02*
X133000000Y-65000000D01*
X128500000Y-66500000D02*
X131500000Y-66500000D01*
X127500000Y-67500000D02*
X128500000Y-66500000D01*
X102500000Y-44960000D02*
X80040000Y-44960000D01*
X59000000Y-42500000D02*
X58500000Y-42000000D01*
X67000000Y-42500000D02*
X59000000Y-42500000D01*
X68000000Y-43500000D02*
X67000000Y-42500000D01*
X72500000Y-43500000D02*
X68000000Y-43500000D01*
X52500000Y-44960000D02*
X52500000Y-43500000D01*
X58000000Y-42500000D02*
X58500000Y-42000000D01*
X53500000Y-42500000D02*
X58000000Y-42500000D01*
X52500000Y-43500000D02*
X53500000Y-42500000D01*
X52500000Y-133040000D02*
X51340000Y-133040000D01*
X72500000Y-114500000D02*
X72000000Y-114500000D01*
X72000000Y-114500000D02*
X70500000Y-116000000D01*
X70500000Y-116000000D02*
X70500000Y-121000000D01*
X85500000Y-99000000D02*
X85500000Y-112500000D01*
X85500000Y-72500000D02*
X85500000Y-93000000D01*
X85500000Y-48500000D02*
X85500000Y-62500000D01*
X84500000Y-42000000D02*
X85500000Y-43000000D01*
X84500000Y-42000000D02*
X72000000Y-42000000D01*
X51100000Y-128500000D02*
X58100000Y-128500000D01*
X50400000Y-129200000D02*
X51100000Y-128500000D01*
X50400000Y-132100000D02*
X50400000Y-129200000D01*
X51340000Y-133040000D02*
X50400000Y-132100000D01*
X45000000Y-57500000D02*
X45000000Y-55500000D01*
X45000000Y-55500000D02*
X45500000Y-55000000D01*
X45500000Y-55000000D02*
X49000000Y-55000000D01*
X63000000Y-49000000D02*
X65000000Y-47000000D01*
X65000000Y-47000000D02*
X65000000Y-44000000D01*
X41960000Y-122500000D02*
X41960000Y-124460000D01*
X47000000Y-84000000D02*
X47000000Y-67000000D01*
X47000000Y-113500000D02*
X47000000Y-109000000D01*
X48000000Y-114500000D02*
X47000000Y-113500000D01*
X48000000Y-124000000D02*
X48000000Y-120000000D01*
X47000000Y-125000000D02*
X48000000Y-124000000D01*
X42500000Y-125000000D02*
X47000000Y-125000000D01*
X41960000Y-124460000D02*
X42500000Y-125000000D01*
X41960000Y-119960000D02*
X41960000Y-117040000D01*
X62500000Y-46500000D02*
X62500000Y-44000000D01*
X61000000Y-48000000D02*
X62500000Y-46500000D01*
X45000000Y-53500000D02*
X50500000Y-53500000D01*
X43500000Y-55000000D02*
X45000000Y-53500000D01*
X43500000Y-59000000D02*
X43500000Y-55000000D01*
X45000000Y-86500000D02*
X45000000Y-68500000D01*
X45000000Y-114000000D02*
X45000000Y-109500000D01*
X41960000Y-117040000D02*
X45000000Y-114000000D01*
X50540000Y-36960000D02*
X50000000Y-37500000D01*
X50000000Y-37500000D02*
X50000000Y-40500000D01*
X50000000Y-40500000D02*
X51000000Y-41500000D01*
X51000000Y-41500000D02*
X57000000Y-41500000D01*
X57000000Y-41500000D02*
X60000000Y-38500000D01*
X60000000Y-38500000D02*
X65000000Y-38500000D01*
X52500000Y-36960000D02*
X50540000Y-36960000D01*
X64000000Y-37500000D02*
X57000000Y-37500000D01*
X56460000Y-36960000D02*
X55040000Y-36960000D01*
X57000000Y-37500000D02*
X56460000Y-36960000D01*
X104000000Y-38500000D02*
X110500000Y-38500000D01*
X110500000Y-38500000D02*
X112500000Y-40500000D01*
X112500000Y-40500000D02*
X123500000Y-40500000D01*
X65500000Y-41000000D02*
X85500000Y-41000000D01*
X101500000Y-41000000D02*
X104000000Y-38500000D01*
X64000000Y-40000000D02*
X65500000Y-40000000D01*
X113000000Y-56000000D02*
X130000000Y-56000000D01*
X112500000Y-55500000D02*
X113000000Y-56000000D01*
X112500000Y-43000000D02*
X112500000Y-48500000D01*
X109500000Y-40000000D02*
X112500000Y-43000000D01*
X106000000Y-40000000D02*
X109500000Y-40000000D01*
X65500000Y-40000000D02*
X86500000Y-40000000D01*
D19*
G36*
X139586000Y-134586000D02*
X40414000Y-134586000D01*
X40414000Y-129200000D01*
X49860999Y-129200000D01*
X49861000Y-129200005D01*
X49861000Y-132099995D01*
X49860999Y-132100000D01*
X49902029Y-132306267D01*
X50018869Y-132481131D01*
X50958867Y-133421128D01*
X50958869Y-133421131D01*
X51077228Y-133500215D01*
X51133734Y-133537971D01*
X51340000Y-133579001D01*
X51340005Y-133579000D01*
X51418024Y-133579000D01*
X51626073Y-133890367D01*
X52016225Y-134151058D01*
X52476440Y-134242600D01*
X52523560Y-134242600D01*
X52983775Y-134151058D01*
X53373927Y-133890367D01*
X53634618Y-133500215D01*
X53726160Y-133040000D01*
X53634618Y-132579785D01*
X53373927Y-132189633D01*
X52983775Y-131928942D01*
X52523560Y-131837400D01*
X52476440Y-131837400D01*
X52016225Y-131928942D01*
X51626073Y-132189633D01*
X51476198Y-132413937D01*
X50939000Y-131876738D01*
X50939000Y-129636400D01*
X51290759Y-129636400D01*
X51290759Y-131363600D01*
X51314397Y-131489226D01*
X51388642Y-131604605D01*
X51501926Y-131682009D01*
X51636400Y-131709241D01*
X53363600Y-131709241D01*
X53489226Y-131685603D01*
X53604605Y-131611358D01*
X53682009Y-131498074D01*
X53709241Y-131363600D01*
X53709241Y-131066492D01*
X53770198Y-131213670D01*
X54139966Y-131645277D01*
X54646755Y-131902526D01*
X54870998Y-131798527D01*
X54870998Y-131866330D01*
X54556225Y-131928942D01*
X54166073Y-132189633D01*
X53905382Y-132579785D01*
X53813840Y-133040000D01*
X53905382Y-133500215D01*
X54166073Y-133890367D01*
X54556225Y-134151058D01*
X55016440Y-134242600D01*
X55063560Y-134242600D01*
X55523775Y-134151058D01*
X55913927Y-133890367D01*
X56174618Y-133500215D01*
X56266160Y-133040000D01*
X56174618Y-132579785D01*
X55913927Y-132189633D01*
X55523775Y-131928942D01*
X55209002Y-131866330D01*
X55209002Y-131798527D01*
X55433245Y-131902526D01*
X55940034Y-131645277D01*
X56309802Y-131213670D01*
X56442514Y-130893243D01*
X56337389Y-130669000D01*
X55209000Y-130669000D01*
X55209000Y-130689000D01*
X54871000Y-130689000D01*
X54871000Y-130669000D01*
X54851000Y-130669000D01*
X54851000Y-130331000D01*
X54871000Y-130331000D01*
X54871000Y-129201474D01*
X55209000Y-129201474D01*
X55209000Y-130331000D01*
X56337389Y-130331000D01*
X56442514Y-130106757D01*
X56309802Y-129786330D01*
X55940034Y-129354723D01*
X55433245Y-129097474D01*
X55209000Y-129201474D01*
X54871000Y-129201474D01*
X54646755Y-129097474D01*
X54139966Y-129354723D01*
X53770198Y-129786330D01*
X53709241Y-129933508D01*
X53709241Y-129636400D01*
X53685603Y-129510774D01*
X53611358Y-129395395D01*
X53498074Y-129317991D01*
X53363600Y-129290759D01*
X51636400Y-129290759D01*
X51510774Y-129314397D01*
X51395395Y-129388642D01*
X51317991Y-129501926D01*
X51290759Y-129636400D01*
X50939000Y-129636400D01*
X50939000Y-129423262D01*
X51323261Y-129039000D01*
X57735165Y-129039000D01*
X57737563Y-129041402D01*
X57972337Y-129138889D01*
X58226547Y-129139111D01*
X58461492Y-129042034D01*
X58641402Y-128862437D01*
X58738889Y-128627663D01*
X58739111Y-128373453D01*
X58642034Y-128138508D01*
X58462437Y-127958598D01*
X58227663Y-127861111D01*
X57973453Y-127860889D01*
X57738508Y-127957966D01*
X57735469Y-127961000D01*
X51100000Y-127961000D01*
X50893734Y-128002029D01*
X50718869Y-128118869D01*
X50718867Y-128118872D01*
X50018869Y-128818869D01*
X49902029Y-128993733D01*
X49860999Y-129200000D01*
X40414000Y-129200000D01*
X40414000Y-122500000D01*
X40733840Y-122500000D01*
X40825382Y-122960215D01*
X41086073Y-123350367D01*
X41421000Y-123574158D01*
X41421000Y-124459995D01*
X41420999Y-124460000D01*
X41462029Y-124666267D01*
X41578869Y-124841131D01*
X42118867Y-125381128D01*
X42118869Y-125381131D01*
X42223693Y-125451171D01*
X42293733Y-125497971D01*
X42500000Y-125539000D01*
X46999995Y-125539000D01*
X47000000Y-125539001D01*
X47206267Y-125497971D01*
X47381131Y-125381131D01*
X48381128Y-124381133D01*
X48381131Y-124381131D01*
X48497971Y-124206266D01*
X48505177Y-124170039D01*
X48539001Y-124000000D01*
X48539000Y-123999995D01*
X48539000Y-121636400D01*
X51290759Y-121636400D01*
X51290759Y-123363600D01*
X51314397Y-123489226D01*
X51388642Y-123604605D01*
X51461616Y-123654466D01*
X51493895Y-123816743D01*
X51729961Y-124170039D01*
X53829960Y-126270039D01*
X54066026Y-126427773D01*
X54183258Y-126506105D01*
X54600000Y-126589000D01*
X60048922Y-126589000D01*
X64229961Y-130770039D01*
X64583257Y-131006105D01*
X65000000Y-131089000D01*
X75500000Y-131089000D01*
X75916743Y-131006105D01*
X76270039Y-130770039D01*
X78270039Y-128770039D01*
X78506105Y-128416743D01*
X78589000Y-128000000D01*
X78589000Y-123621400D01*
X78604605Y-123611358D01*
X78682009Y-123498074D01*
X78709241Y-123363600D01*
X78709241Y-123034628D01*
X78894723Y-123400034D01*
X79326330Y-123769802D01*
X79646757Y-123902514D01*
X79871000Y-123797389D01*
X79871000Y-122669000D01*
X80209000Y-122669000D01*
X80209000Y-123797389D01*
X80433243Y-123902514D01*
X80753670Y-123769802D01*
X81185277Y-123400034D01*
X81442526Y-122893245D01*
X81338526Y-122669000D01*
X80209000Y-122669000D01*
X79871000Y-122669000D01*
X79851000Y-122669000D01*
X79851000Y-122331000D01*
X79871000Y-122331000D01*
X79871000Y-122311000D01*
X80209000Y-122311000D01*
X80209000Y-122331000D01*
X81338526Y-122331000D01*
X81442526Y-122106755D01*
X81185277Y-121599966D01*
X80753670Y-121230198D01*
X80450294Y-121104548D01*
X80500215Y-121094618D01*
X80890367Y-120833927D01*
X81151058Y-120443775D01*
X81242600Y-119983560D01*
X81242600Y-119936440D01*
X101297400Y-119936440D01*
X101297400Y-119983560D01*
X101388942Y-120443775D01*
X101649633Y-120833927D01*
X102039785Y-121094618D01*
X102500000Y-121186160D01*
X102960215Y-121094618D01*
X103350367Y-120833927D01*
X103611058Y-120443775D01*
X103702600Y-119983560D01*
X103702600Y-119936440D01*
X103611058Y-119476225D01*
X103350367Y-119086073D01*
X102960215Y-118825382D01*
X102500000Y-118733840D01*
X102039785Y-118825382D01*
X101649633Y-119086073D01*
X101388942Y-119476225D01*
X101297400Y-119936440D01*
X81242600Y-119936440D01*
X81151058Y-119476225D01*
X80890367Y-119086073D01*
X80500215Y-118825382D01*
X80040000Y-118733840D01*
X79579785Y-118825382D01*
X79189633Y-119086073D01*
X78928942Y-119476225D01*
X78837400Y-119936440D01*
X78837400Y-119983560D01*
X78928942Y-120443775D01*
X79189633Y-120833927D01*
X79579785Y-121094618D01*
X79629706Y-121104548D01*
X79326330Y-121230198D01*
X78894723Y-121599966D01*
X78709241Y-121965372D01*
X78709241Y-121636400D01*
X78685603Y-121510774D01*
X78611358Y-121395395D01*
X78498074Y-121317991D01*
X78363600Y-121290759D01*
X76636400Y-121290759D01*
X76510774Y-121314397D01*
X76395395Y-121388642D01*
X76317991Y-121501926D01*
X76290759Y-121636400D01*
X76290759Y-123363600D01*
X76314397Y-123489226D01*
X76388642Y-123604605D01*
X76411000Y-123619882D01*
X76411000Y-127548922D01*
X75048922Y-128911000D01*
X65451078Y-128911000D01*
X61270039Y-124729961D01*
X60916743Y-124493895D01*
X60500000Y-124411000D01*
X55051079Y-124411000D01*
X54468950Y-123828871D01*
X54646757Y-123902514D01*
X54871000Y-123797389D01*
X54871000Y-122669000D01*
X55209000Y-122669000D01*
X55209000Y-123797389D01*
X55433243Y-123902514D01*
X55753670Y-123769802D01*
X56185277Y-123400034D01*
X56442526Y-122893245D01*
X56338526Y-122669000D01*
X55209000Y-122669000D01*
X54871000Y-122669000D01*
X54851000Y-122669000D01*
X54851000Y-122331000D01*
X54871000Y-122331000D01*
X54871000Y-122311000D01*
X55209000Y-122311000D01*
X55209000Y-122331000D01*
X56338526Y-122331000D01*
X56442526Y-122106755D01*
X56185277Y-121599966D01*
X55753670Y-121230198D01*
X55450294Y-121104548D01*
X55500215Y-121094618D01*
X55890367Y-120833927D01*
X56151058Y-120443775D01*
X56242600Y-119983560D01*
X56242600Y-119936440D01*
X56151058Y-119476225D01*
X55890367Y-119086073D01*
X55500215Y-118825382D01*
X55040000Y-118733840D01*
X54579785Y-118825382D01*
X54189633Y-119086073D01*
X53928942Y-119476225D01*
X53837400Y-119936440D01*
X53837400Y-119983560D01*
X53928942Y-120443775D01*
X54189633Y-120833927D01*
X54579785Y-121094618D01*
X54629706Y-121104548D01*
X54326330Y-121230198D01*
X53894723Y-121599966D01*
X53709241Y-121965372D01*
X53709241Y-121636400D01*
X53685603Y-121510774D01*
X53611358Y-121395395D01*
X53498074Y-121317991D01*
X53363600Y-121290759D01*
X51636400Y-121290759D01*
X51510774Y-121314397D01*
X51395395Y-121388642D01*
X51317991Y-121501926D01*
X51290759Y-121636400D01*
X48539000Y-121636400D01*
X48539000Y-120364835D01*
X48541402Y-120362437D01*
X48638889Y-120127663D01*
X48639055Y-119936440D01*
X51297400Y-119936440D01*
X51297400Y-119983560D01*
X51388942Y-120443775D01*
X51649633Y-120833927D01*
X52039785Y-121094618D01*
X52500000Y-121186160D01*
X52960215Y-121094618D01*
X53350367Y-120833927D01*
X53611058Y-120443775D01*
X53702600Y-119983560D01*
X53702600Y-119936440D01*
X53611058Y-119476225D01*
X53350367Y-119086073D01*
X52960215Y-118825382D01*
X52500000Y-118733840D01*
X52039785Y-118825382D01*
X51649633Y-119086073D01*
X51388942Y-119476225D01*
X51297400Y-119936440D01*
X48639055Y-119936440D01*
X48639111Y-119873453D01*
X48542034Y-119638508D01*
X48362437Y-119458598D01*
X48127663Y-119361111D01*
X47873453Y-119360889D01*
X47638508Y-119457966D01*
X47458598Y-119637563D01*
X47361111Y-119872337D01*
X47360889Y-120126547D01*
X47457966Y-120361492D01*
X47461000Y-120364531D01*
X47461000Y-123776739D01*
X46776738Y-124461000D01*
X42723261Y-124461000D01*
X42499000Y-124236738D01*
X42499000Y-123574158D01*
X42833927Y-123350367D01*
X43094618Y-122960215D01*
X43186160Y-122500000D01*
X43094618Y-122039785D01*
X42833927Y-121649633D01*
X42443775Y-121388942D01*
X41983560Y-121297400D01*
X41936440Y-121297400D01*
X41476225Y-121388942D01*
X41086073Y-121649633D01*
X40825382Y-122039785D01*
X40733840Y-122500000D01*
X40414000Y-122500000D01*
X40414000Y-119960000D01*
X40733840Y-119960000D01*
X40825382Y-120420215D01*
X41086073Y-120810367D01*
X41476225Y-121071058D01*
X41936440Y-121162600D01*
X41983560Y-121162600D01*
X42443775Y-121071058D01*
X42833927Y-120810367D01*
X43094618Y-120420215D01*
X43104548Y-120370294D01*
X43230198Y-120673670D01*
X43599966Y-121105277D01*
X43965372Y-121290759D01*
X43636400Y-121290759D01*
X43510774Y-121314397D01*
X43395395Y-121388642D01*
X43317991Y-121501926D01*
X43290759Y-121636400D01*
X43290759Y-123363600D01*
X43314397Y-123489226D01*
X43388642Y-123604605D01*
X43501926Y-123682009D01*
X43636400Y-123709241D01*
X45363600Y-123709241D01*
X45489226Y-123685603D01*
X45604605Y-123611358D01*
X45682009Y-123498074D01*
X45709241Y-123363600D01*
X45709241Y-121636400D01*
X45685603Y-121510774D01*
X45611358Y-121395395D01*
X45498074Y-121317991D01*
X45363600Y-121290759D01*
X45034628Y-121290759D01*
X45400034Y-121105277D01*
X45769802Y-120673670D01*
X45902514Y-120353243D01*
X45797389Y-120129000D01*
X44669000Y-120129000D01*
X44669000Y-120149000D01*
X44331000Y-120149000D01*
X44331000Y-120129000D01*
X44311000Y-120129000D01*
X44311000Y-119791000D01*
X44331000Y-119791000D01*
X44331000Y-118661474D01*
X44669000Y-118661474D01*
X44669000Y-119791000D01*
X45797389Y-119791000D01*
X45902514Y-119566757D01*
X45769802Y-119246330D01*
X45400034Y-118814723D01*
X44893245Y-118557474D01*
X44669000Y-118661474D01*
X44331000Y-118661474D01*
X44106755Y-118557474D01*
X43599966Y-118814723D01*
X43230198Y-119246330D01*
X43104548Y-119549706D01*
X43094618Y-119499785D01*
X42833927Y-119109633D01*
X42499000Y-118885842D01*
X42499000Y-117263262D01*
X45381128Y-114381133D01*
X45381131Y-114381131D01*
X45451171Y-114276307D01*
X45497971Y-114206267D01*
X45539000Y-114000000D01*
X45539000Y-109864835D01*
X45541402Y-109862437D01*
X45638889Y-109627663D01*
X45639111Y-109373453D01*
X45542034Y-109138508D01*
X45530094Y-109126547D01*
X46360889Y-109126547D01*
X46457966Y-109361492D01*
X46461000Y-109364531D01*
X46461000Y-113499995D01*
X46460999Y-113500000D01*
X46502029Y-113706267D01*
X46618869Y-113881131D01*
X47360892Y-114623153D01*
X47360889Y-114626547D01*
X47457966Y-114861492D01*
X47637563Y-115041402D01*
X47872337Y-115138889D01*
X48126547Y-115139111D01*
X48361492Y-115042034D01*
X48541402Y-114862437D01*
X48638889Y-114627663D01*
X48639111Y-114373453D01*
X48542034Y-114138508D01*
X48362437Y-113958598D01*
X48127663Y-113861111D01*
X48123369Y-113861107D01*
X47539000Y-113276738D01*
X47539000Y-111500000D01*
X64411000Y-111500000D01*
X64411000Y-125000000D01*
X64493895Y-125416742D01*
X64729961Y-125770039D01*
X65083258Y-126006105D01*
X65500000Y-126089000D01*
X65916742Y-126006105D01*
X66270039Y-125770039D01*
X66506105Y-125416742D01*
X66589000Y-125000000D01*
X66589000Y-121126547D01*
X69860889Y-121126547D01*
X69957966Y-121361492D01*
X70137563Y-121541402D01*
X70372337Y-121638889D01*
X70626547Y-121639111D01*
X70861492Y-121542034D01*
X71041402Y-121362437D01*
X71138889Y-121127663D01*
X71139111Y-120873453D01*
X71042034Y-120638508D01*
X71039000Y-120635469D01*
X71039000Y-119936440D01*
X76297400Y-119936440D01*
X76297400Y-119983560D01*
X76388942Y-120443775D01*
X76649633Y-120833927D01*
X77039785Y-121094618D01*
X77500000Y-121186160D01*
X77960215Y-121094618D01*
X78350367Y-120833927D01*
X78611058Y-120443775D01*
X78702600Y-119983560D01*
X78702600Y-119936440D01*
X78611058Y-119476225D01*
X78350367Y-119086073D01*
X78039000Y-118878024D01*
X78039000Y-116723262D01*
X78223261Y-116539000D01*
X103776738Y-116539000D01*
X104501000Y-117263261D01*
X104501000Y-118878024D01*
X104189633Y-119086073D01*
X103928942Y-119476225D01*
X103837400Y-119936440D01*
X103837400Y-119983560D01*
X103928942Y-120443775D01*
X104189633Y-120833927D01*
X104579785Y-121094618D01*
X104629706Y-121104548D01*
X104326330Y-121230198D01*
X103894723Y-121599966D01*
X103709241Y-121965372D01*
X103709241Y-121636400D01*
X103685603Y-121510774D01*
X103611358Y-121395395D01*
X103498074Y-121317991D01*
X103363600Y-121290759D01*
X101636400Y-121290759D01*
X101510774Y-121314397D01*
X101395395Y-121388642D01*
X101317991Y-121501926D01*
X101290759Y-121636400D01*
X101290759Y-123363600D01*
X101314397Y-123489226D01*
X101388642Y-123604605D01*
X101411000Y-123619882D01*
X101411000Y-129500000D01*
X101493895Y-129916743D01*
X101729961Y-130270039D01*
X103729961Y-132270039D01*
X104083257Y-132506105D01*
X104500000Y-132589000D01*
X114000000Y-132589000D01*
X114416743Y-132506105D01*
X114770039Y-132270039D01*
X115500000Y-131540079D01*
X116229960Y-132270039D01*
X116583257Y-132506105D01*
X116652399Y-132519858D01*
X117000000Y-132589000D01*
X124500000Y-132589000D01*
X124916743Y-132506105D01*
X125270039Y-132270039D01*
X128270040Y-129270039D01*
X128506105Y-128916742D01*
X128589000Y-128500000D01*
X128589000Y-123621400D01*
X128604605Y-123611358D01*
X128682009Y-123498074D01*
X128709241Y-123363600D01*
X128709241Y-123034628D01*
X128894723Y-123400034D01*
X129326330Y-123769802D01*
X129646757Y-123902514D01*
X129871000Y-123797389D01*
X129871000Y-122669000D01*
X130209000Y-122669000D01*
X130209000Y-123797389D01*
X130433243Y-123902514D01*
X130753670Y-123769802D01*
X131185277Y-123400034D01*
X131442526Y-122893245D01*
X131338526Y-122669000D01*
X130209000Y-122669000D01*
X129871000Y-122669000D01*
X129851000Y-122669000D01*
X129851000Y-122331000D01*
X129871000Y-122331000D01*
X129871000Y-122311000D01*
X130209000Y-122311000D01*
X130209000Y-122331000D01*
X131338526Y-122331000D01*
X131442526Y-122106755D01*
X131185277Y-121599966D01*
X130753670Y-121230198D01*
X130450294Y-121104548D01*
X130500215Y-121094618D01*
X130890367Y-120833927D01*
X131151058Y-120443775D01*
X131242600Y-119983560D01*
X131242600Y-119936440D01*
X131151058Y-119476225D01*
X130890367Y-119086073D01*
X130500215Y-118825382D01*
X130040000Y-118733840D01*
X129579785Y-118825382D01*
X129189633Y-119086073D01*
X128928942Y-119476225D01*
X128837400Y-119936440D01*
X128837400Y-119983560D01*
X128928942Y-120443775D01*
X129189633Y-120833927D01*
X129579785Y-121094618D01*
X129629706Y-121104548D01*
X129326330Y-121230198D01*
X128894723Y-121599966D01*
X128709241Y-121965372D01*
X128709241Y-121636400D01*
X128685603Y-121510774D01*
X128611358Y-121395395D01*
X128498074Y-121317991D01*
X128363600Y-121290759D01*
X126636400Y-121290759D01*
X126510774Y-121314397D01*
X126395395Y-121388642D01*
X126317991Y-121501926D01*
X126290759Y-121636400D01*
X126290759Y-123363600D01*
X126314397Y-123489226D01*
X126388642Y-123604605D01*
X126411000Y-123619882D01*
X126411000Y-128048921D01*
X124048922Y-130411000D01*
X117451079Y-130411000D01*
X116270039Y-129229961D01*
X115916743Y-128993895D01*
X115500000Y-128911000D01*
X115084071Y-128993733D01*
X115083257Y-128993895D01*
X114729960Y-129229961D01*
X113548922Y-130411000D01*
X104951078Y-130411000D01*
X103589000Y-129048922D01*
X103589000Y-123621400D01*
X103604605Y-123611358D01*
X103682009Y-123498074D01*
X103709241Y-123363600D01*
X103709241Y-123034628D01*
X103894723Y-123400034D01*
X104326330Y-123769802D01*
X104646757Y-123902514D01*
X104871000Y-123797389D01*
X104871000Y-122669000D01*
X105209000Y-122669000D01*
X105209000Y-123797389D01*
X105433243Y-123902514D01*
X105753670Y-123769802D01*
X106185277Y-123400034D01*
X106442526Y-122893245D01*
X106338526Y-122669000D01*
X105209000Y-122669000D01*
X104871000Y-122669000D01*
X104851000Y-122669000D01*
X104851000Y-122331000D01*
X104871000Y-122331000D01*
X104871000Y-122311000D01*
X105209000Y-122311000D01*
X105209000Y-122331000D01*
X106338526Y-122331000D01*
X106442526Y-122106755D01*
X106185277Y-121599966D01*
X105753670Y-121230198D01*
X105450294Y-121104548D01*
X105500215Y-121094618D01*
X105890367Y-120833927D01*
X106151058Y-120443775D01*
X106242600Y-119983560D01*
X106242600Y-119936440D01*
X106151058Y-119476225D01*
X105890367Y-119086073D01*
X105579000Y-118878024D01*
X105579000Y-117040005D01*
X105579001Y-117040000D01*
X105537971Y-116833733D01*
X105491171Y-116763693D01*
X105421131Y-116658869D01*
X105421128Y-116658867D01*
X104381131Y-115618869D01*
X104206267Y-115502029D01*
X104000000Y-115460999D01*
X103999995Y-115461000D01*
X78000005Y-115461000D01*
X78000000Y-115460999D01*
X77803934Y-115500000D01*
X77793734Y-115502029D01*
X77618869Y-115618869D01*
X77618867Y-115618872D01*
X77118869Y-116118869D01*
X77002029Y-116293733D01*
X76960999Y-116500000D01*
X76961000Y-116500005D01*
X76961000Y-118878024D01*
X76649633Y-119086073D01*
X76388942Y-119476225D01*
X76297400Y-119936440D01*
X71039000Y-119936440D01*
X71039000Y-116223262D01*
X72196420Y-115065841D01*
X72372337Y-115138889D01*
X72626547Y-115139111D01*
X72861492Y-115042034D01*
X73041402Y-114862437D01*
X73138889Y-114627663D01*
X73139111Y-114373453D01*
X73042034Y-114138508D01*
X72862437Y-113958598D01*
X72627663Y-113861111D01*
X72373453Y-113860889D01*
X72138508Y-113957966D01*
X72135469Y-113961000D01*
X72000000Y-113961000D01*
X71793733Y-114002029D01*
X71738402Y-114039000D01*
X71618869Y-114118869D01*
X71618867Y-114118872D01*
X70118869Y-115618869D01*
X70002029Y-115793733D01*
X69960999Y-116000000D01*
X69961000Y-116000005D01*
X69961000Y-120635165D01*
X69958598Y-120637563D01*
X69861111Y-120872337D01*
X69860889Y-121126547D01*
X66589000Y-121126547D01*
X66589000Y-111500000D01*
X66506105Y-111083258D01*
X66270039Y-110729961D01*
X65916742Y-110493895D01*
X65500000Y-110411000D01*
X65083258Y-110493895D01*
X64729961Y-110729961D01*
X64493895Y-111083258D01*
X64411000Y-111500000D01*
X47539000Y-111500000D01*
X47539000Y-109364835D01*
X47541402Y-109362437D01*
X47638889Y-109127663D01*
X47639111Y-108873453D01*
X47542034Y-108638508D01*
X47362437Y-108458598D01*
X47127663Y-108361111D01*
X46873453Y-108360889D01*
X46638508Y-108457966D01*
X46458598Y-108637563D01*
X46361111Y-108872337D01*
X46360889Y-109126547D01*
X45530094Y-109126547D01*
X45362437Y-108958598D01*
X45127663Y-108861111D01*
X44873453Y-108860889D01*
X44638508Y-108957966D01*
X44458598Y-109137563D01*
X44361111Y-109372337D01*
X44360889Y-109626547D01*
X44457966Y-109861492D01*
X44461000Y-109864531D01*
X44461000Y-113776739D01*
X41578869Y-116658869D01*
X41462029Y-116833733D01*
X41420999Y-117040000D01*
X41421000Y-117040005D01*
X41421000Y-118885842D01*
X41086073Y-119109633D01*
X40825382Y-119499785D01*
X40733840Y-119960000D01*
X40414000Y-119960000D01*
X40414000Y-96636400D01*
X51290759Y-96636400D01*
X51290759Y-98363600D01*
X51314397Y-98489226D01*
X51388642Y-98604605D01*
X51411000Y-98619882D01*
X51411000Y-103000000D01*
X51493895Y-103416743D01*
X51729961Y-103770039D01*
X53729961Y-105770039D01*
X54083257Y-106006105D01*
X54500000Y-106089000D01*
X63500000Y-106089000D01*
X63916743Y-106006105D01*
X64270039Y-105770039D01*
X65500000Y-104540078D01*
X66729961Y-105770039D01*
X67083257Y-106006105D01*
X67500000Y-106089000D01*
X75500000Y-106089000D01*
X75916743Y-106006105D01*
X76270039Y-105770039D01*
X78270039Y-103770039D01*
X78506105Y-103416743D01*
X78589000Y-103000000D01*
X78589000Y-99126547D01*
X84860889Y-99126547D01*
X84957966Y-99361492D01*
X84961000Y-99364531D01*
X84961000Y-112135165D01*
X84958598Y-112137563D01*
X84861111Y-112372337D01*
X84860889Y-112626547D01*
X84957966Y-112861492D01*
X85137563Y-113041402D01*
X85372337Y-113138889D01*
X85626547Y-113139111D01*
X85861492Y-113042034D01*
X86041402Y-112862437D01*
X86138889Y-112627663D01*
X86139111Y-112373453D01*
X86042034Y-112138508D01*
X86039000Y-112135469D01*
X86039000Y-111500000D01*
X114411000Y-111500000D01*
X114411000Y-125000000D01*
X114493895Y-125416742D01*
X114729961Y-125770039D01*
X115083258Y-126006105D01*
X115500000Y-126089000D01*
X115916742Y-126006105D01*
X116270039Y-125770039D01*
X116506105Y-125416742D01*
X116589000Y-125000000D01*
X116589000Y-111500000D01*
X116506105Y-111083258D01*
X116270039Y-110729961D01*
X115916742Y-110493895D01*
X115500000Y-110411000D01*
X115083258Y-110493895D01*
X114729961Y-110729961D01*
X114493895Y-111083258D01*
X114411000Y-111500000D01*
X86039000Y-111500000D01*
X86039000Y-99364835D01*
X86041402Y-99362437D01*
X86138889Y-99127663D01*
X86139111Y-98873453D01*
X86042034Y-98638508D01*
X85862437Y-98458598D01*
X85627663Y-98361111D01*
X85373453Y-98360889D01*
X85138508Y-98457966D01*
X84958598Y-98637563D01*
X84861111Y-98872337D01*
X84860889Y-99126547D01*
X78589000Y-99126547D01*
X78589000Y-98621400D01*
X78604605Y-98611358D01*
X78682009Y-98498074D01*
X78709241Y-98363600D01*
X78709241Y-98034628D01*
X78894723Y-98400034D01*
X79326330Y-98769802D01*
X79646757Y-98902514D01*
X79871000Y-98797389D01*
X79871000Y-97669000D01*
X80209000Y-97669000D01*
X80209000Y-98797389D01*
X80433243Y-98902514D01*
X80753670Y-98769802D01*
X81185277Y-98400034D01*
X81442526Y-97893245D01*
X81338526Y-97669000D01*
X80209000Y-97669000D01*
X79871000Y-97669000D01*
X79851000Y-97669000D01*
X79851000Y-97331000D01*
X79871000Y-97331000D01*
X79871000Y-97311000D01*
X80209000Y-97311000D01*
X80209000Y-97331000D01*
X81338526Y-97331000D01*
X81442526Y-97106755D01*
X81203772Y-96636400D01*
X101290759Y-96636400D01*
X101290759Y-98363600D01*
X101314397Y-98489226D01*
X101388642Y-98604605D01*
X101411000Y-98619882D01*
X101411000Y-105000000D01*
X101493895Y-105416743D01*
X101729961Y-105770039D01*
X103229960Y-107270039D01*
X103583257Y-107506105D01*
X103652399Y-107519858D01*
X104000000Y-107589000D01*
X112000000Y-107589000D01*
X112416743Y-107506105D01*
X112770039Y-107270039D01*
X115500000Y-104540079D01*
X118229960Y-107270039D01*
X118466026Y-107427773D01*
X118583258Y-107506105D01*
X119000000Y-107589000D01*
X125000000Y-107589000D01*
X125416743Y-107506105D01*
X125770039Y-107270039D01*
X128270039Y-104770039D01*
X128506105Y-104416743D01*
X128589000Y-104000000D01*
X128589000Y-98621400D01*
X128604605Y-98611358D01*
X128682009Y-98498074D01*
X128709241Y-98363600D01*
X128709241Y-98034628D01*
X128894723Y-98400034D01*
X129326330Y-98769802D01*
X129646757Y-98902514D01*
X129871000Y-98797389D01*
X129871000Y-97669000D01*
X130209000Y-97669000D01*
X130209000Y-98797389D01*
X130433243Y-98902514D01*
X130753670Y-98769802D01*
X131185277Y-98400034D01*
X131442526Y-97893245D01*
X131338526Y-97669000D01*
X130209000Y-97669000D01*
X129871000Y-97669000D01*
X129851000Y-97669000D01*
X129851000Y-97331000D01*
X129871000Y-97331000D01*
X129871000Y-97311000D01*
X130209000Y-97311000D01*
X130209000Y-97331000D01*
X131338526Y-97331000D01*
X131442526Y-97106755D01*
X131185277Y-96599966D01*
X130753670Y-96230198D01*
X130450294Y-96104548D01*
X130500215Y-96094618D01*
X130890367Y-95833927D01*
X131114158Y-95499000D01*
X132236738Y-95499000D01*
X132961000Y-96223261D01*
X132961000Y-115276739D01*
X132276738Y-115961000D01*
X128000005Y-115961000D01*
X128000000Y-115960999D01*
X127803934Y-116000000D01*
X127793734Y-116002029D01*
X127618869Y-116118869D01*
X127618867Y-116118872D01*
X127118869Y-116618869D01*
X127002029Y-116793733D01*
X126960999Y-117000000D01*
X126961000Y-117000005D01*
X126961000Y-118878024D01*
X126649633Y-119086073D01*
X126388942Y-119476225D01*
X126297400Y-119936440D01*
X126297400Y-119983560D01*
X126388942Y-120443775D01*
X126649633Y-120833927D01*
X127039785Y-121094618D01*
X127500000Y-121186160D01*
X127960215Y-121094618D01*
X128350367Y-120833927D01*
X128611058Y-120443775D01*
X128702600Y-119983560D01*
X128702600Y-119936440D01*
X128611058Y-119476225D01*
X128350367Y-119086073D01*
X128039000Y-118878024D01*
X128039000Y-117223262D01*
X128223261Y-117039000D01*
X132499995Y-117039000D01*
X132500000Y-117039001D01*
X132706267Y-116997971D01*
X132881131Y-116881131D01*
X133881128Y-115881133D01*
X133881131Y-115881131D01*
X133997971Y-115706266D01*
X134039001Y-115500000D01*
X134039000Y-115499995D01*
X134039000Y-96000005D01*
X134039001Y-96000000D01*
X133997971Y-95793733D01*
X133951171Y-95723693D01*
X133881131Y-95618869D01*
X133881128Y-95618867D01*
X132841131Y-94578869D01*
X132666267Y-94462029D01*
X132460000Y-94420999D01*
X132459995Y-94421000D01*
X131114158Y-94421000D01*
X130890367Y-94086073D01*
X130500215Y-93825382D01*
X130040000Y-93733840D01*
X129579785Y-93825382D01*
X129189633Y-94086073D01*
X128928942Y-94476225D01*
X128837400Y-94936440D01*
X128837400Y-94983560D01*
X128928942Y-95443775D01*
X129189633Y-95833927D01*
X129579785Y-96094618D01*
X129629706Y-96104548D01*
X129326330Y-96230198D01*
X128894723Y-96599966D01*
X128709241Y-96965372D01*
X128709241Y-96636400D01*
X128685603Y-96510774D01*
X128611358Y-96395395D01*
X128498074Y-96317991D01*
X128363600Y-96290759D01*
X126636400Y-96290759D01*
X126510774Y-96314397D01*
X126395395Y-96388642D01*
X126317991Y-96501926D01*
X126290759Y-96636400D01*
X126290759Y-98363600D01*
X126314397Y-98489226D01*
X126388642Y-98604605D01*
X126411000Y-98619882D01*
X126411000Y-103548922D01*
X124548922Y-105411000D01*
X119451079Y-105411000D01*
X116589000Y-102548922D01*
X116589000Y-94936440D01*
X126297400Y-94936440D01*
X126297400Y-94983560D01*
X126388942Y-95443775D01*
X126649633Y-95833927D01*
X127039785Y-96094618D01*
X127500000Y-96186160D01*
X127960215Y-96094618D01*
X128350367Y-95833927D01*
X128611058Y-95443775D01*
X128702600Y-94983560D01*
X128702600Y-94936440D01*
X128611058Y-94476225D01*
X128350367Y-94086073D01*
X127960215Y-93825382D01*
X127500000Y-93733840D01*
X127039785Y-93825382D01*
X126649633Y-94086073D01*
X126388942Y-94476225D01*
X126297400Y-94936440D01*
X116589000Y-94936440D01*
X116589000Y-88000000D01*
X116506105Y-87583258D01*
X116270039Y-87229961D01*
X115916742Y-86993895D01*
X115500000Y-86911000D01*
X115083258Y-86993895D01*
X114729961Y-87229961D01*
X114493895Y-87583258D01*
X114411000Y-88000000D01*
X114411000Y-102548921D01*
X111548922Y-105411000D01*
X104451079Y-105411000D01*
X103589000Y-104548922D01*
X103589000Y-98621400D01*
X103604605Y-98611358D01*
X103682009Y-98498074D01*
X103709241Y-98363600D01*
X103709241Y-98034628D01*
X103894723Y-98400034D01*
X104326330Y-98769802D01*
X104646757Y-98902514D01*
X104871000Y-98797389D01*
X104871000Y-97669000D01*
X105209000Y-97669000D01*
X105209000Y-98797389D01*
X105433243Y-98902514D01*
X105753670Y-98769802D01*
X106185277Y-98400034D01*
X106442526Y-97893245D01*
X106338526Y-97669000D01*
X105209000Y-97669000D01*
X104871000Y-97669000D01*
X104851000Y-97669000D01*
X104851000Y-97331000D01*
X104871000Y-97331000D01*
X104871000Y-97311000D01*
X105209000Y-97311000D01*
X105209000Y-97331000D01*
X106338526Y-97331000D01*
X106442526Y-97106755D01*
X106185277Y-96599966D01*
X105753670Y-96230198D01*
X105450294Y-96104548D01*
X105500215Y-96094618D01*
X105890367Y-95833927D01*
X106151058Y-95443775D01*
X106242600Y-94983560D01*
X106242600Y-94936440D01*
X106151058Y-94476225D01*
X105890367Y-94086073D01*
X105500215Y-93825382D01*
X105040000Y-93733840D01*
X104579785Y-93825382D01*
X104189633Y-94086073D01*
X103928942Y-94476225D01*
X103837400Y-94936440D01*
X103837400Y-94983560D01*
X103928942Y-95443775D01*
X104189633Y-95833927D01*
X104579785Y-96094618D01*
X104629706Y-96104548D01*
X104326330Y-96230198D01*
X103894723Y-96599966D01*
X103709241Y-96965372D01*
X103709241Y-96636400D01*
X103685603Y-96510774D01*
X103611358Y-96395395D01*
X103498074Y-96317991D01*
X103363600Y-96290759D01*
X101636400Y-96290759D01*
X101510774Y-96314397D01*
X101395395Y-96388642D01*
X101317991Y-96501926D01*
X101290759Y-96636400D01*
X81203772Y-96636400D01*
X81185277Y-96599966D01*
X80753670Y-96230198D01*
X80450294Y-96104548D01*
X80500215Y-96094618D01*
X80890367Y-95833927D01*
X81114158Y-95499000D01*
X101425842Y-95499000D01*
X101649633Y-95833927D01*
X102039785Y-96094618D01*
X102500000Y-96186160D01*
X102960215Y-96094618D01*
X103350367Y-95833927D01*
X103611058Y-95443775D01*
X103702600Y-94983560D01*
X103702600Y-94936440D01*
X103611058Y-94476225D01*
X103350367Y-94086073D01*
X102960215Y-93825382D01*
X102500000Y-93733840D01*
X102039785Y-93825382D01*
X101649633Y-94086073D01*
X101425842Y-94421000D01*
X81114158Y-94421000D01*
X80890367Y-94086073D01*
X80500215Y-93825382D01*
X80040000Y-93733840D01*
X79579785Y-93825382D01*
X79189633Y-94086073D01*
X78928942Y-94476225D01*
X78837400Y-94936440D01*
X78837400Y-94983560D01*
X78928942Y-95443775D01*
X79189633Y-95833927D01*
X79579785Y-96094618D01*
X79629706Y-96104548D01*
X79326330Y-96230198D01*
X78894723Y-96599966D01*
X78709241Y-96965372D01*
X78709241Y-96636400D01*
X78685603Y-96510774D01*
X78611358Y-96395395D01*
X78498074Y-96317991D01*
X78363600Y-96290759D01*
X76636400Y-96290759D01*
X76510774Y-96314397D01*
X76395395Y-96388642D01*
X76317991Y-96501926D01*
X76290759Y-96636400D01*
X76290759Y-98363600D01*
X76314397Y-98489226D01*
X76388642Y-98604605D01*
X76411000Y-98619882D01*
X76411000Y-102548922D01*
X75048922Y-103911000D01*
X67951078Y-103911000D01*
X66589000Y-102548922D01*
X66589000Y-94936440D01*
X76297400Y-94936440D01*
X76297400Y-94983560D01*
X76388942Y-95443775D01*
X76649633Y-95833927D01*
X77039785Y-96094618D01*
X77500000Y-96186160D01*
X77960215Y-96094618D01*
X78350367Y-95833927D01*
X78611058Y-95443775D01*
X78702600Y-94983560D01*
X78702600Y-94936440D01*
X78611058Y-94476225D01*
X78350367Y-94086073D01*
X77960215Y-93825382D01*
X77500000Y-93733840D01*
X77039785Y-93825382D01*
X76649633Y-94086073D01*
X76388942Y-94476225D01*
X76297400Y-94936440D01*
X66589000Y-94936440D01*
X66589000Y-87500000D01*
X66506105Y-87083258D01*
X66270039Y-86729961D01*
X65916742Y-86493895D01*
X65500000Y-86411000D01*
X65083258Y-86493895D01*
X64729961Y-86729961D01*
X64493895Y-87083258D01*
X64411000Y-87500000D01*
X64411000Y-102548922D01*
X63048922Y-103911000D01*
X54951078Y-103911000D01*
X53589000Y-102548922D01*
X53589000Y-98621400D01*
X53604605Y-98611358D01*
X53682009Y-98498074D01*
X53709241Y-98363600D01*
X53709241Y-98034628D01*
X53894723Y-98400034D01*
X54326330Y-98769802D01*
X54646757Y-98902514D01*
X54871000Y-98797389D01*
X54871000Y-97669000D01*
X55209000Y-97669000D01*
X55209000Y-98797389D01*
X55433243Y-98902514D01*
X55753670Y-98769802D01*
X56185277Y-98400034D01*
X56442526Y-97893245D01*
X56338526Y-97669000D01*
X55209000Y-97669000D01*
X54871000Y-97669000D01*
X54851000Y-97669000D01*
X54851000Y-97331000D01*
X54871000Y-97331000D01*
X54871000Y-97311000D01*
X55209000Y-97311000D01*
X55209000Y-97331000D01*
X56338526Y-97331000D01*
X56442526Y-97106755D01*
X56185277Y-96599966D01*
X55753670Y-96230198D01*
X55450294Y-96104548D01*
X55500215Y-96094618D01*
X55890367Y-95833927D01*
X56151058Y-95443775D01*
X56242600Y-94983560D01*
X56242600Y-94936440D01*
X56151058Y-94476225D01*
X55890367Y-94086073D01*
X55500215Y-93825382D01*
X55040000Y-93733840D01*
X54579785Y-93825382D01*
X54189633Y-94086073D01*
X53928942Y-94476225D01*
X53837400Y-94936440D01*
X53837400Y-94983560D01*
X53928942Y-95443775D01*
X54189633Y-95833927D01*
X54579785Y-96094618D01*
X54629706Y-96104548D01*
X54326330Y-96230198D01*
X53894723Y-96599966D01*
X53709241Y-96965372D01*
X53709241Y-96636400D01*
X53685603Y-96510774D01*
X53611358Y-96395395D01*
X53498074Y-96317991D01*
X53363600Y-96290759D01*
X51636400Y-96290759D01*
X51510774Y-96314397D01*
X51395395Y-96388642D01*
X51317991Y-96501926D01*
X51290759Y-96636400D01*
X40414000Y-96636400D01*
X40414000Y-68626547D01*
X44360889Y-68626547D01*
X44457966Y-68861492D01*
X44461000Y-68864531D01*
X44461000Y-86135165D01*
X44458598Y-86137563D01*
X44361111Y-86372337D01*
X44360889Y-86626547D01*
X44457966Y-86861492D01*
X44637563Y-87041402D01*
X44872337Y-87138889D01*
X45126547Y-87139111D01*
X45361492Y-87042034D01*
X45541402Y-86862437D01*
X45638889Y-86627663D01*
X45639111Y-86373453D01*
X45542034Y-86138508D01*
X45539000Y-86135469D01*
X45539000Y-68864835D01*
X45541402Y-68862437D01*
X45638889Y-68627663D01*
X45639111Y-68373453D01*
X45542034Y-68138508D01*
X45362437Y-67958598D01*
X45127663Y-67861111D01*
X44873453Y-67860889D01*
X44638508Y-67957966D01*
X44458598Y-68137563D01*
X44361111Y-68372337D01*
X44360889Y-68626547D01*
X40414000Y-68626547D01*
X40414000Y-67126547D01*
X46360889Y-67126547D01*
X46457966Y-67361492D01*
X46461000Y-67364531D01*
X46461000Y-83635165D01*
X46458598Y-83637563D01*
X46361111Y-83872337D01*
X46360889Y-84126547D01*
X46457966Y-84361492D01*
X46637563Y-84541402D01*
X46872337Y-84638889D01*
X47126547Y-84639111D01*
X47361492Y-84542034D01*
X47541402Y-84362437D01*
X47638889Y-84127663D01*
X47639111Y-83873453D01*
X47542034Y-83638508D01*
X47539000Y-83635469D01*
X47539000Y-71636400D01*
X51290759Y-71636400D01*
X51290759Y-73363600D01*
X51314397Y-73489226D01*
X51388642Y-73604605D01*
X51501926Y-73682009D01*
X51636400Y-73709241D01*
X53363600Y-73709241D01*
X53489226Y-73685603D01*
X53604605Y-73611358D01*
X53682009Y-73498074D01*
X53709241Y-73363600D01*
X53709241Y-73034628D01*
X53894723Y-73400034D01*
X54326330Y-73769802D01*
X54646757Y-73902514D01*
X54871000Y-73797389D01*
X54871000Y-72669000D01*
X55209000Y-72669000D01*
X55209000Y-73797389D01*
X55433243Y-73902514D01*
X55753670Y-73769802D01*
X56185277Y-73400034D01*
X56442526Y-72893245D01*
X56338526Y-72669000D01*
X55209000Y-72669000D01*
X54871000Y-72669000D01*
X54851000Y-72669000D01*
X54851000Y-72331000D01*
X54871000Y-72331000D01*
X54871000Y-72311000D01*
X55209000Y-72311000D01*
X55209000Y-72331000D01*
X56338526Y-72331000D01*
X56442526Y-72106755D01*
X56185277Y-71599966D01*
X55753670Y-71230198D01*
X55450294Y-71104548D01*
X55500215Y-71094618D01*
X55890367Y-70833927D01*
X56114158Y-70499000D01*
X57236738Y-70499000D01*
X57961000Y-71223261D01*
X57961000Y-91776739D01*
X57276738Y-92461000D01*
X53000005Y-92461000D01*
X53000000Y-92460999D01*
X52793734Y-92502029D01*
X52618869Y-92618869D01*
X52618867Y-92618872D01*
X52118869Y-93118869D01*
X52002029Y-93293733D01*
X51960999Y-93500000D01*
X51961000Y-93500005D01*
X51961000Y-93878024D01*
X51649633Y-94086073D01*
X51388942Y-94476225D01*
X51297400Y-94936440D01*
X51297400Y-94983560D01*
X51388942Y-95443775D01*
X51649633Y-95833927D01*
X52039785Y-96094618D01*
X52500000Y-96186160D01*
X52960215Y-96094618D01*
X53350367Y-95833927D01*
X53611058Y-95443775D01*
X53702600Y-94983560D01*
X53702600Y-94936440D01*
X53611058Y-94476225D01*
X53350367Y-94086073D01*
X53039000Y-93878024D01*
X53039000Y-93723262D01*
X53223261Y-93539000D01*
X57499995Y-93539000D01*
X57500000Y-93539001D01*
X57706267Y-93497971D01*
X57881131Y-93381131D01*
X58881128Y-92381133D01*
X58881131Y-92381131D01*
X58997971Y-92206266D01*
X59039001Y-92000000D01*
X59039000Y-91999995D01*
X59039000Y-71000005D01*
X59039001Y-71000000D01*
X58997971Y-70793733D01*
X58951171Y-70723693D01*
X58881131Y-70618869D01*
X58881128Y-70618867D01*
X57841131Y-69578869D01*
X57666267Y-69462029D01*
X57460000Y-69420999D01*
X57459995Y-69421000D01*
X56114158Y-69421000D01*
X55890367Y-69086073D01*
X55500215Y-68825382D01*
X55040000Y-68733840D01*
X54579785Y-68825382D01*
X54189633Y-69086073D01*
X53928942Y-69476225D01*
X53837400Y-69936440D01*
X53837400Y-69983560D01*
X53928942Y-70443775D01*
X54189633Y-70833927D01*
X54579785Y-71094618D01*
X54629706Y-71104548D01*
X54326330Y-71230198D01*
X53894723Y-71599966D01*
X53709241Y-71965372D01*
X53709241Y-71636400D01*
X53685603Y-71510774D01*
X53611358Y-71395395D01*
X53498074Y-71317991D01*
X53363600Y-71290759D01*
X51636400Y-71290759D01*
X51510774Y-71314397D01*
X51395395Y-71388642D01*
X51317991Y-71501926D01*
X51290759Y-71636400D01*
X47539000Y-71636400D01*
X47539000Y-69936440D01*
X51297400Y-69936440D01*
X51297400Y-69983560D01*
X51388942Y-70443775D01*
X51649633Y-70833927D01*
X52039785Y-71094618D01*
X52500000Y-71186160D01*
X52960215Y-71094618D01*
X53350367Y-70833927D01*
X53611058Y-70443775D01*
X53702600Y-69983560D01*
X53702600Y-69936440D01*
X53611058Y-69476225D01*
X53350367Y-69086073D01*
X52960215Y-68825382D01*
X52500000Y-68733840D01*
X52039785Y-68825382D01*
X51649633Y-69086073D01*
X51388942Y-69476225D01*
X51297400Y-69936440D01*
X47539000Y-69936440D01*
X47539000Y-67364835D01*
X47541402Y-67362437D01*
X47638889Y-67127663D01*
X47639111Y-66873453D01*
X47542034Y-66638508D01*
X47362437Y-66458598D01*
X47127663Y-66361111D01*
X46873453Y-66360889D01*
X46638508Y-66457966D01*
X46458598Y-66637563D01*
X46361111Y-66872337D01*
X46360889Y-67126547D01*
X40414000Y-67126547D01*
X40414000Y-64016250D01*
X48857340Y-64016250D01*
X48857340Y-65567015D01*
X48947619Y-65784968D01*
X49114433Y-65951781D01*
X49332385Y-66042060D01*
X50883150Y-66042060D01*
X51031400Y-65893810D01*
X51031400Y-63868000D01*
X51369400Y-63868000D01*
X51369400Y-65893810D01*
X51517650Y-66042060D01*
X53068415Y-66042060D01*
X53286367Y-65951781D01*
X53453181Y-65784968D01*
X53543460Y-65567015D01*
X53543460Y-64016250D01*
X53395210Y-63868000D01*
X51369400Y-63868000D01*
X51031400Y-63868000D01*
X49005590Y-63868000D01*
X48857340Y-64016250D01*
X40414000Y-64016250D01*
X40414000Y-61830985D01*
X48857340Y-61830985D01*
X48857340Y-63381750D01*
X49005590Y-63530000D01*
X51031400Y-63530000D01*
X51031400Y-61504190D01*
X51369400Y-61504190D01*
X51369400Y-63530000D01*
X53395210Y-63530000D01*
X53543460Y-63381750D01*
X53543460Y-61830985D01*
X53453181Y-61613032D01*
X53286367Y-61446219D01*
X53068415Y-61355940D01*
X51517650Y-61355940D01*
X51369400Y-61504190D01*
X51031400Y-61504190D01*
X50883150Y-61355940D01*
X49332385Y-61355940D01*
X49114433Y-61446219D01*
X48947619Y-61613032D01*
X48857340Y-61830985D01*
X40414000Y-61830985D01*
X40414000Y-59126547D01*
X42860889Y-59126547D01*
X42957966Y-59361492D01*
X43137563Y-59541402D01*
X43372337Y-59638889D01*
X43626547Y-59639111D01*
X43861492Y-59542034D01*
X44041402Y-59362437D01*
X44060165Y-59317250D01*
X45857600Y-59317250D01*
X45857600Y-60868015D01*
X45947879Y-61085968D01*
X46114693Y-61252781D01*
X46332645Y-61343060D01*
X47883410Y-61343060D01*
X48031660Y-61194810D01*
X48031660Y-59169000D01*
X48369660Y-59169000D01*
X48369660Y-61194810D01*
X48517910Y-61343060D01*
X50068675Y-61343060D01*
X50286627Y-61252781D01*
X50453441Y-61085968D01*
X50543720Y-60868015D01*
X50543720Y-59317250D01*
X50395470Y-59169000D01*
X48369660Y-59169000D01*
X48031660Y-59169000D01*
X46005850Y-59169000D01*
X45857600Y-59317250D01*
X44060165Y-59317250D01*
X44138889Y-59127663D01*
X44139111Y-58873453D01*
X44042034Y-58638508D01*
X44039000Y-58635469D01*
X44039000Y-57626547D01*
X44360889Y-57626547D01*
X44457966Y-57861492D01*
X44637563Y-58041402D01*
X44872337Y-58138889D01*
X45126547Y-58139111D01*
X45361492Y-58042034D01*
X45541402Y-57862437D01*
X45638889Y-57627663D01*
X45639111Y-57373453D01*
X45542034Y-57138508D01*
X45539000Y-57135469D01*
X45539000Y-57131985D01*
X45857600Y-57131985D01*
X45857600Y-58682750D01*
X46005850Y-58831000D01*
X48031660Y-58831000D01*
X48031660Y-56805190D01*
X48369660Y-56805190D01*
X48369660Y-58831000D01*
X50395470Y-58831000D01*
X50543720Y-58682750D01*
X50543720Y-57249940D01*
X52104439Y-57249940D01*
X52104439Y-60750060D01*
X52128077Y-60875686D01*
X52202322Y-60991065D01*
X52315606Y-61068469D01*
X52450080Y-61095701D01*
X55950200Y-61095701D01*
X56075826Y-61072063D01*
X56191205Y-60997818D01*
X56268609Y-60884534D01*
X56295841Y-60750060D01*
X56295841Y-60089000D01*
X62048922Y-60089000D01*
X64411000Y-62451079D01*
X64411000Y-77500000D01*
X64493895Y-77916743D01*
X64729961Y-78270039D01*
X66229960Y-79770039D01*
X66583257Y-80006105D01*
X66652399Y-80019858D01*
X67000000Y-80089000D01*
X76000000Y-80089000D01*
X76416743Y-80006105D01*
X76770039Y-79770039D01*
X78270039Y-78270040D01*
X78506105Y-77916743D01*
X78551684Y-77687598D01*
X78589000Y-77500000D01*
X78589000Y-73621400D01*
X78604605Y-73611358D01*
X78682009Y-73498074D01*
X78709241Y-73363600D01*
X78709241Y-73034628D01*
X78894723Y-73400034D01*
X79326330Y-73769802D01*
X79646757Y-73902514D01*
X79871000Y-73797389D01*
X79871000Y-72669000D01*
X80209000Y-72669000D01*
X80209000Y-73797389D01*
X80433243Y-73902514D01*
X80753670Y-73769802D01*
X81185277Y-73400034D01*
X81442526Y-72893245D01*
X81338526Y-72669000D01*
X80209000Y-72669000D01*
X79871000Y-72669000D01*
X79851000Y-72669000D01*
X79851000Y-72626547D01*
X84860889Y-72626547D01*
X84957966Y-72861492D01*
X84961000Y-72864531D01*
X84961000Y-92635165D01*
X84958598Y-92637563D01*
X84861111Y-92872337D01*
X84860889Y-93126547D01*
X84957966Y-93361492D01*
X85137563Y-93541402D01*
X85372337Y-93638889D01*
X85626547Y-93639111D01*
X85861492Y-93542034D01*
X86041402Y-93362437D01*
X86138889Y-93127663D01*
X86139111Y-92873453D01*
X86042034Y-92638508D01*
X86039000Y-92635469D01*
X86039000Y-72864835D01*
X86041402Y-72862437D01*
X86138889Y-72627663D01*
X86139111Y-72373453D01*
X86042034Y-72138508D01*
X85862437Y-71958598D01*
X85627663Y-71861111D01*
X85373453Y-71860889D01*
X85138508Y-71957966D01*
X84958598Y-72137563D01*
X84861111Y-72372337D01*
X84860889Y-72626547D01*
X79851000Y-72626547D01*
X79851000Y-72331000D01*
X79871000Y-72331000D01*
X79871000Y-72311000D01*
X80209000Y-72311000D01*
X80209000Y-72331000D01*
X81338526Y-72331000D01*
X81442526Y-72106755D01*
X81185277Y-71599966D01*
X80753670Y-71230198D01*
X80450294Y-71104548D01*
X80500215Y-71094618D01*
X80890367Y-70833927D01*
X81151058Y-70443775D01*
X81242600Y-69983560D01*
X81242600Y-69936440D01*
X101297400Y-69936440D01*
X101297400Y-69983560D01*
X101388942Y-70443775D01*
X101649633Y-70833927D01*
X102039785Y-71094618D01*
X102500000Y-71186160D01*
X102960215Y-71094618D01*
X103350367Y-70833927D01*
X103611058Y-70443775D01*
X103702600Y-69983560D01*
X103702600Y-69936440D01*
X103611058Y-69476225D01*
X103350367Y-69086073D01*
X102960215Y-68825382D01*
X102500000Y-68733840D01*
X102039785Y-68825382D01*
X101649633Y-69086073D01*
X101388942Y-69476225D01*
X101297400Y-69936440D01*
X81242600Y-69936440D01*
X81151058Y-69476225D01*
X80890367Y-69086073D01*
X80500215Y-68825382D01*
X80040000Y-68733840D01*
X79579785Y-68825382D01*
X79189633Y-69086073D01*
X78928942Y-69476225D01*
X78837400Y-69936440D01*
X78837400Y-69983560D01*
X78928942Y-70443775D01*
X79189633Y-70833927D01*
X79579785Y-71094618D01*
X79629706Y-71104548D01*
X79326330Y-71230198D01*
X78894723Y-71599966D01*
X78709241Y-71965372D01*
X78709241Y-71636400D01*
X78685603Y-71510774D01*
X78611358Y-71395395D01*
X78498074Y-71317991D01*
X78363600Y-71290759D01*
X76636400Y-71290759D01*
X76510774Y-71314397D01*
X76395395Y-71388642D01*
X76317991Y-71501926D01*
X76290759Y-71636400D01*
X76290759Y-73363600D01*
X76314397Y-73489226D01*
X76388642Y-73604605D01*
X76411000Y-73619882D01*
X76411000Y-77048921D01*
X75548922Y-77911000D01*
X67451079Y-77911000D01*
X66589000Y-77048922D01*
X66589000Y-69936440D01*
X76297400Y-69936440D01*
X76297400Y-69983560D01*
X76388942Y-70443775D01*
X76649633Y-70833927D01*
X77039785Y-71094618D01*
X77500000Y-71186160D01*
X77960215Y-71094618D01*
X78350367Y-70833927D01*
X78611058Y-70443775D01*
X78702600Y-69983560D01*
X78702600Y-69936440D01*
X78611058Y-69476225D01*
X78350367Y-69086073D01*
X78039000Y-68878024D01*
X78039000Y-66723262D01*
X78723261Y-66039000D01*
X103776738Y-66039000D01*
X104501000Y-66763261D01*
X104501000Y-68878024D01*
X104189633Y-69086073D01*
X103928942Y-69476225D01*
X103837400Y-69936440D01*
X103837400Y-69983560D01*
X103928942Y-70443775D01*
X104189633Y-70833927D01*
X104579785Y-71094618D01*
X104629706Y-71104548D01*
X104326330Y-71230198D01*
X103894723Y-71599966D01*
X103709241Y-71965372D01*
X103709241Y-71636400D01*
X103685603Y-71510774D01*
X103611358Y-71395395D01*
X103498074Y-71317991D01*
X103363600Y-71290759D01*
X101636400Y-71290759D01*
X101510774Y-71314397D01*
X101395395Y-71388642D01*
X101317991Y-71501926D01*
X101290759Y-71636400D01*
X101290759Y-73363600D01*
X101314397Y-73489226D01*
X101388642Y-73604605D01*
X101411000Y-73619882D01*
X101411000Y-78000000D01*
X101493895Y-78416743D01*
X101729961Y-78770039D01*
X103229960Y-80270039D01*
X103583257Y-80506105D01*
X103652399Y-80519858D01*
X104000000Y-80589000D01*
X113500000Y-80589000D01*
X113916743Y-80506105D01*
X114270039Y-80270039D01*
X115500000Y-79040078D01*
X116729961Y-80270039D01*
X117083257Y-80506105D01*
X117500000Y-80589000D01*
X125500000Y-80589000D01*
X125916743Y-80506105D01*
X126270039Y-80270039D01*
X128270039Y-78270039D01*
X128506105Y-77916743D01*
X128589000Y-77500000D01*
X128589000Y-73621400D01*
X128604605Y-73611358D01*
X128682009Y-73498074D01*
X128709241Y-73363600D01*
X128709241Y-73034628D01*
X128894723Y-73400034D01*
X129326330Y-73769802D01*
X129646757Y-73902514D01*
X129871000Y-73797389D01*
X129871000Y-72669000D01*
X130209000Y-72669000D01*
X130209000Y-73797389D01*
X130433243Y-73902514D01*
X130753670Y-73769802D01*
X131185277Y-73400034D01*
X131442526Y-72893245D01*
X131338526Y-72669000D01*
X130209000Y-72669000D01*
X129871000Y-72669000D01*
X129851000Y-72669000D01*
X129851000Y-72331000D01*
X129871000Y-72331000D01*
X129871000Y-72311000D01*
X130209000Y-72311000D01*
X130209000Y-72331000D01*
X131338526Y-72331000D01*
X131442526Y-72106755D01*
X131185277Y-71599966D01*
X130753670Y-71230198D01*
X130450294Y-71104548D01*
X130500215Y-71094618D01*
X130890367Y-70833927D01*
X131151058Y-70443775D01*
X131242600Y-69983560D01*
X131242600Y-69936440D01*
X131151058Y-69476225D01*
X130890367Y-69086073D01*
X130500215Y-68825382D01*
X130040000Y-68733840D01*
X129579785Y-68825382D01*
X129189633Y-69086073D01*
X128928942Y-69476225D01*
X128837400Y-69936440D01*
X128837400Y-69983560D01*
X128928942Y-70443775D01*
X129189633Y-70833927D01*
X129579785Y-71094618D01*
X129629706Y-71104548D01*
X129326330Y-71230198D01*
X128894723Y-71599966D01*
X128709241Y-71965372D01*
X128709241Y-71636400D01*
X128685603Y-71510774D01*
X128611358Y-71395395D01*
X128498074Y-71317991D01*
X128363600Y-71290759D01*
X126636400Y-71290759D01*
X126510774Y-71314397D01*
X126395395Y-71388642D01*
X126317991Y-71501926D01*
X126290759Y-71636400D01*
X126290759Y-73363600D01*
X126314397Y-73489226D01*
X126388642Y-73604605D01*
X126411000Y-73619882D01*
X126411000Y-77048922D01*
X125048922Y-78411000D01*
X117951078Y-78411000D01*
X116589000Y-77048922D01*
X116589000Y-64000000D01*
X116506105Y-63583258D01*
X116270039Y-63229961D01*
X111270039Y-58229961D01*
X110916743Y-57993895D01*
X110500000Y-57911000D01*
X90000000Y-57911000D01*
X89583258Y-57993895D01*
X89229961Y-58229961D01*
X88993895Y-58583258D01*
X88911000Y-59000000D01*
X88993895Y-59416742D01*
X89229961Y-59770039D01*
X89583258Y-60006105D01*
X90000000Y-60089000D01*
X110048922Y-60089000D01*
X114411000Y-64451078D01*
X114411000Y-77048922D01*
X113048922Y-78411000D01*
X104451079Y-78411000D01*
X103589000Y-77548922D01*
X103589000Y-73621400D01*
X103604605Y-73611358D01*
X103682009Y-73498074D01*
X103709241Y-73363600D01*
X103709241Y-73034628D01*
X103894723Y-73400034D01*
X104326330Y-73769802D01*
X104646757Y-73902514D01*
X104871000Y-73797389D01*
X104871000Y-72669000D01*
X105209000Y-72669000D01*
X105209000Y-73797389D01*
X105433243Y-73902514D01*
X105753670Y-73769802D01*
X106185277Y-73400034D01*
X106442526Y-72893245D01*
X106338526Y-72669000D01*
X105209000Y-72669000D01*
X104871000Y-72669000D01*
X104851000Y-72669000D01*
X104851000Y-72331000D01*
X104871000Y-72331000D01*
X104871000Y-72311000D01*
X105209000Y-72311000D01*
X105209000Y-72331000D01*
X106338526Y-72331000D01*
X106442526Y-72106755D01*
X106185277Y-71599966D01*
X105753670Y-71230198D01*
X105450294Y-71104548D01*
X105500215Y-71094618D01*
X105890367Y-70833927D01*
X106151058Y-70443775D01*
X106242600Y-69983560D01*
X106242600Y-69936440D01*
X106151058Y-69476225D01*
X105890367Y-69086073D01*
X105579000Y-68878024D01*
X105579000Y-66540005D01*
X105579001Y-66540000D01*
X105537971Y-66333733D01*
X105491171Y-66263693D01*
X105421131Y-66158869D01*
X105421128Y-66158867D01*
X104381131Y-65118869D01*
X104206267Y-65002029D01*
X104000000Y-64960999D01*
X103999995Y-64961000D01*
X78500005Y-64961000D01*
X78500000Y-64960999D01*
X78303934Y-65000000D01*
X78293734Y-65002029D01*
X78118869Y-65118869D01*
X78118867Y-65118872D01*
X77118869Y-66118869D01*
X77002029Y-66293733D01*
X76960999Y-66500000D01*
X76961000Y-66500005D01*
X76961000Y-68878024D01*
X76649633Y-69086073D01*
X76388942Y-69476225D01*
X76297400Y-69936440D01*
X66589000Y-69936440D01*
X66589000Y-62451078D01*
X68951079Y-60089000D01*
X72500000Y-60089000D01*
X72916742Y-60006105D01*
X73270039Y-59770039D01*
X73506105Y-59416742D01*
X73589000Y-59000000D01*
X73506105Y-58583258D01*
X73270039Y-58229961D01*
X72916742Y-57993895D01*
X72500000Y-57911000D01*
X68500000Y-57911000D01*
X68083258Y-57993895D01*
X67729961Y-58229960D01*
X65500000Y-60459922D01*
X63270039Y-58229961D01*
X62916743Y-57993895D01*
X62500000Y-57911000D01*
X56295841Y-57911000D01*
X56295841Y-57249940D01*
X56272203Y-57124314D01*
X56197958Y-57008935D01*
X56084674Y-56931531D01*
X55950200Y-56904299D01*
X52450080Y-56904299D01*
X52324454Y-56927937D01*
X52209075Y-57002182D01*
X52131671Y-57115466D01*
X52104439Y-57249940D01*
X50543720Y-57249940D01*
X50543720Y-57131985D01*
X50453441Y-56914032D01*
X50286627Y-56747219D01*
X50068675Y-56656940D01*
X48517910Y-56656940D01*
X48369660Y-56805190D01*
X48031660Y-56805190D01*
X47883410Y-56656940D01*
X46332645Y-56656940D01*
X46114693Y-56747219D01*
X45947879Y-56914032D01*
X45857600Y-57131985D01*
X45539000Y-57131985D01*
X45539000Y-55723262D01*
X45723261Y-55539000D01*
X48635165Y-55539000D01*
X48637563Y-55541402D01*
X48872337Y-55638889D01*
X49126547Y-55639111D01*
X49361492Y-55542034D01*
X49541402Y-55362437D01*
X49638889Y-55127663D01*
X49639111Y-54873453D01*
X49542034Y-54638508D01*
X49362437Y-54458598D01*
X49127663Y-54361111D01*
X48873453Y-54360889D01*
X48638508Y-54457966D01*
X48635469Y-54461000D01*
X45500005Y-54461000D01*
X45500000Y-54460999D01*
X45293734Y-54502029D01*
X45118869Y-54618869D01*
X45118867Y-54618872D01*
X44618869Y-55118869D01*
X44502029Y-55293733D01*
X44460999Y-55500000D01*
X44461000Y-55500005D01*
X44461000Y-57135165D01*
X44458598Y-57137563D01*
X44361111Y-57372337D01*
X44360889Y-57626547D01*
X44039000Y-57626547D01*
X44039000Y-55223262D01*
X45223261Y-54039000D01*
X50135165Y-54039000D01*
X50137563Y-54041402D01*
X50372337Y-54138889D01*
X50626547Y-54139111D01*
X50861492Y-54042034D01*
X51041402Y-53862437D01*
X51138889Y-53627663D01*
X51139111Y-53373453D01*
X51042034Y-53138508D01*
X50862437Y-52958598D01*
X50627663Y-52861111D01*
X50373453Y-52860889D01*
X50138508Y-52957966D01*
X50135469Y-52961000D01*
X45000000Y-52961000D01*
X44793733Y-53002029D01*
X44750067Y-53031206D01*
X44618869Y-53118869D01*
X44618867Y-53118872D01*
X43118869Y-54618869D01*
X43002029Y-54793733D01*
X42960999Y-55000000D01*
X42961000Y-55000005D01*
X42961000Y-58635165D01*
X42958598Y-58637563D01*
X42861111Y-58872337D01*
X42860889Y-59126547D01*
X40414000Y-59126547D01*
X40414000Y-47893243D01*
X40557486Y-47893243D01*
X40690198Y-48213670D01*
X41059966Y-48645277D01*
X41566755Y-48902526D01*
X41791000Y-48798526D01*
X41791000Y-47669000D01*
X40662611Y-47669000D01*
X40557486Y-47893243D01*
X40414000Y-47893243D01*
X40414000Y-45353243D01*
X40557486Y-45353243D01*
X40690198Y-45673670D01*
X41059966Y-46105277D01*
X41305674Y-46230000D01*
X41059966Y-46354723D01*
X40690198Y-46786330D01*
X40557486Y-47106757D01*
X40662611Y-47331000D01*
X41791000Y-47331000D01*
X41791000Y-45129000D01*
X40662611Y-45129000D01*
X40557486Y-45353243D01*
X40414000Y-45353243D01*
X40414000Y-44566757D01*
X40557486Y-44566757D01*
X40662611Y-44791000D01*
X41791000Y-44791000D01*
X41791000Y-43661474D01*
X42129000Y-43661474D01*
X42129000Y-44791000D01*
X42149000Y-44791000D01*
X42149000Y-45129000D01*
X42129000Y-45129000D01*
X42129000Y-47331000D01*
X42149000Y-47331000D01*
X42149000Y-47669000D01*
X42129000Y-47669000D01*
X42129000Y-48798526D01*
X42353245Y-48902526D01*
X42860034Y-48645277D01*
X43229802Y-48213670D01*
X43290759Y-48066492D01*
X43290759Y-48363600D01*
X43314397Y-48489226D01*
X43388642Y-48604605D01*
X43501926Y-48682009D01*
X43636400Y-48709241D01*
X45363600Y-48709241D01*
X45489226Y-48685603D01*
X45604605Y-48611358D01*
X45682009Y-48498074D01*
X45709241Y-48363600D01*
X45709241Y-46636400D01*
X51290759Y-46636400D01*
X51290759Y-48363600D01*
X51314397Y-48489226D01*
X51388642Y-48604605D01*
X51411000Y-48619882D01*
X51411000Y-50000000D01*
X51493895Y-50416743D01*
X51729961Y-50770039D01*
X52729961Y-51770040D01*
X53083258Y-52006105D01*
X53500000Y-52089000D01*
X63548922Y-52089000D01*
X64729960Y-53270039D01*
X65074120Y-53500000D01*
X65083257Y-53506105D01*
X65500000Y-53589000D01*
X65916743Y-53506105D01*
X66270039Y-53270039D01*
X67451079Y-52089000D01*
X76000000Y-52089000D01*
X76416743Y-52006105D01*
X76770039Y-51770039D01*
X78270039Y-50270040D01*
X78506105Y-49916743D01*
X78561373Y-49638889D01*
X78589000Y-49500000D01*
X78589000Y-48621400D01*
X78604605Y-48611358D01*
X78682009Y-48498074D01*
X78709241Y-48363600D01*
X78709241Y-48034628D01*
X78894723Y-48400034D01*
X79326330Y-48769802D01*
X79646757Y-48902514D01*
X79871000Y-48797389D01*
X79871000Y-47669000D01*
X80209000Y-47669000D01*
X80209000Y-48797389D01*
X80433243Y-48902514D01*
X80753670Y-48769802D01*
X80920882Y-48626547D01*
X84860889Y-48626547D01*
X84957966Y-48861492D01*
X84961000Y-48864531D01*
X84961000Y-62135165D01*
X84958598Y-62137563D01*
X84861111Y-62372337D01*
X84860889Y-62626547D01*
X84957966Y-62861492D01*
X85137563Y-63041402D01*
X85372337Y-63138889D01*
X85626547Y-63139111D01*
X85861492Y-63042034D01*
X86041402Y-62862437D01*
X86138889Y-62627663D01*
X86139111Y-62373453D01*
X86042034Y-62138508D01*
X86039000Y-62135469D01*
X86039000Y-55626547D01*
X111860889Y-55626547D01*
X111957966Y-55861492D01*
X112137563Y-56041402D01*
X112372337Y-56138889D01*
X112376631Y-56138893D01*
X112618867Y-56381128D01*
X112618869Y-56381131D01*
X112793734Y-56497971D01*
X113000000Y-56539001D01*
X113000005Y-56539000D01*
X129635165Y-56539000D01*
X129637563Y-56541402D01*
X129872337Y-56638889D01*
X130126547Y-56639111D01*
X130361492Y-56542034D01*
X130541402Y-56362437D01*
X130638889Y-56127663D01*
X130639111Y-55873453D01*
X130542034Y-55638508D01*
X130362437Y-55458598D01*
X130127663Y-55361111D01*
X129873453Y-55360889D01*
X129638508Y-55457966D01*
X129635469Y-55461000D01*
X113223261Y-55461000D01*
X113139108Y-55376847D01*
X113139111Y-55373453D01*
X113042034Y-55138508D01*
X112862437Y-54958598D01*
X112627663Y-54861111D01*
X112373453Y-54860889D01*
X112138508Y-54957966D01*
X111958598Y-55137563D01*
X111861111Y-55372337D01*
X111860889Y-55626547D01*
X86039000Y-55626547D01*
X86039000Y-48864835D01*
X86041402Y-48862437D01*
X86138889Y-48627663D01*
X86139111Y-48373453D01*
X86042034Y-48138508D01*
X85862437Y-47958598D01*
X85627663Y-47861111D01*
X85373453Y-47860889D01*
X85138508Y-47957966D01*
X84958598Y-48137563D01*
X84861111Y-48372337D01*
X84860889Y-48626547D01*
X80920882Y-48626547D01*
X81185277Y-48400034D01*
X81442526Y-47893245D01*
X81338526Y-47669000D01*
X80209000Y-47669000D01*
X79871000Y-47669000D01*
X79851000Y-47669000D01*
X79851000Y-47331000D01*
X79871000Y-47331000D01*
X79871000Y-47311000D01*
X80209000Y-47311000D01*
X80209000Y-47331000D01*
X81338526Y-47331000D01*
X81442526Y-47106755D01*
X81203772Y-46636400D01*
X101290759Y-46636400D01*
X101290759Y-48363600D01*
X101314397Y-48489226D01*
X101388642Y-48604605D01*
X101411000Y-48619882D01*
X101411000Y-50500000D01*
X101493895Y-50916743D01*
X101729961Y-51270039D01*
X102729961Y-52270040D01*
X103025339Y-52467405D01*
X103083258Y-52506105D01*
X103500000Y-52589000D01*
X113548922Y-52589000D01*
X114729960Y-53770039D01*
X115071084Y-53997971D01*
X115083257Y-54006105D01*
X115500000Y-54089000D01*
X115916743Y-54006105D01*
X116270039Y-53770039D01*
X117451079Y-52589000D01*
X126500000Y-52589000D01*
X126916743Y-52506105D01*
X127270039Y-52270039D01*
X128270040Y-51270039D01*
X128506105Y-50916742D01*
X128589000Y-50500000D01*
X128589000Y-48621400D01*
X128604605Y-48611358D01*
X128682009Y-48498074D01*
X128709241Y-48363600D01*
X128709241Y-48034628D01*
X128894723Y-48400034D01*
X129326330Y-48769802D01*
X129646757Y-48902514D01*
X129871000Y-48797389D01*
X129871000Y-47669000D01*
X130209000Y-47669000D01*
X130209000Y-48797389D01*
X130433243Y-48902514D01*
X130753670Y-48769802D01*
X131185277Y-48400034D01*
X131442526Y-47893245D01*
X131338526Y-47669000D01*
X130209000Y-47669000D01*
X129871000Y-47669000D01*
X129851000Y-47669000D01*
X129851000Y-47331000D01*
X129871000Y-47331000D01*
X129871000Y-47311000D01*
X130209000Y-47311000D01*
X130209000Y-47331000D01*
X131338526Y-47331000D01*
X131442526Y-47106755D01*
X131185277Y-46599966D01*
X130753670Y-46230198D01*
X130450294Y-46104548D01*
X130500215Y-46094618D01*
X130890367Y-45833927D01*
X131114158Y-45499000D01*
X131736738Y-45499000D01*
X132461000Y-46223261D01*
X132461000Y-64776739D01*
X131276738Y-65961000D01*
X128500005Y-65961000D01*
X128500000Y-65960999D01*
X128298907Y-66001000D01*
X128293734Y-66002029D01*
X128118869Y-66118869D01*
X128118867Y-66118872D01*
X127118869Y-67118869D01*
X127002029Y-67293733D01*
X126960999Y-67500000D01*
X126961000Y-67500005D01*
X126961000Y-68878024D01*
X126649633Y-69086073D01*
X126388942Y-69476225D01*
X126297400Y-69936440D01*
X126297400Y-69983560D01*
X126388942Y-70443775D01*
X126649633Y-70833927D01*
X127039785Y-71094618D01*
X127500000Y-71186160D01*
X127960215Y-71094618D01*
X128350367Y-70833927D01*
X128611058Y-70443775D01*
X128702600Y-69983560D01*
X128702600Y-69936440D01*
X128611058Y-69476225D01*
X128350367Y-69086073D01*
X128039000Y-68878024D01*
X128039000Y-67723262D01*
X128723261Y-67039000D01*
X131499995Y-67039000D01*
X131500000Y-67039001D01*
X131706267Y-66997971D01*
X131881131Y-66881131D01*
X133381128Y-65381133D01*
X133381131Y-65381131D01*
X133451171Y-65276307D01*
X133497971Y-65206267D01*
X133539000Y-65000000D01*
X133539000Y-50433243D01*
X134097486Y-50433243D01*
X134230198Y-50753670D01*
X134599966Y-51185277D01*
X135106755Y-51442526D01*
X135331000Y-51338526D01*
X135331000Y-50209000D01*
X134202611Y-50209000D01*
X134097486Y-50433243D01*
X133539000Y-50433243D01*
X133539000Y-49646757D01*
X134097486Y-49646757D01*
X134202611Y-49871000D01*
X135331000Y-49871000D01*
X135331000Y-49851000D01*
X135669000Y-49851000D01*
X135669000Y-49871000D01*
X135689000Y-49871000D01*
X135689000Y-50209000D01*
X135669000Y-50209000D01*
X135669000Y-51338526D01*
X135893245Y-51442526D01*
X136400034Y-51185277D01*
X136769802Y-50753670D01*
X136895452Y-50450294D01*
X136905382Y-50500215D01*
X137166073Y-50890367D01*
X137556225Y-51151058D01*
X138016440Y-51242600D01*
X138063560Y-51242600D01*
X138523775Y-51151058D01*
X138913927Y-50890367D01*
X139174618Y-50500215D01*
X139266160Y-50040000D01*
X139174618Y-49579785D01*
X138913927Y-49189633D01*
X138523775Y-48928942D01*
X138063560Y-48837400D01*
X138016440Y-48837400D01*
X137556225Y-48928942D01*
X137166073Y-49189633D01*
X136905382Y-49579785D01*
X136895452Y-49629706D01*
X136769802Y-49326330D01*
X136400034Y-48894723D01*
X136034628Y-48709241D01*
X136363600Y-48709241D01*
X136489226Y-48685603D01*
X136604605Y-48611358D01*
X136682009Y-48498074D01*
X136709241Y-48363600D01*
X136709241Y-47500000D01*
X136813840Y-47500000D01*
X136905382Y-47960215D01*
X137166073Y-48350367D01*
X137556225Y-48611058D01*
X138016440Y-48702600D01*
X138063560Y-48702600D01*
X138523775Y-48611058D01*
X138913927Y-48350367D01*
X139174618Y-47960215D01*
X139266160Y-47500000D01*
X139174618Y-47039785D01*
X138913927Y-46649633D01*
X138523775Y-46388942D01*
X138063560Y-46297400D01*
X138016440Y-46297400D01*
X137556225Y-46388942D01*
X137166073Y-46649633D01*
X136905382Y-47039785D01*
X136813840Y-47500000D01*
X136709241Y-47500000D01*
X136709241Y-46636400D01*
X136685603Y-46510774D01*
X136611358Y-46395395D01*
X136498074Y-46317991D01*
X136363600Y-46290759D01*
X134636400Y-46290759D01*
X134510774Y-46314397D01*
X134395395Y-46388642D01*
X134317991Y-46501926D01*
X134290759Y-46636400D01*
X134290759Y-48363600D01*
X134314397Y-48489226D01*
X134388642Y-48604605D01*
X134501926Y-48682009D01*
X134636400Y-48709241D01*
X134965372Y-48709241D01*
X134599966Y-48894723D01*
X134230198Y-49326330D01*
X134097486Y-49646757D01*
X133539000Y-49646757D01*
X133539000Y-46000005D01*
X133539001Y-46000000D01*
X133497971Y-45793733D01*
X133451171Y-45723693D01*
X133381131Y-45618869D01*
X133381128Y-45618867D01*
X132341131Y-44578869D01*
X132166267Y-44462029D01*
X131960000Y-44420999D01*
X131959995Y-44421000D01*
X131114158Y-44421000D01*
X130890367Y-44086073D01*
X130500215Y-43825382D01*
X130040000Y-43733840D01*
X129579785Y-43825382D01*
X129189633Y-44086073D01*
X128928942Y-44476225D01*
X128837400Y-44936440D01*
X128837400Y-44983560D01*
X128928942Y-45443775D01*
X129189633Y-45833927D01*
X129579785Y-46094618D01*
X129629706Y-46104548D01*
X129326330Y-46230198D01*
X128894723Y-46599966D01*
X128709241Y-46965372D01*
X128709241Y-46636400D01*
X128685603Y-46510774D01*
X128611358Y-46395395D01*
X128498074Y-46317991D01*
X128363600Y-46290759D01*
X126636400Y-46290759D01*
X126510774Y-46314397D01*
X126395395Y-46388642D01*
X126317991Y-46501926D01*
X126290759Y-46636400D01*
X126290759Y-48363600D01*
X126314397Y-48489226D01*
X126388642Y-48604605D01*
X126411000Y-48619882D01*
X126411000Y-50048921D01*
X126048922Y-50411000D01*
X117000000Y-50411000D01*
X116652399Y-50480142D01*
X116583257Y-50493895D01*
X116229960Y-50729961D01*
X115500000Y-51459921D01*
X114770039Y-50729961D01*
X114416743Y-50493895D01*
X114000000Y-50411000D01*
X103951079Y-50411000D01*
X103589000Y-50048922D01*
X103589000Y-48621400D01*
X103604605Y-48611358D01*
X103682009Y-48498074D01*
X103709241Y-48363600D01*
X103709241Y-48034628D01*
X103894723Y-48400034D01*
X104326330Y-48769802D01*
X104646757Y-48902514D01*
X104871000Y-48797389D01*
X104871000Y-47669000D01*
X105209000Y-47669000D01*
X105209000Y-48797389D01*
X105433243Y-48902514D01*
X105753670Y-48769802D01*
X106185277Y-48400034D01*
X106442526Y-47893245D01*
X106338526Y-47669000D01*
X105209000Y-47669000D01*
X104871000Y-47669000D01*
X104851000Y-47669000D01*
X104851000Y-47331000D01*
X104871000Y-47331000D01*
X104871000Y-47311000D01*
X105209000Y-47311000D01*
X105209000Y-47331000D01*
X106338526Y-47331000D01*
X106442526Y-47106755D01*
X106185277Y-46599966D01*
X105753670Y-46230198D01*
X105450294Y-46104548D01*
X105500215Y-46094618D01*
X105890367Y-45833927D01*
X106151058Y-45443775D01*
X106242600Y-44983560D01*
X106242600Y-44936440D01*
X106151058Y-44476225D01*
X105890367Y-44086073D01*
X105500215Y-43825382D01*
X105040000Y-43733840D01*
X104579785Y-43825382D01*
X104189633Y-44086073D01*
X103928942Y-44476225D01*
X103837400Y-44936440D01*
X103837400Y-44983560D01*
X103928942Y-45443775D01*
X104189633Y-45833927D01*
X104579785Y-46094618D01*
X104629706Y-46104548D01*
X104326330Y-46230198D01*
X103894723Y-46599966D01*
X103709241Y-46965372D01*
X103709241Y-46636400D01*
X103685603Y-46510774D01*
X103611358Y-46395395D01*
X103498074Y-46317991D01*
X103363600Y-46290759D01*
X101636400Y-46290759D01*
X101510774Y-46314397D01*
X101395395Y-46388642D01*
X101317991Y-46501926D01*
X101290759Y-46636400D01*
X81203772Y-46636400D01*
X81185277Y-46599966D01*
X80753670Y-46230198D01*
X80450294Y-46104548D01*
X80500215Y-46094618D01*
X80890367Y-45833927D01*
X81114158Y-45499000D01*
X101425842Y-45499000D01*
X101649633Y-45833927D01*
X102039785Y-46094618D01*
X102500000Y-46186160D01*
X102960215Y-46094618D01*
X103350367Y-45833927D01*
X103611058Y-45443775D01*
X103702600Y-44983560D01*
X103702600Y-44936440D01*
X103611058Y-44476225D01*
X103350367Y-44086073D01*
X102960215Y-43825382D01*
X102500000Y-43733840D01*
X102039785Y-43825382D01*
X101649633Y-44086073D01*
X101425842Y-44421000D01*
X81114158Y-44421000D01*
X80890367Y-44086073D01*
X80500215Y-43825382D01*
X80040000Y-43733840D01*
X79579785Y-43825382D01*
X79189633Y-44086073D01*
X78928942Y-44476225D01*
X78837400Y-44936440D01*
X78837400Y-44983560D01*
X78928942Y-45443775D01*
X79189633Y-45833927D01*
X79579785Y-46094618D01*
X79629706Y-46104548D01*
X79326330Y-46230198D01*
X78894723Y-46599966D01*
X78709241Y-46965372D01*
X78709241Y-46636400D01*
X78685603Y-46510774D01*
X78611358Y-46395395D01*
X78498074Y-46317991D01*
X78363600Y-46290759D01*
X76636400Y-46290759D01*
X76510774Y-46314397D01*
X76395395Y-46388642D01*
X76317991Y-46501926D01*
X76290759Y-46636400D01*
X76290759Y-48363600D01*
X76314397Y-48489226D01*
X76388642Y-48604605D01*
X76411000Y-48619882D01*
X76411000Y-49048921D01*
X75548922Y-49911000D01*
X67000000Y-49911000D01*
X66652399Y-49980142D01*
X66583257Y-49993895D01*
X66229960Y-50229961D01*
X65500000Y-50959921D01*
X64770039Y-50229961D01*
X64416743Y-49993895D01*
X64000000Y-49911000D01*
X53951079Y-49911000D01*
X53589000Y-49548922D01*
X53589000Y-49126547D01*
X62360889Y-49126547D01*
X62457966Y-49361492D01*
X62637563Y-49541402D01*
X62872337Y-49638889D01*
X63126547Y-49639111D01*
X63361492Y-49542034D01*
X63541402Y-49362437D01*
X63638889Y-49127663D01*
X63638893Y-49123369D01*
X65381128Y-47381133D01*
X65381131Y-47381131D01*
X65451171Y-47276307D01*
X65497971Y-47206267D01*
X65539001Y-47000000D01*
X65539000Y-46999995D01*
X65539000Y-44936440D01*
X76297400Y-44936440D01*
X76297400Y-44983560D01*
X76388942Y-45443775D01*
X76649633Y-45833927D01*
X77039785Y-46094618D01*
X77500000Y-46186160D01*
X77960215Y-46094618D01*
X78350367Y-45833927D01*
X78611058Y-45443775D01*
X78702600Y-44983560D01*
X78702600Y-44936440D01*
X78611058Y-44476225D01*
X78350367Y-44086073D01*
X77960215Y-43825382D01*
X77500000Y-43733840D01*
X77039785Y-43825382D01*
X76649633Y-44086073D01*
X76388942Y-44476225D01*
X76297400Y-44936440D01*
X65539000Y-44936440D01*
X65539000Y-44364835D01*
X65541402Y-44362437D01*
X65638889Y-44127663D01*
X65639111Y-43873453D01*
X65542034Y-43638508D01*
X65362437Y-43458598D01*
X65127663Y-43361111D01*
X64873453Y-43360889D01*
X64638508Y-43457966D01*
X64458598Y-43637563D01*
X64361111Y-43872337D01*
X64360889Y-44126547D01*
X64457966Y-44361492D01*
X64461000Y-44364531D01*
X64461000Y-46776739D01*
X62876846Y-48360892D01*
X62873453Y-48360889D01*
X62638508Y-48457966D01*
X62458598Y-48637563D01*
X62361111Y-48872337D01*
X62360889Y-49126547D01*
X53589000Y-49126547D01*
X53589000Y-48621400D01*
X53604605Y-48611358D01*
X53682009Y-48498074D01*
X53709241Y-48363600D01*
X53709241Y-48034628D01*
X53894723Y-48400034D01*
X54326330Y-48769802D01*
X54646757Y-48902514D01*
X54871000Y-48797389D01*
X54871000Y-47669000D01*
X55209000Y-47669000D01*
X55209000Y-48797389D01*
X55433243Y-48902514D01*
X55753670Y-48769802D01*
X56185277Y-48400034D01*
X56324100Y-48126547D01*
X60360889Y-48126547D01*
X60457966Y-48361492D01*
X60637563Y-48541402D01*
X60872337Y-48638889D01*
X61126547Y-48639111D01*
X61361492Y-48542034D01*
X61541402Y-48362437D01*
X61638889Y-48127663D01*
X61638893Y-48123369D01*
X62881128Y-46881133D01*
X62881131Y-46881131D01*
X62982139Y-46729961D01*
X62997971Y-46706267D01*
X63039000Y-46500000D01*
X63039000Y-44364835D01*
X63041402Y-44362437D01*
X63138889Y-44127663D01*
X63139111Y-43873453D01*
X63042034Y-43638508D01*
X62862437Y-43458598D01*
X62627663Y-43361111D01*
X62373453Y-43360889D01*
X62138508Y-43457966D01*
X61958598Y-43637563D01*
X61861111Y-43872337D01*
X61860889Y-44126547D01*
X61957966Y-44361492D01*
X61961000Y-44364531D01*
X61961000Y-46276739D01*
X60876846Y-47360892D01*
X60873453Y-47360889D01*
X60638508Y-47457966D01*
X60458598Y-47637563D01*
X60361111Y-47872337D01*
X60360889Y-48126547D01*
X56324100Y-48126547D01*
X56442526Y-47893245D01*
X56338526Y-47669000D01*
X55209000Y-47669000D01*
X54871000Y-47669000D01*
X54851000Y-47669000D01*
X54851000Y-47331000D01*
X54871000Y-47331000D01*
X54871000Y-47311000D01*
X55209000Y-47311000D01*
X55209000Y-47331000D01*
X56338526Y-47331000D01*
X56442526Y-47106755D01*
X56185277Y-46599966D01*
X55753670Y-46230198D01*
X55450294Y-46104548D01*
X55500215Y-46094618D01*
X55890367Y-45833927D01*
X56151058Y-45443775D01*
X56242600Y-44983560D01*
X56242600Y-44936440D01*
X56151058Y-44476225D01*
X55890367Y-44086073D01*
X55500215Y-43825382D01*
X55040000Y-43733840D01*
X54579785Y-43825382D01*
X54189633Y-44086073D01*
X53928942Y-44476225D01*
X53837400Y-44936440D01*
X53837400Y-44983560D01*
X53928942Y-45443775D01*
X54189633Y-45833927D01*
X54579785Y-46094618D01*
X54629706Y-46104548D01*
X54326330Y-46230198D01*
X53894723Y-46599966D01*
X53709241Y-46965372D01*
X53709241Y-46636400D01*
X53685603Y-46510774D01*
X53611358Y-46395395D01*
X53498074Y-46317991D01*
X53363600Y-46290759D01*
X51636400Y-46290759D01*
X51510774Y-46314397D01*
X51395395Y-46388642D01*
X51317991Y-46501926D01*
X51290759Y-46636400D01*
X45709241Y-46636400D01*
X45685603Y-46510774D01*
X45611358Y-46395395D01*
X45589000Y-46380118D01*
X45589000Y-45488487D01*
X45634618Y-45420215D01*
X45726160Y-44960000D01*
X45634618Y-44499785D01*
X45373927Y-44109633D01*
X44983775Y-43848942D01*
X44523560Y-43757400D01*
X44476440Y-43757400D01*
X44016225Y-43848942D01*
X43626073Y-44109633D01*
X43365382Y-44499785D01*
X43355452Y-44549706D01*
X43229802Y-44246330D01*
X42860034Y-43814723D01*
X42353245Y-43557474D01*
X42129000Y-43661474D01*
X41791000Y-43661474D01*
X41566755Y-43557474D01*
X41059966Y-43814723D01*
X40690198Y-44246330D01*
X40557486Y-44566757D01*
X40414000Y-44566757D01*
X40414000Y-37500000D01*
X49460999Y-37500000D01*
X49461000Y-37500005D01*
X49461000Y-40499995D01*
X49460999Y-40500000D01*
X49502029Y-40706267D01*
X49618869Y-40881131D01*
X50618867Y-41881128D01*
X50618869Y-41881131D01*
X50793734Y-41997971D01*
X51000000Y-42039001D01*
X51000005Y-42039000D01*
X53238402Y-42039000D01*
X53118869Y-42118869D01*
X53118867Y-42118872D01*
X52118869Y-43118869D01*
X52002029Y-43293733D01*
X51960999Y-43500000D01*
X51961000Y-43500005D01*
X51961000Y-43878024D01*
X51649633Y-44086073D01*
X51388942Y-44476225D01*
X51297400Y-44936440D01*
X51297400Y-44983560D01*
X51388942Y-45443775D01*
X51649633Y-45833927D01*
X52039785Y-46094618D01*
X52500000Y-46186160D01*
X52960215Y-46094618D01*
X53350367Y-45833927D01*
X53611058Y-45443775D01*
X53702600Y-44983560D01*
X53702600Y-44936440D01*
X53611058Y-44476225D01*
X53350367Y-44086073D01*
X53039000Y-43878024D01*
X53039000Y-43723262D01*
X53723261Y-43039000D01*
X57999995Y-43039000D01*
X58000000Y-43039001D01*
X58206267Y-42997971D01*
X58381131Y-42881131D01*
X58500000Y-42762262D01*
X58618867Y-42881128D01*
X58618869Y-42881131D01*
X58793734Y-42997971D01*
X59000000Y-43039001D01*
X59000005Y-43039000D01*
X66776738Y-43039000D01*
X67618867Y-43881128D01*
X67618869Y-43881131D01*
X67727769Y-43953895D01*
X67793734Y-43997971D01*
X68000000Y-44039001D01*
X68000005Y-44039000D01*
X72135165Y-44039000D01*
X72137563Y-44041402D01*
X72372337Y-44138889D01*
X72626547Y-44139111D01*
X72861492Y-44042034D01*
X73041402Y-43862437D01*
X73138889Y-43627663D01*
X73139111Y-43373453D01*
X73042034Y-43138508D01*
X72862437Y-42958598D01*
X72627663Y-42861111D01*
X72373453Y-42860889D01*
X72138508Y-42957966D01*
X72135469Y-42961000D01*
X68223261Y-42961000D01*
X67381131Y-42118869D01*
X67206267Y-42002029D01*
X67000000Y-41960999D01*
X66999995Y-41961000D01*
X59223261Y-41961000D01*
X59139108Y-41876847D01*
X59139111Y-41873453D01*
X59042034Y-41638508D01*
X58862437Y-41458598D01*
X58627663Y-41361111D01*
X58373453Y-41360889D01*
X58138508Y-41457966D01*
X57958598Y-41637563D01*
X57861111Y-41872337D01*
X57861107Y-41876631D01*
X57776738Y-41961000D01*
X57261598Y-41961000D01*
X57381131Y-41881131D01*
X59135714Y-40126547D01*
X63360889Y-40126547D01*
X63457966Y-40361492D01*
X63637563Y-40541402D01*
X63872337Y-40638889D01*
X64126547Y-40639111D01*
X64361492Y-40542034D01*
X64364531Y-40539000D01*
X65057333Y-40539000D01*
X64958598Y-40637563D01*
X64861111Y-40872337D01*
X64860889Y-41126547D01*
X64957966Y-41361492D01*
X65137563Y-41541402D01*
X65372337Y-41638889D01*
X65626547Y-41639111D01*
X65861492Y-41542034D01*
X65864531Y-41539000D01*
X71557333Y-41539000D01*
X71458598Y-41637563D01*
X71361111Y-41872337D01*
X71360889Y-42126547D01*
X71457966Y-42361492D01*
X71637563Y-42541402D01*
X71872337Y-42638889D01*
X72126547Y-42639111D01*
X72361492Y-42542034D01*
X72364531Y-42539000D01*
X84276738Y-42539000D01*
X84860892Y-43123153D01*
X84860889Y-43126547D01*
X84957966Y-43361492D01*
X85137563Y-43541402D01*
X85372337Y-43638889D01*
X85626547Y-43639111D01*
X85861492Y-43542034D01*
X86041402Y-43362437D01*
X86138889Y-43127663D01*
X86139111Y-42873453D01*
X86042034Y-42638508D01*
X85862437Y-42458598D01*
X85627663Y-42361111D01*
X85623369Y-42361107D01*
X84881131Y-41618869D01*
X84761598Y-41539000D01*
X85135165Y-41539000D01*
X85137563Y-41541402D01*
X85372337Y-41638889D01*
X85626547Y-41639111D01*
X85861492Y-41542034D01*
X86041402Y-41362437D01*
X86138889Y-41127663D01*
X86138889Y-41126547D01*
X100860889Y-41126547D01*
X100957966Y-41361492D01*
X101137563Y-41541402D01*
X101372337Y-41638889D01*
X101626547Y-41639111D01*
X101861492Y-41542034D01*
X102041402Y-41362437D01*
X102138889Y-41127663D01*
X102138893Y-41123369D01*
X103135714Y-40126547D01*
X105360889Y-40126547D01*
X105457966Y-40361492D01*
X105637563Y-40541402D01*
X105872337Y-40638889D01*
X106126547Y-40639111D01*
X106361492Y-40542034D01*
X106364531Y-40539000D01*
X109276738Y-40539000D01*
X111961000Y-43223261D01*
X111961000Y-48135165D01*
X111958598Y-48137563D01*
X111861111Y-48372337D01*
X111860889Y-48626547D01*
X111957966Y-48861492D01*
X112137563Y-49041402D01*
X112372337Y-49138889D01*
X112626547Y-49139111D01*
X112861492Y-49042034D01*
X113041402Y-48862437D01*
X113138889Y-48627663D01*
X113139111Y-48373453D01*
X113042034Y-48138508D01*
X113039000Y-48135469D01*
X113039000Y-44936440D01*
X126297400Y-44936440D01*
X126297400Y-44983560D01*
X126388942Y-45443775D01*
X126649633Y-45833927D01*
X127039785Y-46094618D01*
X127500000Y-46186160D01*
X127960215Y-46094618D01*
X128350367Y-45833927D01*
X128611058Y-45443775D01*
X128702600Y-44983560D01*
X128702600Y-44936440D01*
X128611058Y-44476225D01*
X128350367Y-44086073D01*
X127960215Y-43825382D01*
X127500000Y-43733840D01*
X127039785Y-43825382D01*
X126649633Y-44086073D01*
X126388942Y-44476225D01*
X126297400Y-44936440D01*
X113039000Y-44936440D01*
X113039000Y-43000005D01*
X113039001Y-43000000D01*
X112997971Y-42793734D01*
X112894656Y-42639111D01*
X112881131Y-42618869D01*
X112881128Y-42618867D01*
X109881131Y-39618869D01*
X109706267Y-39502029D01*
X109500000Y-39460999D01*
X109499995Y-39461000D01*
X106364835Y-39461000D01*
X106362437Y-39458598D01*
X106127663Y-39361111D01*
X105873453Y-39360889D01*
X105638508Y-39457966D01*
X105458598Y-39637563D01*
X105361111Y-39872337D01*
X105360889Y-40126547D01*
X103135714Y-40126547D01*
X104223261Y-39039000D01*
X110276738Y-39039000D01*
X112118867Y-40881128D01*
X112118869Y-40881131D01*
X112223693Y-40951171D01*
X112293733Y-40997971D01*
X112500000Y-41039001D01*
X112500005Y-41039000D01*
X123135165Y-41039000D01*
X123137563Y-41041402D01*
X123372337Y-41138889D01*
X123626547Y-41139111D01*
X123861492Y-41042034D01*
X124041402Y-40862437D01*
X124138889Y-40627663D01*
X124139111Y-40373453D01*
X124042034Y-40138508D01*
X123862437Y-39958598D01*
X123627663Y-39861111D01*
X123373453Y-39860889D01*
X123138508Y-39957966D01*
X123135469Y-39961000D01*
X112723261Y-39961000D01*
X110881131Y-38118869D01*
X110706267Y-38002029D01*
X110500000Y-37960999D01*
X110499995Y-37961000D01*
X104000005Y-37961000D01*
X104000000Y-37960999D01*
X103793733Y-38002029D01*
X103618869Y-38118869D01*
X103618867Y-38118872D01*
X101376846Y-40360892D01*
X101373453Y-40360889D01*
X101138508Y-40457966D01*
X100958598Y-40637563D01*
X100861111Y-40872337D01*
X100860889Y-41126547D01*
X86138889Y-41126547D01*
X86139111Y-40873453D01*
X86042034Y-40638508D01*
X85942699Y-40539000D01*
X86135165Y-40539000D01*
X86137563Y-40541402D01*
X86372337Y-40638889D01*
X86626547Y-40639111D01*
X86861492Y-40542034D01*
X87041402Y-40362437D01*
X87138889Y-40127663D01*
X87139111Y-39873453D01*
X87042034Y-39638508D01*
X86862437Y-39458598D01*
X86627663Y-39361111D01*
X86373453Y-39360889D01*
X86138508Y-39457966D01*
X86135469Y-39461000D01*
X64364835Y-39461000D01*
X64362437Y-39458598D01*
X64127663Y-39361111D01*
X63873453Y-39360889D01*
X63638508Y-39457966D01*
X63458598Y-39637563D01*
X63361111Y-39872337D01*
X63360889Y-40126547D01*
X59135714Y-40126547D01*
X60223261Y-39039000D01*
X64635165Y-39039000D01*
X64637563Y-39041402D01*
X64872337Y-39138889D01*
X65126547Y-39139111D01*
X65361492Y-39042034D01*
X65541402Y-38862437D01*
X65638889Y-38627663D01*
X65639111Y-38373453D01*
X65542034Y-38138508D01*
X65362437Y-37958598D01*
X65127663Y-37861111D01*
X64873453Y-37860889D01*
X64638508Y-37957966D01*
X64635469Y-37961000D01*
X64442667Y-37961000D01*
X64541402Y-37862437D01*
X64638889Y-37627663D01*
X64639111Y-37373453D01*
X64542034Y-37138508D01*
X64362437Y-36958598D01*
X64127663Y-36861111D01*
X63873453Y-36860889D01*
X63638508Y-36957966D01*
X63635469Y-36961000D01*
X57223261Y-36961000D01*
X56841131Y-36578869D01*
X56666267Y-36462029D01*
X56460000Y-36420999D01*
X56459995Y-36421000D01*
X56114158Y-36421000D01*
X55890367Y-36086073D01*
X55500215Y-35825382D01*
X55040000Y-35733840D01*
X54579785Y-35825382D01*
X54189633Y-36086073D01*
X53928942Y-36476225D01*
X53837400Y-36936440D01*
X53837400Y-36983560D01*
X53928942Y-37443775D01*
X54189633Y-37833927D01*
X54579785Y-38094618D01*
X54629706Y-38104548D01*
X54326330Y-38230198D01*
X53894723Y-38599966D01*
X53709241Y-38965372D01*
X53709241Y-38636400D01*
X53685603Y-38510774D01*
X53611358Y-38395395D01*
X53498074Y-38317991D01*
X53363600Y-38290759D01*
X51636400Y-38290759D01*
X51510774Y-38314397D01*
X51395395Y-38388642D01*
X51317991Y-38501926D01*
X51290759Y-38636400D01*
X51290759Y-40363600D01*
X51314397Y-40489226D01*
X51388642Y-40604605D01*
X51501926Y-40682009D01*
X51636400Y-40709241D01*
X53363600Y-40709241D01*
X53489226Y-40685603D01*
X53604605Y-40611358D01*
X53682009Y-40498074D01*
X53709241Y-40363600D01*
X53709241Y-40034628D01*
X53894723Y-40400034D01*
X54326330Y-40769802D01*
X54646757Y-40902514D01*
X54871000Y-40797389D01*
X54871000Y-39669000D01*
X55209000Y-39669000D01*
X55209000Y-40797389D01*
X55433243Y-40902514D01*
X55753670Y-40769802D01*
X56185277Y-40400034D01*
X56442526Y-39893245D01*
X56338526Y-39669000D01*
X55209000Y-39669000D01*
X54871000Y-39669000D01*
X54851000Y-39669000D01*
X54851000Y-39331000D01*
X54871000Y-39331000D01*
X54871000Y-39311000D01*
X55209000Y-39311000D01*
X55209000Y-39331000D01*
X56338526Y-39331000D01*
X56442526Y-39106755D01*
X56185277Y-38599966D01*
X55753670Y-38230198D01*
X55450294Y-38104548D01*
X55500215Y-38094618D01*
X55890367Y-37833927D01*
X56114158Y-37499000D01*
X56236738Y-37499000D01*
X56618867Y-37881128D01*
X56618869Y-37881131D01*
X56723693Y-37951171D01*
X56793733Y-37997971D01*
X57000000Y-38039000D01*
X59738402Y-38039000D01*
X59618869Y-38118869D01*
X59618867Y-38118872D01*
X56776738Y-40961000D01*
X51223261Y-40961000D01*
X50539000Y-40276738D01*
X50539000Y-37723262D01*
X50763261Y-37499000D01*
X51425842Y-37499000D01*
X51649633Y-37833927D01*
X52039785Y-38094618D01*
X52500000Y-38186160D01*
X52960215Y-38094618D01*
X53350367Y-37833927D01*
X53611058Y-37443775D01*
X53702600Y-36983560D01*
X53702600Y-36936440D01*
X53611058Y-36476225D01*
X53350367Y-36086073D01*
X52960215Y-35825382D01*
X52500000Y-35733840D01*
X52039785Y-35825382D01*
X51649633Y-36086073D01*
X51425842Y-36421000D01*
X50540000Y-36421000D01*
X50333733Y-36462029D01*
X50263693Y-36508829D01*
X50158869Y-36578869D01*
X50158867Y-36578872D01*
X49618869Y-37118869D01*
X49502029Y-37293733D01*
X49460999Y-37500000D01*
X40414000Y-37500000D01*
X40414000Y-35414000D01*
X139586000Y-35414000D01*
X139586000Y-134586000D01*
X139586000Y-134586000D01*
G37*
X139586000Y-134586000D02*
X40414000Y-134586000D01*
X40414000Y-129200000D01*
X49860999Y-129200000D01*
X49861000Y-129200005D01*
X49861000Y-132099995D01*
X49860999Y-132100000D01*
X49902029Y-132306267D01*
X50018869Y-132481131D01*
X50958867Y-133421128D01*
X50958869Y-133421131D01*
X51077228Y-133500215D01*
X51133734Y-133537971D01*
X51340000Y-133579001D01*
X51340005Y-133579000D01*
X51418024Y-133579000D01*
X51626073Y-133890367D01*
X52016225Y-134151058D01*
X52476440Y-134242600D01*
X52523560Y-134242600D01*
X52983775Y-134151058D01*
X53373927Y-133890367D01*
X53634618Y-133500215D01*
X53726160Y-133040000D01*
X53634618Y-132579785D01*
X53373927Y-132189633D01*
X52983775Y-131928942D01*
X52523560Y-131837400D01*
X52476440Y-131837400D01*
X52016225Y-131928942D01*
X51626073Y-132189633D01*
X51476198Y-132413937D01*
X50939000Y-131876738D01*
X50939000Y-129636400D01*
X51290759Y-129636400D01*
X51290759Y-131363600D01*
X51314397Y-131489226D01*
X51388642Y-131604605D01*
X51501926Y-131682009D01*
X51636400Y-131709241D01*
X53363600Y-131709241D01*
X53489226Y-131685603D01*
X53604605Y-131611358D01*
X53682009Y-131498074D01*
X53709241Y-131363600D01*
X53709241Y-131066492D01*
X53770198Y-131213670D01*
X54139966Y-131645277D01*
X54646755Y-131902526D01*
X54870998Y-131798527D01*
X54870998Y-131866330D01*
X54556225Y-131928942D01*
X54166073Y-132189633D01*
X53905382Y-132579785D01*
X53813840Y-133040000D01*
X53905382Y-133500215D01*
X54166073Y-133890367D01*
X54556225Y-134151058D01*
X55016440Y-134242600D01*
X55063560Y-134242600D01*
X55523775Y-134151058D01*
X55913927Y-133890367D01*
X56174618Y-133500215D01*
X56266160Y-133040000D01*
X56174618Y-132579785D01*
X55913927Y-132189633D01*
X55523775Y-131928942D01*
X55209002Y-131866330D01*
X55209002Y-131798527D01*
X55433245Y-131902526D01*
X55940034Y-131645277D01*
X56309802Y-131213670D01*
X56442514Y-130893243D01*
X56337389Y-130669000D01*
X55209000Y-130669000D01*
X55209000Y-130689000D01*
X54871000Y-130689000D01*
X54871000Y-130669000D01*
X54851000Y-130669000D01*
X54851000Y-130331000D01*
X54871000Y-130331000D01*
X54871000Y-129201474D01*
X55209000Y-129201474D01*
X55209000Y-130331000D01*
X56337389Y-130331000D01*
X56442514Y-130106757D01*
X56309802Y-129786330D01*
X55940034Y-129354723D01*
X55433245Y-129097474D01*
X55209000Y-129201474D01*
X54871000Y-129201474D01*
X54646755Y-129097474D01*
X54139966Y-129354723D01*
X53770198Y-129786330D01*
X53709241Y-129933508D01*
X53709241Y-129636400D01*
X53685603Y-129510774D01*
X53611358Y-129395395D01*
X53498074Y-129317991D01*
X53363600Y-129290759D01*
X51636400Y-129290759D01*
X51510774Y-129314397D01*
X51395395Y-129388642D01*
X51317991Y-129501926D01*
X51290759Y-129636400D01*
X50939000Y-129636400D01*
X50939000Y-129423262D01*
X51323261Y-129039000D01*
X57735165Y-129039000D01*
X57737563Y-129041402D01*
X57972337Y-129138889D01*
X58226547Y-129139111D01*
X58461492Y-129042034D01*
X58641402Y-128862437D01*
X58738889Y-128627663D01*
X58739111Y-128373453D01*
X58642034Y-128138508D01*
X58462437Y-127958598D01*
X58227663Y-127861111D01*
X57973453Y-127860889D01*
X57738508Y-127957966D01*
X57735469Y-127961000D01*
X51100000Y-127961000D01*
X50893734Y-128002029D01*
X50718869Y-128118869D01*
X50718867Y-128118872D01*
X50018869Y-128818869D01*
X49902029Y-128993733D01*
X49860999Y-129200000D01*
X40414000Y-129200000D01*
X40414000Y-122500000D01*
X40733840Y-122500000D01*
X40825382Y-122960215D01*
X41086073Y-123350367D01*
X41421000Y-123574158D01*
X41421000Y-124459995D01*
X41420999Y-124460000D01*
X41462029Y-124666267D01*
X41578869Y-124841131D01*
X42118867Y-125381128D01*
X42118869Y-125381131D01*
X42223693Y-125451171D01*
X42293733Y-125497971D01*
X42500000Y-125539000D01*
X46999995Y-125539000D01*
X47000000Y-125539001D01*
X47206267Y-125497971D01*
X47381131Y-125381131D01*
X48381128Y-124381133D01*
X48381131Y-124381131D01*
X48497971Y-124206266D01*
X48505177Y-124170039D01*
X48539001Y-124000000D01*
X48539000Y-123999995D01*
X48539000Y-121636400D01*
X51290759Y-121636400D01*
X51290759Y-123363600D01*
X51314397Y-123489226D01*
X51388642Y-123604605D01*
X51461616Y-123654466D01*
X51493895Y-123816743D01*
X51729961Y-124170039D01*
X53829960Y-126270039D01*
X54066026Y-126427773D01*
X54183258Y-126506105D01*
X54600000Y-126589000D01*
X60048922Y-126589000D01*
X64229961Y-130770039D01*
X64583257Y-131006105D01*
X65000000Y-131089000D01*
X75500000Y-131089000D01*
X75916743Y-131006105D01*
X76270039Y-130770039D01*
X78270039Y-128770039D01*
X78506105Y-128416743D01*
X78589000Y-128000000D01*
X78589000Y-123621400D01*
X78604605Y-123611358D01*
X78682009Y-123498074D01*
X78709241Y-123363600D01*
X78709241Y-123034628D01*
X78894723Y-123400034D01*
X79326330Y-123769802D01*
X79646757Y-123902514D01*
X79871000Y-123797389D01*
X79871000Y-122669000D01*
X80209000Y-122669000D01*
X80209000Y-123797389D01*
X80433243Y-123902514D01*
X80753670Y-123769802D01*
X81185277Y-123400034D01*
X81442526Y-122893245D01*
X81338526Y-122669000D01*
X80209000Y-122669000D01*
X79871000Y-122669000D01*
X79851000Y-122669000D01*
X79851000Y-122331000D01*
X79871000Y-122331000D01*
X79871000Y-122311000D01*
X80209000Y-122311000D01*
X80209000Y-122331000D01*
X81338526Y-122331000D01*
X81442526Y-122106755D01*
X81185277Y-121599966D01*
X80753670Y-121230198D01*
X80450294Y-121104548D01*
X80500215Y-121094618D01*
X80890367Y-120833927D01*
X81151058Y-120443775D01*
X81242600Y-119983560D01*
X81242600Y-119936440D01*
X101297400Y-119936440D01*
X101297400Y-119983560D01*
X101388942Y-120443775D01*
X101649633Y-120833927D01*
X102039785Y-121094618D01*
X102500000Y-121186160D01*
X102960215Y-121094618D01*
X103350367Y-120833927D01*
X103611058Y-120443775D01*
X103702600Y-119983560D01*
X103702600Y-119936440D01*
X103611058Y-119476225D01*
X103350367Y-119086073D01*
X102960215Y-118825382D01*
X102500000Y-118733840D01*
X102039785Y-118825382D01*
X101649633Y-119086073D01*
X101388942Y-119476225D01*
X101297400Y-119936440D01*
X81242600Y-119936440D01*
X81151058Y-119476225D01*
X80890367Y-119086073D01*
X80500215Y-118825382D01*
X80040000Y-118733840D01*
X79579785Y-118825382D01*
X79189633Y-119086073D01*
X78928942Y-119476225D01*
X78837400Y-119936440D01*
X78837400Y-119983560D01*
X78928942Y-120443775D01*
X79189633Y-120833927D01*
X79579785Y-121094618D01*
X79629706Y-121104548D01*
X79326330Y-121230198D01*
X78894723Y-121599966D01*
X78709241Y-121965372D01*
X78709241Y-121636400D01*
X78685603Y-121510774D01*
X78611358Y-121395395D01*
X78498074Y-121317991D01*
X78363600Y-121290759D01*
X76636400Y-121290759D01*
X76510774Y-121314397D01*
X76395395Y-121388642D01*
X76317991Y-121501926D01*
X76290759Y-121636400D01*
X76290759Y-123363600D01*
X76314397Y-123489226D01*
X76388642Y-123604605D01*
X76411000Y-123619882D01*
X76411000Y-127548922D01*
X75048922Y-128911000D01*
X65451078Y-128911000D01*
X61270039Y-124729961D01*
X60916743Y-124493895D01*
X60500000Y-124411000D01*
X55051079Y-124411000D01*
X54468950Y-123828871D01*
X54646757Y-123902514D01*
X54871000Y-123797389D01*
X54871000Y-122669000D01*
X55209000Y-122669000D01*
X55209000Y-123797389D01*
X55433243Y-123902514D01*
X55753670Y-123769802D01*
X56185277Y-123400034D01*
X56442526Y-122893245D01*
X56338526Y-122669000D01*
X55209000Y-122669000D01*
X54871000Y-122669000D01*
X54851000Y-122669000D01*
X54851000Y-122331000D01*
X54871000Y-122331000D01*
X54871000Y-122311000D01*
X55209000Y-122311000D01*
X55209000Y-122331000D01*
X56338526Y-122331000D01*
X56442526Y-122106755D01*
X56185277Y-121599966D01*
X55753670Y-121230198D01*
X55450294Y-121104548D01*
X55500215Y-121094618D01*
X55890367Y-120833927D01*
X56151058Y-120443775D01*
X56242600Y-119983560D01*
X56242600Y-119936440D01*
X56151058Y-119476225D01*
X55890367Y-119086073D01*
X55500215Y-118825382D01*
X55040000Y-118733840D01*
X54579785Y-118825382D01*
X54189633Y-119086073D01*
X53928942Y-119476225D01*
X53837400Y-119936440D01*
X53837400Y-119983560D01*
X53928942Y-120443775D01*
X54189633Y-120833927D01*
X54579785Y-121094618D01*
X54629706Y-121104548D01*
X54326330Y-121230198D01*
X53894723Y-121599966D01*
X53709241Y-121965372D01*
X53709241Y-121636400D01*
X53685603Y-121510774D01*
X53611358Y-121395395D01*
X53498074Y-121317991D01*
X53363600Y-121290759D01*
X51636400Y-121290759D01*
X51510774Y-121314397D01*
X51395395Y-121388642D01*
X51317991Y-121501926D01*
X51290759Y-121636400D01*
X48539000Y-121636400D01*
X48539000Y-120364835D01*
X48541402Y-120362437D01*
X48638889Y-120127663D01*
X48639055Y-119936440D01*
X51297400Y-119936440D01*
X51297400Y-119983560D01*
X51388942Y-120443775D01*
X51649633Y-120833927D01*
X52039785Y-121094618D01*
X52500000Y-121186160D01*
X52960215Y-121094618D01*
X53350367Y-120833927D01*
X53611058Y-120443775D01*
X53702600Y-119983560D01*
X53702600Y-119936440D01*
X53611058Y-119476225D01*
X53350367Y-119086073D01*
X52960215Y-118825382D01*
X52500000Y-118733840D01*
X52039785Y-118825382D01*
X51649633Y-119086073D01*
X51388942Y-119476225D01*
X51297400Y-119936440D01*
X48639055Y-119936440D01*
X48639111Y-119873453D01*
X48542034Y-119638508D01*
X48362437Y-119458598D01*
X48127663Y-119361111D01*
X47873453Y-119360889D01*
X47638508Y-119457966D01*
X47458598Y-119637563D01*
X47361111Y-119872337D01*
X47360889Y-120126547D01*
X47457966Y-120361492D01*
X47461000Y-120364531D01*
X47461000Y-123776739D01*
X46776738Y-124461000D01*
X42723261Y-124461000D01*
X42499000Y-124236738D01*
X42499000Y-123574158D01*
X42833927Y-123350367D01*
X43094618Y-122960215D01*
X43186160Y-122500000D01*
X43094618Y-122039785D01*
X42833927Y-121649633D01*
X42443775Y-121388942D01*
X41983560Y-121297400D01*
X41936440Y-121297400D01*
X41476225Y-121388942D01*
X41086073Y-121649633D01*
X40825382Y-122039785D01*
X40733840Y-122500000D01*
X40414000Y-122500000D01*
X40414000Y-119960000D01*
X40733840Y-119960000D01*
X40825382Y-120420215D01*
X41086073Y-120810367D01*
X41476225Y-121071058D01*
X41936440Y-121162600D01*
X41983560Y-121162600D01*
X42443775Y-121071058D01*
X42833927Y-120810367D01*
X43094618Y-120420215D01*
X43104548Y-120370294D01*
X43230198Y-120673670D01*
X43599966Y-121105277D01*
X43965372Y-121290759D01*
X43636400Y-121290759D01*
X43510774Y-121314397D01*
X43395395Y-121388642D01*
X43317991Y-121501926D01*
X43290759Y-121636400D01*
X43290759Y-123363600D01*
X43314397Y-123489226D01*
X43388642Y-123604605D01*
X43501926Y-123682009D01*
X43636400Y-123709241D01*
X45363600Y-123709241D01*
X45489226Y-123685603D01*
X45604605Y-123611358D01*
X45682009Y-123498074D01*
X45709241Y-123363600D01*
X45709241Y-121636400D01*
X45685603Y-121510774D01*
X45611358Y-121395395D01*
X45498074Y-121317991D01*
X45363600Y-121290759D01*
X45034628Y-121290759D01*
X45400034Y-121105277D01*
X45769802Y-120673670D01*
X45902514Y-120353243D01*
X45797389Y-120129000D01*
X44669000Y-120129000D01*
X44669000Y-120149000D01*
X44331000Y-120149000D01*
X44331000Y-120129000D01*
X44311000Y-120129000D01*
X44311000Y-119791000D01*
X44331000Y-119791000D01*
X44331000Y-118661474D01*
X44669000Y-118661474D01*
X44669000Y-119791000D01*
X45797389Y-119791000D01*
X45902514Y-119566757D01*
X45769802Y-119246330D01*
X45400034Y-118814723D01*
X44893245Y-118557474D01*
X44669000Y-118661474D01*
X44331000Y-118661474D01*
X44106755Y-118557474D01*
X43599966Y-118814723D01*
X43230198Y-119246330D01*
X43104548Y-119549706D01*
X43094618Y-119499785D01*
X42833927Y-119109633D01*
X42499000Y-118885842D01*
X42499000Y-117263262D01*
X45381128Y-114381133D01*
X45381131Y-114381131D01*
X45451171Y-114276307D01*
X45497971Y-114206267D01*
X45539000Y-114000000D01*
X45539000Y-109864835D01*
X45541402Y-109862437D01*
X45638889Y-109627663D01*
X45639111Y-109373453D01*
X45542034Y-109138508D01*
X45530094Y-109126547D01*
X46360889Y-109126547D01*
X46457966Y-109361492D01*
X46461000Y-109364531D01*
X46461000Y-113499995D01*
X46460999Y-113500000D01*
X46502029Y-113706267D01*
X46618869Y-113881131D01*
X47360892Y-114623153D01*
X47360889Y-114626547D01*
X47457966Y-114861492D01*
X47637563Y-115041402D01*
X47872337Y-115138889D01*
X48126547Y-115139111D01*
X48361492Y-115042034D01*
X48541402Y-114862437D01*
X48638889Y-114627663D01*
X48639111Y-114373453D01*
X48542034Y-114138508D01*
X48362437Y-113958598D01*
X48127663Y-113861111D01*
X48123369Y-113861107D01*
X47539000Y-113276738D01*
X47539000Y-111500000D01*
X64411000Y-111500000D01*
X64411000Y-125000000D01*
X64493895Y-125416742D01*
X64729961Y-125770039D01*
X65083258Y-126006105D01*
X65500000Y-126089000D01*
X65916742Y-126006105D01*
X66270039Y-125770039D01*
X66506105Y-125416742D01*
X66589000Y-125000000D01*
X66589000Y-121126547D01*
X69860889Y-121126547D01*
X69957966Y-121361492D01*
X70137563Y-121541402D01*
X70372337Y-121638889D01*
X70626547Y-121639111D01*
X70861492Y-121542034D01*
X71041402Y-121362437D01*
X71138889Y-121127663D01*
X71139111Y-120873453D01*
X71042034Y-120638508D01*
X71039000Y-120635469D01*
X71039000Y-119936440D01*
X76297400Y-119936440D01*
X76297400Y-119983560D01*
X76388942Y-120443775D01*
X76649633Y-120833927D01*
X77039785Y-121094618D01*
X77500000Y-121186160D01*
X77960215Y-121094618D01*
X78350367Y-120833927D01*
X78611058Y-120443775D01*
X78702600Y-119983560D01*
X78702600Y-119936440D01*
X78611058Y-119476225D01*
X78350367Y-119086073D01*
X78039000Y-118878024D01*
X78039000Y-116723262D01*
X78223261Y-116539000D01*
X103776738Y-116539000D01*
X104501000Y-117263261D01*
X104501000Y-118878024D01*
X104189633Y-119086073D01*
X103928942Y-119476225D01*
X103837400Y-119936440D01*
X103837400Y-119983560D01*
X103928942Y-120443775D01*
X104189633Y-120833927D01*
X104579785Y-121094618D01*
X104629706Y-121104548D01*
X104326330Y-121230198D01*
X103894723Y-121599966D01*
X103709241Y-121965372D01*
X103709241Y-121636400D01*
X103685603Y-121510774D01*
X103611358Y-121395395D01*
X103498074Y-121317991D01*
X103363600Y-121290759D01*
X101636400Y-121290759D01*
X101510774Y-121314397D01*
X101395395Y-121388642D01*
X101317991Y-121501926D01*
X101290759Y-121636400D01*
X101290759Y-123363600D01*
X101314397Y-123489226D01*
X101388642Y-123604605D01*
X101411000Y-123619882D01*
X101411000Y-129500000D01*
X101493895Y-129916743D01*
X101729961Y-130270039D01*
X103729961Y-132270039D01*
X104083257Y-132506105D01*
X104500000Y-132589000D01*
X114000000Y-132589000D01*
X114416743Y-132506105D01*
X114770039Y-132270039D01*
X115500000Y-131540079D01*
X116229960Y-132270039D01*
X116583257Y-132506105D01*
X116652399Y-132519858D01*
X117000000Y-132589000D01*
X124500000Y-132589000D01*
X124916743Y-132506105D01*
X125270039Y-132270039D01*
X128270040Y-129270039D01*
X128506105Y-128916742D01*
X128589000Y-128500000D01*
X128589000Y-123621400D01*
X128604605Y-123611358D01*
X128682009Y-123498074D01*
X128709241Y-123363600D01*
X128709241Y-123034628D01*
X128894723Y-123400034D01*
X129326330Y-123769802D01*
X129646757Y-123902514D01*
X129871000Y-123797389D01*
X129871000Y-122669000D01*
X130209000Y-122669000D01*
X130209000Y-123797389D01*
X130433243Y-123902514D01*
X130753670Y-123769802D01*
X131185277Y-123400034D01*
X131442526Y-122893245D01*
X131338526Y-122669000D01*
X130209000Y-122669000D01*
X129871000Y-122669000D01*
X129851000Y-122669000D01*
X129851000Y-122331000D01*
X129871000Y-122331000D01*
X129871000Y-122311000D01*
X130209000Y-122311000D01*
X130209000Y-122331000D01*
X131338526Y-122331000D01*
X131442526Y-122106755D01*
X131185277Y-121599966D01*
X130753670Y-121230198D01*
X130450294Y-121104548D01*
X130500215Y-121094618D01*
X130890367Y-120833927D01*
X131151058Y-120443775D01*
X131242600Y-119983560D01*
X131242600Y-119936440D01*
X131151058Y-119476225D01*
X130890367Y-119086073D01*
X130500215Y-118825382D01*
X130040000Y-118733840D01*
X129579785Y-118825382D01*
X129189633Y-119086073D01*
X128928942Y-119476225D01*
X128837400Y-119936440D01*
X128837400Y-119983560D01*
X128928942Y-120443775D01*
X129189633Y-120833927D01*
X129579785Y-121094618D01*
X129629706Y-121104548D01*
X129326330Y-121230198D01*
X128894723Y-121599966D01*
X128709241Y-121965372D01*
X128709241Y-121636400D01*
X128685603Y-121510774D01*
X128611358Y-121395395D01*
X128498074Y-121317991D01*
X128363600Y-121290759D01*
X126636400Y-121290759D01*
X126510774Y-121314397D01*
X126395395Y-121388642D01*
X126317991Y-121501926D01*
X126290759Y-121636400D01*
X126290759Y-123363600D01*
X126314397Y-123489226D01*
X126388642Y-123604605D01*
X126411000Y-123619882D01*
X126411000Y-128048921D01*
X124048922Y-130411000D01*
X117451079Y-130411000D01*
X116270039Y-129229961D01*
X115916743Y-128993895D01*
X115500000Y-128911000D01*
X115084071Y-128993733D01*
X115083257Y-128993895D01*
X114729960Y-129229961D01*
X113548922Y-130411000D01*
X104951078Y-130411000D01*
X103589000Y-129048922D01*
X103589000Y-123621400D01*
X103604605Y-123611358D01*
X103682009Y-123498074D01*
X103709241Y-123363600D01*
X103709241Y-123034628D01*
X103894723Y-123400034D01*
X104326330Y-123769802D01*
X104646757Y-123902514D01*
X104871000Y-123797389D01*
X104871000Y-122669000D01*
X105209000Y-122669000D01*
X105209000Y-123797389D01*
X105433243Y-123902514D01*
X105753670Y-123769802D01*
X106185277Y-123400034D01*
X106442526Y-122893245D01*
X106338526Y-122669000D01*
X105209000Y-122669000D01*
X104871000Y-122669000D01*
X104851000Y-122669000D01*
X104851000Y-122331000D01*
X104871000Y-122331000D01*
X104871000Y-122311000D01*
X105209000Y-122311000D01*
X105209000Y-122331000D01*
X106338526Y-122331000D01*
X106442526Y-122106755D01*
X106185277Y-121599966D01*
X105753670Y-121230198D01*
X105450294Y-121104548D01*
X105500215Y-121094618D01*
X105890367Y-120833927D01*
X106151058Y-120443775D01*
X106242600Y-119983560D01*
X106242600Y-119936440D01*
X106151058Y-119476225D01*
X105890367Y-119086073D01*
X105579000Y-118878024D01*
X105579000Y-117040005D01*
X105579001Y-117040000D01*
X105537971Y-116833733D01*
X105491171Y-116763693D01*
X105421131Y-116658869D01*
X105421128Y-116658867D01*
X104381131Y-115618869D01*
X104206267Y-115502029D01*
X104000000Y-115460999D01*
X103999995Y-115461000D01*
X78000005Y-115461000D01*
X78000000Y-115460999D01*
X77803934Y-115500000D01*
X77793734Y-115502029D01*
X77618869Y-115618869D01*
X77618867Y-115618872D01*
X77118869Y-116118869D01*
X77002029Y-116293733D01*
X76960999Y-116500000D01*
X76961000Y-116500005D01*
X76961000Y-118878024D01*
X76649633Y-119086073D01*
X76388942Y-119476225D01*
X76297400Y-119936440D01*
X71039000Y-119936440D01*
X71039000Y-116223262D01*
X72196420Y-115065841D01*
X72372337Y-115138889D01*
X72626547Y-115139111D01*
X72861492Y-115042034D01*
X73041402Y-114862437D01*
X73138889Y-114627663D01*
X73139111Y-114373453D01*
X73042034Y-114138508D01*
X72862437Y-113958598D01*
X72627663Y-113861111D01*
X72373453Y-113860889D01*
X72138508Y-113957966D01*
X72135469Y-113961000D01*
X72000000Y-113961000D01*
X71793733Y-114002029D01*
X71738402Y-114039000D01*
X71618869Y-114118869D01*
X71618867Y-114118872D01*
X70118869Y-115618869D01*
X70002029Y-115793733D01*
X69960999Y-116000000D01*
X69961000Y-116000005D01*
X69961000Y-120635165D01*
X69958598Y-120637563D01*
X69861111Y-120872337D01*
X69860889Y-121126547D01*
X66589000Y-121126547D01*
X66589000Y-111500000D01*
X66506105Y-111083258D01*
X66270039Y-110729961D01*
X65916742Y-110493895D01*
X65500000Y-110411000D01*
X65083258Y-110493895D01*
X64729961Y-110729961D01*
X64493895Y-111083258D01*
X64411000Y-111500000D01*
X47539000Y-111500000D01*
X47539000Y-109364835D01*
X47541402Y-109362437D01*
X47638889Y-109127663D01*
X47639111Y-108873453D01*
X47542034Y-108638508D01*
X47362437Y-108458598D01*
X47127663Y-108361111D01*
X46873453Y-108360889D01*
X46638508Y-108457966D01*
X46458598Y-108637563D01*
X46361111Y-108872337D01*
X46360889Y-109126547D01*
X45530094Y-109126547D01*
X45362437Y-108958598D01*
X45127663Y-108861111D01*
X44873453Y-108860889D01*
X44638508Y-108957966D01*
X44458598Y-109137563D01*
X44361111Y-109372337D01*
X44360889Y-109626547D01*
X44457966Y-109861492D01*
X44461000Y-109864531D01*
X44461000Y-113776739D01*
X41578869Y-116658869D01*
X41462029Y-116833733D01*
X41420999Y-117040000D01*
X41421000Y-117040005D01*
X41421000Y-118885842D01*
X41086073Y-119109633D01*
X40825382Y-119499785D01*
X40733840Y-119960000D01*
X40414000Y-119960000D01*
X40414000Y-96636400D01*
X51290759Y-96636400D01*
X51290759Y-98363600D01*
X51314397Y-98489226D01*
X51388642Y-98604605D01*
X51411000Y-98619882D01*
X51411000Y-103000000D01*
X51493895Y-103416743D01*
X51729961Y-103770039D01*
X53729961Y-105770039D01*
X54083257Y-106006105D01*
X54500000Y-106089000D01*
X63500000Y-106089000D01*
X63916743Y-106006105D01*
X64270039Y-105770039D01*
X65500000Y-104540078D01*
X66729961Y-105770039D01*
X67083257Y-106006105D01*
X67500000Y-106089000D01*
X75500000Y-106089000D01*
X75916743Y-106006105D01*
X76270039Y-105770039D01*
X78270039Y-103770039D01*
X78506105Y-103416743D01*
X78589000Y-103000000D01*
X78589000Y-99126547D01*
X84860889Y-99126547D01*
X84957966Y-99361492D01*
X84961000Y-99364531D01*
X84961000Y-112135165D01*
X84958598Y-112137563D01*
X84861111Y-112372337D01*
X84860889Y-112626547D01*
X84957966Y-112861492D01*
X85137563Y-113041402D01*
X85372337Y-113138889D01*
X85626547Y-113139111D01*
X85861492Y-113042034D01*
X86041402Y-112862437D01*
X86138889Y-112627663D01*
X86139111Y-112373453D01*
X86042034Y-112138508D01*
X86039000Y-112135469D01*
X86039000Y-111500000D01*
X114411000Y-111500000D01*
X114411000Y-125000000D01*
X114493895Y-125416742D01*
X114729961Y-125770039D01*
X115083258Y-126006105D01*
X115500000Y-126089000D01*
X115916742Y-126006105D01*
X116270039Y-125770039D01*
X116506105Y-125416742D01*
X116589000Y-125000000D01*
X116589000Y-111500000D01*
X116506105Y-111083258D01*
X116270039Y-110729961D01*
X115916742Y-110493895D01*
X115500000Y-110411000D01*
X115083258Y-110493895D01*
X114729961Y-110729961D01*
X114493895Y-111083258D01*
X114411000Y-111500000D01*
X86039000Y-111500000D01*
X86039000Y-99364835D01*
X86041402Y-99362437D01*
X86138889Y-99127663D01*
X86139111Y-98873453D01*
X86042034Y-98638508D01*
X85862437Y-98458598D01*
X85627663Y-98361111D01*
X85373453Y-98360889D01*
X85138508Y-98457966D01*
X84958598Y-98637563D01*
X84861111Y-98872337D01*
X84860889Y-99126547D01*
X78589000Y-99126547D01*
X78589000Y-98621400D01*
X78604605Y-98611358D01*
X78682009Y-98498074D01*
X78709241Y-98363600D01*
X78709241Y-98034628D01*
X78894723Y-98400034D01*
X79326330Y-98769802D01*
X79646757Y-98902514D01*
X79871000Y-98797389D01*
X79871000Y-97669000D01*
X80209000Y-97669000D01*
X80209000Y-98797389D01*
X80433243Y-98902514D01*
X80753670Y-98769802D01*
X81185277Y-98400034D01*
X81442526Y-97893245D01*
X81338526Y-97669000D01*
X80209000Y-97669000D01*
X79871000Y-97669000D01*
X79851000Y-97669000D01*
X79851000Y-97331000D01*
X79871000Y-97331000D01*
X79871000Y-97311000D01*
X80209000Y-97311000D01*
X80209000Y-97331000D01*
X81338526Y-97331000D01*
X81442526Y-97106755D01*
X81203772Y-96636400D01*
X101290759Y-96636400D01*
X101290759Y-98363600D01*
X101314397Y-98489226D01*
X101388642Y-98604605D01*
X101411000Y-98619882D01*
X101411000Y-105000000D01*
X101493895Y-105416743D01*
X101729961Y-105770039D01*
X103229960Y-107270039D01*
X103583257Y-107506105D01*
X103652399Y-107519858D01*
X104000000Y-107589000D01*
X112000000Y-107589000D01*
X112416743Y-107506105D01*
X112770039Y-107270039D01*
X115500000Y-104540079D01*
X118229960Y-107270039D01*
X118466026Y-107427773D01*
X118583258Y-107506105D01*
X119000000Y-107589000D01*
X125000000Y-107589000D01*
X125416743Y-107506105D01*
X125770039Y-107270039D01*
X128270039Y-104770039D01*
X128506105Y-104416743D01*
X128589000Y-104000000D01*
X128589000Y-98621400D01*
X128604605Y-98611358D01*
X128682009Y-98498074D01*
X128709241Y-98363600D01*
X128709241Y-98034628D01*
X128894723Y-98400034D01*
X129326330Y-98769802D01*
X129646757Y-98902514D01*
X129871000Y-98797389D01*
X129871000Y-97669000D01*
X130209000Y-97669000D01*
X130209000Y-98797389D01*
X130433243Y-98902514D01*
X130753670Y-98769802D01*
X131185277Y-98400034D01*
X131442526Y-97893245D01*
X131338526Y-97669000D01*
X130209000Y-97669000D01*
X129871000Y-97669000D01*
X129851000Y-97669000D01*
X129851000Y-97331000D01*
X129871000Y-97331000D01*
X129871000Y-97311000D01*
X130209000Y-97311000D01*
X130209000Y-97331000D01*
X131338526Y-97331000D01*
X131442526Y-97106755D01*
X131185277Y-96599966D01*
X130753670Y-96230198D01*
X130450294Y-96104548D01*
X130500215Y-96094618D01*
X130890367Y-95833927D01*
X131114158Y-95499000D01*
X132236738Y-95499000D01*
X132961000Y-96223261D01*
X132961000Y-115276739D01*
X132276738Y-115961000D01*
X128000005Y-115961000D01*
X128000000Y-115960999D01*
X127803934Y-116000000D01*
X127793734Y-116002029D01*
X127618869Y-116118869D01*
X127618867Y-116118872D01*
X127118869Y-116618869D01*
X127002029Y-116793733D01*
X126960999Y-117000000D01*
X126961000Y-117000005D01*
X126961000Y-118878024D01*
X126649633Y-119086073D01*
X126388942Y-119476225D01*
X126297400Y-119936440D01*
X126297400Y-119983560D01*
X126388942Y-120443775D01*
X126649633Y-120833927D01*
X127039785Y-121094618D01*
X127500000Y-121186160D01*
X127960215Y-121094618D01*
X128350367Y-120833927D01*
X128611058Y-120443775D01*
X128702600Y-119983560D01*
X128702600Y-119936440D01*
X128611058Y-119476225D01*
X128350367Y-119086073D01*
X128039000Y-118878024D01*
X128039000Y-117223262D01*
X128223261Y-117039000D01*
X132499995Y-117039000D01*
X132500000Y-117039001D01*
X132706267Y-116997971D01*
X132881131Y-116881131D01*
X133881128Y-115881133D01*
X133881131Y-115881131D01*
X133997971Y-115706266D01*
X134039001Y-115500000D01*
X134039000Y-115499995D01*
X134039000Y-96000005D01*
X134039001Y-96000000D01*
X133997971Y-95793733D01*
X133951171Y-95723693D01*
X133881131Y-95618869D01*
X133881128Y-95618867D01*
X132841131Y-94578869D01*
X132666267Y-94462029D01*
X132460000Y-94420999D01*
X132459995Y-94421000D01*
X131114158Y-94421000D01*
X130890367Y-94086073D01*
X130500215Y-93825382D01*
X130040000Y-93733840D01*
X129579785Y-93825382D01*
X129189633Y-94086073D01*
X128928942Y-94476225D01*
X128837400Y-94936440D01*
X128837400Y-94983560D01*
X128928942Y-95443775D01*
X129189633Y-95833927D01*
X129579785Y-96094618D01*
X129629706Y-96104548D01*
X129326330Y-96230198D01*
X128894723Y-96599966D01*
X128709241Y-96965372D01*
X128709241Y-96636400D01*
X128685603Y-96510774D01*
X128611358Y-96395395D01*
X128498074Y-96317991D01*
X128363600Y-96290759D01*
X126636400Y-96290759D01*
X126510774Y-96314397D01*
X126395395Y-96388642D01*
X126317991Y-96501926D01*
X126290759Y-96636400D01*
X126290759Y-98363600D01*
X126314397Y-98489226D01*
X126388642Y-98604605D01*
X126411000Y-98619882D01*
X126411000Y-103548922D01*
X124548922Y-105411000D01*
X119451079Y-105411000D01*
X116589000Y-102548922D01*
X116589000Y-94936440D01*
X126297400Y-94936440D01*
X126297400Y-94983560D01*
X126388942Y-95443775D01*
X126649633Y-95833927D01*
X127039785Y-96094618D01*
X127500000Y-96186160D01*
X127960215Y-96094618D01*
X128350367Y-95833927D01*
X128611058Y-95443775D01*
X128702600Y-94983560D01*
X128702600Y-94936440D01*
X128611058Y-94476225D01*
X128350367Y-94086073D01*
X127960215Y-93825382D01*
X127500000Y-93733840D01*
X127039785Y-93825382D01*
X126649633Y-94086073D01*
X126388942Y-94476225D01*
X126297400Y-94936440D01*
X116589000Y-94936440D01*
X116589000Y-88000000D01*
X116506105Y-87583258D01*
X116270039Y-87229961D01*
X115916742Y-86993895D01*
X115500000Y-86911000D01*
X115083258Y-86993895D01*
X114729961Y-87229961D01*
X114493895Y-87583258D01*
X114411000Y-88000000D01*
X114411000Y-102548921D01*
X111548922Y-105411000D01*
X104451079Y-105411000D01*
X103589000Y-104548922D01*
X103589000Y-98621400D01*
X103604605Y-98611358D01*
X103682009Y-98498074D01*
X103709241Y-98363600D01*
X103709241Y-98034628D01*
X103894723Y-98400034D01*
X104326330Y-98769802D01*
X104646757Y-98902514D01*
X104871000Y-98797389D01*
X104871000Y-97669000D01*
X105209000Y-97669000D01*
X105209000Y-98797389D01*
X105433243Y-98902514D01*
X105753670Y-98769802D01*
X106185277Y-98400034D01*
X106442526Y-97893245D01*
X106338526Y-97669000D01*
X105209000Y-97669000D01*
X104871000Y-97669000D01*
X104851000Y-97669000D01*
X104851000Y-97331000D01*
X104871000Y-97331000D01*
X104871000Y-97311000D01*
X105209000Y-97311000D01*
X105209000Y-97331000D01*
X106338526Y-97331000D01*
X106442526Y-97106755D01*
X106185277Y-96599966D01*
X105753670Y-96230198D01*
X105450294Y-96104548D01*
X105500215Y-96094618D01*
X105890367Y-95833927D01*
X106151058Y-95443775D01*
X106242600Y-94983560D01*
X106242600Y-94936440D01*
X106151058Y-94476225D01*
X105890367Y-94086073D01*
X105500215Y-93825382D01*
X105040000Y-93733840D01*
X104579785Y-93825382D01*
X104189633Y-94086073D01*
X103928942Y-94476225D01*
X103837400Y-94936440D01*
X103837400Y-94983560D01*
X103928942Y-95443775D01*
X104189633Y-95833927D01*
X104579785Y-96094618D01*
X104629706Y-96104548D01*
X104326330Y-96230198D01*
X103894723Y-96599966D01*
X103709241Y-96965372D01*
X103709241Y-96636400D01*
X103685603Y-96510774D01*
X103611358Y-96395395D01*
X103498074Y-96317991D01*
X103363600Y-96290759D01*
X101636400Y-96290759D01*
X101510774Y-96314397D01*
X101395395Y-96388642D01*
X101317991Y-96501926D01*
X101290759Y-96636400D01*
X81203772Y-96636400D01*
X81185277Y-96599966D01*
X80753670Y-96230198D01*
X80450294Y-96104548D01*
X80500215Y-96094618D01*
X80890367Y-95833927D01*
X81114158Y-95499000D01*
X101425842Y-95499000D01*
X101649633Y-95833927D01*
X102039785Y-96094618D01*
X102500000Y-96186160D01*
X102960215Y-96094618D01*
X103350367Y-95833927D01*
X103611058Y-95443775D01*
X103702600Y-94983560D01*
X103702600Y-94936440D01*
X103611058Y-94476225D01*
X103350367Y-94086073D01*
X102960215Y-93825382D01*
X102500000Y-93733840D01*
X102039785Y-93825382D01*
X101649633Y-94086073D01*
X101425842Y-94421000D01*
X81114158Y-94421000D01*
X80890367Y-94086073D01*
X80500215Y-93825382D01*
X80040000Y-93733840D01*
X79579785Y-93825382D01*
X79189633Y-94086073D01*
X78928942Y-94476225D01*
X78837400Y-94936440D01*
X78837400Y-94983560D01*
X78928942Y-95443775D01*
X79189633Y-95833927D01*
X79579785Y-96094618D01*
X79629706Y-96104548D01*
X79326330Y-96230198D01*
X78894723Y-96599966D01*
X78709241Y-96965372D01*
X78709241Y-96636400D01*
X78685603Y-96510774D01*
X78611358Y-96395395D01*
X78498074Y-96317991D01*
X78363600Y-96290759D01*
X76636400Y-96290759D01*
X76510774Y-96314397D01*
X76395395Y-96388642D01*
X76317991Y-96501926D01*
X76290759Y-96636400D01*
X76290759Y-98363600D01*
X76314397Y-98489226D01*
X76388642Y-98604605D01*
X76411000Y-98619882D01*
X76411000Y-102548922D01*
X75048922Y-103911000D01*
X67951078Y-103911000D01*
X66589000Y-102548922D01*
X66589000Y-94936440D01*
X76297400Y-94936440D01*
X76297400Y-94983560D01*
X76388942Y-95443775D01*
X76649633Y-95833927D01*
X77039785Y-96094618D01*
X77500000Y-96186160D01*
X77960215Y-96094618D01*
X78350367Y-95833927D01*
X78611058Y-95443775D01*
X78702600Y-94983560D01*
X78702600Y-94936440D01*
X78611058Y-94476225D01*
X78350367Y-94086073D01*
X77960215Y-93825382D01*
X77500000Y-93733840D01*
X77039785Y-93825382D01*
X76649633Y-94086073D01*
X76388942Y-94476225D01*
X76297400Y-94936440D01*
X66589000Y-94936440D01*
X66589000Y-87500000D01*
X66506105Y-87083258D01*
X66270039Y-86729961D01*
X65916742Y-86493895D01*
X65500000Y-86411000D01*
X65083258Y-86493895D01*
X64729961Y-86729961D01*
X64493895Y-87083258D01*
X64411000Y-87500000D01*
X64411000Y-102548922D01*
X63048922Y-103911000D01*
X54951078Y-103911000D01*
X53589000Y-102548922D01*
X53589000Y-98621400D01*
X53604605Y-98611358D01*
X53682009Y-98498074D01*
X53709241Y-98363600D01*
X53709241Y-98034628D01*
X53894723Y-98400034D01*
X54326330Y-98769802D01*
X54646757Y-98902514D01*
X54871000Y-98797389D01*
X54871000Y-97669000D01*
X55209000Y-97669000D01*
X55209000Y-98797389D01*
X55433243Y-98902514D01*
X55753670Y-98769802D01*
X56185277Y-98400034D01*
X56442526Y-97893245D01*
X56338526Y-97669000D01*
X55209000Y-97669000D01*
X54871000Y-97669000D01*
X54851000Y-97669000D01*
X54851000Y-97331000D01*
X54871000Y-97331000D01*
X54871000Y-97311000D01*
X55209000Y-97311000D01*
X55209000Y-97331000D01*
X56338526Y-97331000D01*
X56442526Y-97106755D01*
X56185277Y-96599966D01*
X55753670Y-96230198D01*
X55450294Y-96104548D01*
X55500215Y-96094618D01*
X55890367Y-95833927D01*
X56151058Y-95443775D01*
X56242600Y-94983560D01*
X56242600Y-94936440D01*
X56151058Y-94476225D01*
X55890367Y-94086073D01*
X55500215Y-93825382D01*
X55040000Y-93733840D01*
X54579785Y-93825382D01*
X54189633Y-94086073D01*
X53928942Y-94476225D01*
X53837400Y-94936440D01*
X53837400Y-94983560D01*
X53928942Y-95443775D01*
X54189633Y-95833927D01*
X54579785Y-96094618D01*
X54629706Y-96104548D01*
X54326330Y-96230198D01*
X53894723Y-96599966D01*
X53709241Y-96965372D01*
X53709241Y-96636400D01*
X53685603Y-96510774D01*
X53611358Y-96395395D01*
X53498074Y-96317991D01*
X53363600Y-96290759D01*
X51636400Y-96290759D01*
X51510774Y-96314397D01*
X51395395Y-96388642D01*
X51317991Y-96501926D01*
X51290759Y-96636400D01*
X40414000Y-96636400D01*
X40414000Y-68626547D01*
X44360889Y-68626547D01*
X44457966Y-68861492D01*
X44461000Y-68864531D01*
X44461000Y-86135165D01*
X44458598Y-86137563D01*
X44361111Y-86372337D01*
X44360889Y-86626547D01*
X44457966Y-86861492D01*
X44637563Y-87041402D01*
X44872337Y-87138889D01*
X45126547Y-87139111D01*
X45361492Y-87042034D01*
X45541402Y-86862437D01*
X45638889Y-86627663D01*
X45639111Y-86373453D01*
X45542034Y-86138508D01*
X45539000Y-86135469D01*
X45539000Y-68864835D01*
X45541402Y-68862437D01*
X45638889Y-68627663D01*
X45639111Y-68373453D01*
X45542034Y-68138508D01*
X45362437Y-67958598D01*
X45127663Y-67861111D01*
X44873453Y-67860889D01*
X44638508Y-67957966D01*
X44458598Y-68137563D01*
X44361111Y-68372337D01*
X44360889Y-68626547D01*
X40414000Y-68626547D01*
X40414000Y-67126547D01*
X46360889Y-67126547D01*
X46457966Y-67361492D01*
X46461000Y-67364531D01*
X46461000Y-83635165D01*
X46458598Y-83637563D01*
X46361111Y-83872337D01*
X46360889Y-84126547D01*
X46457966Y-84361492D01*
X46637563Y-84541402D01*
X46872337Y-84638889D01*
X47126547Y-84639111D01*
X47361492Y-84542034D01*
X47541402Y-84362437D01*
X47638889Y-84127663D01*
X47639111Y-83873453D01*
X47542034Y-83638508D01*
X47539000Y-83635469D01*
X47539000Y-71636400D01*
X51290759Y-71636400D01*
X51290759Y-73363600D01*
X51314397Y-73489226D01*
X51388642Y-73604605D01*
X51501926Y-73682009D01*
X51636400Y-73709241D01*
X53363600Y-73709241D01*
X53489226Y-73685603D01*
X53604605Y-73611358D01*
X53682009Y-73498074D01*
X53709241Y-73363600D01*
X53709241Y-73034628D01*
X53894723Y-73400034D01*
X54326330Y-73769802D01*
X54646757Y-73902514D01*
X54871000Y-73797389D01*
X54871000Y-72669000D01*
X55209000Y-72669000D01*
X55209000Y-73797389D01*
X55433243Y-73902514D01*
X55753670Y-73769802D01*
X56185277Y-73400034D01*
X56442526Y-72893245D01*
X56338526Y-72669000D01*
X55209000Y-72669000D01*
X54871000Y-72669000D01*
X54851000Y-72669000D01*
X54851000Y-72331000D01*
X54871000Y-72331000D01*
X54871000Y-72311000D01*
X55209000Y-72311000D01*
X55209000Y-72331000D01*
X56338526Y-72331000D01*
X56442526Y-72106755D01*
X56185277Y-71599966D01*
X55753670Y-71230198D01*
X55450294Y-71104548D01*
X55500215Y-71094618D01*
X55890367Y-70833927D01*
X56114158Y-70499000D01*
X57236738Y-70499000D01*
X57961000Y-71223261D01*
X57961000Y-91776739D01*
X57276738Y-92461000D01*
X53000005Y-92461000D01*
X53000000Y-92460999D01*
X52793734Y-92502029D01*
X52618869Y-92618869D01*
X52618867Y-92618872D01*
X52118869Y-93118869D01*
X52002029Y-93293733D01*
X51960999Y-93500000D01*
X51961000Y-93500005D01*
X51961000Y-93878024D01*
X51649633Y-94086073D01*
X51388942Y-94476225D01*
X51297400Y-94936440D01*
X51297400Y-94983560D01*
X51388942Y-95443775D01*
X51649633Y-95833927D01*
X52039785Y-96094618D01*
X52500000Y-96186160D01*
X52960215Y-96094618D01*
X53350367Y-95833927D01*
X53611058Y-95443775D01*
X53702600Y-94983560D01*
X53702600Y-94936440D01*
X53611058Y-94476225D01*
X53350367Y-94086073D01*
X53039000Y-93878024D01*
X53039000Y-93723262D01*
X53223261Y-93539000D01*
X57499995Y-93539000D01*
X57500000Y-93539001D01*
X57706267Y-93497971D01*
X57881131Y-93381131D01*
X58881128Y-92381133D01*
X58881131Y-92381131D01*
X58997971Y-92206266D01*
X59039001Y-92000000D01*
X59039000Y-91999995D01*
X59039000Y-71000005D01*
X59039001Y-71000000D01*
X58997971Y-70793733D01*
X58951171Y-70723693D01*
X58881131Y-70618869D01*
X58881128Y-70618867D01*
X57841131Y-69578869D01*
X57666267Y-69462029D01*
X57460000Y-69420999D01*
X57459995Y-69421000D01*
X56114158Y-69421000D01*
X55890367Y-69086073D01*
X55500215Y-68825382D01*
X55040000Y-68733840D01*
X54579785Y-68825382D01*
X54189633Y-69086073D01*
X53928942Y-69476225D01*
X53837400Y-69936440D01*
X53837400Y-69983560D01*
X53928942Y-70443775D01*
X54189633Y-70833927D01*
X54579785Y-71094618D01*
X54629706Y-71104548D01*
X54326330Y-71230198D01*
X53894723Y-71599966D01*
X53709241Y-71965372D01*
X53709241Y-71636400D01*
X53685603Y-71510774D01*
X53611358Y-71395395D01*
X53498074Y-71317991D01*
X53363600Y-71290759D01*
X51636400Y-71290759D01*
X51510774Y-71314397D01*
X51395395Y-71388642D01*
X51317991Y-71501926D01*
X51290759Y-71636400D01*
X47539000Y-71636400D01*
X47539000Y-69936440D01*
X51297400Y-69936440D01*
X51297400Y-69983560D01*
X51388942Y-70443775D01*
X51649633Y-70833927D01*
X52039785Y-71094618D01*
X52500000Y-71186160D01*
X52960215Y-71094618D01*
X53350367Y-70833927D01*
X53611058Y-70443775D01*
X53702600Y-69983560D01*
X53702600Y-69936440D01*
X53611058Y-69476225D01*
X53350367Y-69086073D01*
X52960215Y-68825382D01*
X52500000Y-68733840D01*
X52039785Y-68825382D01*
X51649633Y-69086073D01*
X51388942Y-69476225D01*
X51297400Y-69936440D01*
X47539000Y-69936440D01*
X47539000Y-67364835D01*
X47541402Y-67362437D01*
X47638889Y-67127663D01*
X47639111Y-66873453D01*
X47542034Y-66638508D01*
X47362437Y-66458598D01*
X47127663Y-66361111D01*
X46873453Y-66360889D01*
X46638508Y-66457966D01*
X46458598Y-66637563D01*
X46361111Y-66872337D01*
X46360889Y-67126547D01*
X40414000Y-67126547D01*
X40414000Y-64016250D01*
X48857340Y-64016250D01*
X48857340Y-65567015D01*
X48947619Y-65784968D01*
X49114433Y-65951781D01*
X49332385Y-66042060D01*
X50883150Y-66042060D01*
X51031400Y-65893810D01*
X51031400Y-63868000D01*
X51369400Y-63868000D01*
X51369400Y-65893810D01*
X51517650Y-66042060D01*
X53068415Y-66042060D01*
X53286367Y-65951781D01*
X53453181Y-65784968D01*
X53543460Y-65567015D01*
X53543460Y-64016250D01*
X53395210Y-63868000D01*
X51369400Y-63868000D01*
X51031400Y-63868000D01*
X49005590Y-63868000D01*
X48857340Y-64016250D01*
X40414000Y-64016250D01*
X40414000Y-61830985D01*
X48857340Y-61830985D01*
X48857340Y-63381750D01*
X49005590Y-63530000D01*
X51031400Y-63530000D01*
X51031400Y-61504190D01*
X51369400Y-61504190D01*
X51369400Y-63530000D01*
X53395210Y-63530000D01*
X53543460Y-63381750D01*
X53543460Y-61830985D01*
X53453181Y-61613032D01*
X53286367Y-61446219D01*
X53068415Y-61355940D01*
X51517650Y-61355940D01*
X51369400Y-61504190D01*
X51031400Y-61504190D01*
X50883150Y-61355940D01*
X49332385Y-61355940D01*
X49114433Y-61446219D01*
X48947619Y-61613032D01*
X48857340Y-61830985D01*
X40414000Y-61830985D01*
X40414000Y-59126547D01*
X42860889Y-59126547D01*
X42957966Y-59361492D01*
X43137563Y-59541402D01*
X43372337Y-59638889D01*
X43626547Y-59639111D01*
X43861492Y-59542034D01*
X44041402Y-59362437D01*
X44060165Y-59317250D01*
X45857600Y-59317250D01*
X45857600Y-60868015D01*
X45947879Y-61085968D01*
X46114693Y-61252781D01*
X46332645Y-61343060D01*
X47883410Y-61343060D01*
X48031660Y-61194810D01*
X48031660Y-59169000D01*
X48369660Y-59169000D01*
X48369660Y-61194810D01*
X48517910Y-61343060D01*
X50068675Y-61343060D01*
X50286627Y-61252781D01*
X50453441Y-61085968D01*
X50543720Y-60868015D01*
X50543720Y-59317250D01*
X50395470Y-59169000D01*
X48369660Y-59169000D01*
X48031660Y-59169000D01*
X46005850Y-59169000D01*
X45857600Y-59317250D01*
X44060165Y-59317250D01*
X44138889Y-59127663D01*
X44139111Y-58873453D01*
X44042034Y-58638508D01*
X44039000Y-58635469D01*
X44039000Y-57626547D01*
X44360889Y-57626547D01*
X44457966Y-57861492D01*
X44637563Y-58041402D01*
X44872337Y-58138889D01*
X45126547Y-58139111D01*
X45361492Y-58042034D01*
X45541402Y-57862437D01*
X45638889Y-57627663D01*
X45639111Y-57373453D01*
X45542034Y-57138508D01*
X45539000Y-57135469D01*
X45539000Y-57131985D01*
X45857600Y-57131985D01*
X45857600Y-58682750D01*
X46005850Y-58831000D01*
X48031660Y-58831000D01*
X48031660Y-56805190D01*
X48369660Y-56805190D01*
X48369660Y-58831000D01*
X50395470Y-58831000D01*
X50543720Y-58682750D01*
X50543720Y-57249940D01*
X52104439Y-57249940D01*
X52104439Y-60750060D01*
X52128077Y-60875686D01*
X52202322Y-60991065D01*
X52315606Y-61068469D01*
X52450080Y-61095701D01*
X55950200Y-61095701D01*
X56075826Y-61072063D01*
X56191205Y-60997818D01*
X56268609Y-60884534D01*
X56295841Y-60750060D01*
X56295841Y-60089000D01*
X62048922Y-60089000D01*
X64411000Y-62451079D01*
X64411000Y-77500000D01*
X64493895Y-77916743D01*
X64729961Y-78270039D01*
X66229960Y-79770039D01*
X66583257Y-80006105D01*
X66652399Y-80019858D01*
X67000000Y-80089000D01*
X76000000Y-80089000D01*
X76416743Y-80006105D01*
X76770039Y-79770039D01*
X78270039Y-78270040D01*
X78506105Y-77916743D01*
X78551684Y-77687598D01*
X78589000Y-77500000D01*
X78589000Y-73621400D01*
X78604605Y-73611358D01*
X78682009Y-73498074D01*
X78709241Y-73363600D01*
X78709241Y-73034628D01*
X78894723Y-73400034D01*
X79326330Y-73769802D01*
X79646757Y-73902514D01*
X79871000Y-73797389D01*
X79871000Y-72669000D01*
X80209000Y-72669000D01*
X80209000Y-73797389D01*
X80433243Y-73902514D01*
X80753670Y-73769802D01*
X81185277Y-73400034D01*
X81442526Y-72893245D01*
X81338526Y-72669000D01*
X80209000Y-72669000D01*
X79871000Y-72669000D01*
X79851000Y-72669000D01*
X79851000Y-72626547D01*
X84860889Y-72626547D01*
X84957966Y-72861492D01*
X84961000Y-72864531D01*
X84961000Y-92635165D01*
X84958598Y-92637563D01*
X84861111Y-92872337D01*
X84860889Y-93126547D01*
X84957966Y-93361492D01*
X85137563Y-93541402D01*
X85372337Y-93638889D01*
X85626547Y-93639111D01*
X85861492Y-93542034D01*
X86041402Y-93362437D01*
X86138889Y-93127663D01*
X86139111Y-92873453D01*
X86042034Y-92638508D01*
X86039000Y-92635469D01*
X86039000Y-72864835D01*
X86041402Y-72862437D01*
X86138889Y-72627663D01*
X86139111Y-72373453D01*
X86042034Y-72138508D01*
X85862437Y-71958598D01*
X85627663Y-71861111D01*
X85373453Y-71860889D01*
X85138508Y-71957966D01*
X84958598Y-72137563D01*
X84861111Y-72372337D01*
X84860889Y-72626547D01*
X79851000Y-72626547D01*
X79851000Y-72331000D01*
X79871000Y-72331000D01*
X79871000Y-72311000D01*
X80209000Y-72311000D01*
X80209000Y-72331000D01*
X81338526Y-72331000D01*
X81442526Y-72106755D01*
X81185277Y-71599966D01*
X80753670Y-71230198D01*
X80450294Y-71104548D01*
X80500215Y-71094618D01*
X80890367Y-70833927D01*
X81151058Y-70443775D01*
X81242600Y-69983560D01*
X81242600Y-69936440D01*
X101297400Y-69936440D01*
X101297400Y-69983560D01*
X101388942Y-70443775D01*
X101649633Y-70833927D01*
X102039785Y-71094618D01*
X102500000Y-71186160D01*
X102960215Y-71094618D01*
X103350367Y-70833927D01*
X103611058Y-70443775D01*
X103702600Y-69983560D01*
X103702600Y-69936440D01*
X103611058Y-69476225D01*
X103350367Y-69086073D01*
X102960215Y-68825382D01*
X102500000Y-68733840D01*
X102039785Y-68825382D01*
X101649633Y-69086073D01*
X101388942Y-69476225D01*
X101297400Y-69936440D01*
X81242600Y-69936440D01*
X81151058Y-69476225D01*
X80890367Y-69086073D01*
X80500215Y-68825382D01*
X80040000Y-68733840D01*
X79579785Y-68825382D01*
X79189633Y-69086073D01*
X78928942Y-69476225D01*
X78837400Y-69936440D01*
X78837400Y-69983560D01*
X78928942Y-70443775D01*
X79189633Y-70833927D01*
X79579785Y-71094618D01*
X79629706Y-71104548D01*
X79326330Y-71230198D01*
X78894723Y-71599966D01*
X78709241Y-71965372D01*
X78709241Y-71636400D01*
X78685603Y-71510774D01*
X78611358Y-71395395D01*
X78498074Y-71317991D01*
X78363600Y-71290759D01*
X76636400Y-71290759D01*
X76510774Y-71314397D01*
X76395395Y-71388642D01*
X76317991Y-71501926D01*
X76290759Y-71636400D01*
X76290759Y-73363600D01*
X76314397Y-73489226D01*
X76388642Y-73604605D01*
X76411000Y-73619882D01*
X76411000Y-77048921D01*
X75548922Y-77911000D01*
X67451079Y-77911000D01*
X66589000Y-77048922D01*
X66589000Y-69936440D01*
X76297400Y-69936440D01*
X76297400Y-69983560D01*
X76388942Y-70443775D01*
X76649633Y-70833927D01*
X77039785Y-71094618D01*
X77500000Y-71186160D01*
X77960215Y-71094618D01*
X78350367Y-70833927D01*
X78611058Y-70443775D01*
X78702600Y-69983560D01*
X78702600Y-69936440D01*
X78611058Y-69476225D01*
X78350367Y-69086073D01*
X78039000Y-68878024D01*
X78039000Y-66723262D01*
X78723261Y-66039000D01*
X103776738Y-66039000D01*
X104501000Y-66763261D01*
X104501000Y-68878024D01*
X104189633Y-69086073D01*
X103928942Y-69476225D01*
X103837400Y-69936440D01*
X103837400Y-69983560D01*
X103928942Y-70443775D01*
X104189633Y-70833927D01*
X104579785Y-71094618D01*
X104629706Y-71104548D01*
X104326330Y-71230198D01*
X103894723Y-71599966D01*
X103709241Y-71965372D01*
X103709241Y-71636400D01*
X103685603Y-71510774D01*
X103611358Y-71395395D01*
X103498074Y-71317991D01*
X103363600Y-71290759D01*
X101636400Y-71290759D01*
X101510774Y-71314397D01*
X101395395Y-71388642D01*
X101317991Y-71501926D01*
X101290759Y-71636400D01*
X101290759Y-73363600D01*
X101314397Y-73489226D01*
X101388642Y-73604605D01*
X101411000Y-73619882D01*
X101411000Y-78000000D01*
X101493895Y-78416743D01*
X101729961Y-78770039D01*
X103229960Y-80270039D01*
X103583257Y-80506105D01*
X103652399Y-80519858D01*
X104000000Y-80589000D01*
X113500000Y-80589000D01*
X113916743Y-80506105D01*
X114270039Y-80270039D01*
X115500000Y-79040078D01*
X116729961Y-80270039D01*
X117083257Y-80506105D01*
X117500000Y-80589000D01*
X125500000Y-80589000D01*
X125916743Y-80506105D01*
X126270039Y-80270039D01*
X128270039Y-78270039D01*
X128506105Y-77916743D01*
X128589000Y-77500000D01*
X128589000Y-73621400D01*
X128604605Y-73611358D01*
X128682009Y-73498074D01*
X128709241Y-73363600D01*
X128709241Y-73034628D01*
X128894723Y-73400034D01*
X129326330Y-73769802D01*
X129646757Y-73902514D01*
X129871000Y-73797389D01*
X129871000Y-72669000D01*
X130209000Y-72669000D01*
X130209000Y-73797389D01*
X130433243Y-73902514D01*
X130753670Y-73769802D01*
X131185277Y-73400034D01*
X131442526Y-72893245D01*
X131338526Y-72669000D01*
X130209000Y-72669000D01*
X129871000Y-72669000D01*
X129851000Y-72669000D01*
X129851000Y-72331000D01*
X129871000Y-72331000D01*
X129871000Y-72311000D01*
X130209000Y-72311000D01*
X130209000Y-72331000D01*
X131338526Y-72331000D01*
X131442526Y-72106755D01*
X131185277Y-71599966D01*
X130753670Y-71230198D01*
X130450294Y-71104548D01*
X130500215Y-71094618D01*
X130890367Y-70833927D01*
X131151058Y-70443775D01*
X131242600Y-69983560D01*
X131242600Y-69936440D01*
X131151058Y-69476225D01*
X130890367Y-69086073D01*
X130500215Y-68825382D01*
X130040000Y-68733840D01*
X129579785Y-68825382D01*
X129189633Y-69086073D01*
X128928942Y-69476225D01*
X128837400Y-69936440D01*
X128837400Y-69983560D01*
X128928942Y-70443775D01*
X129189633Y-70833927D01*
X129579785Y-71094618D01*
X129629706Y-71104548D01*
X129326330Y-71230198D01*
X128894723Y-71599966D01*
X128709241Y-71965372D01*
X128709241Y-71636400D01*
X128685603Y-71510774D01*
X128611358Y-71395395D01*
X128498074Y-71317991D01*
X128363600Y-71290759D01*
X126636400Y-71290759D01*
X126510774Y-71314397D01*
X126395395Y-71388642D01*
X126317991Y-71501926D01*
X126290759Y-71636400D01*
X126290759Y-73363600D01*
X126314397Y-73489226D01*
X126388642Y-73604605D01*
X126411000Y-73619882D01*
X126411000Y-77048922D01*
X125048922Y-78411000D01*
X117951078Y-78411000D01*
X116589000Y-77048922D01*
X116589000Y-64000000D01*
X116506105Y-63583258D01*
X116270039Y-63229961D01*
X111270039Y-58229961D01*
X110916743Y-57993895D01*
X110500000Y-57911000D01*
X90000000Y-57911000D01*
X89583258Y-57993895D01*
X89229961Y-58229961D01*
X88993895Y-58583258D01*
X88911000Y-59000000D01*
X88993895Y-59416742D01*
X89229961Y-59770039D01*
X89583258Y-60006105D01*
X90000000Y-60089000D01*
X110048922Y-60089000D01*
X114411000Y-64451078D01*
X114411000Y-77048922D01*
X113048922Y-78411000D01*
X104451079Y-78411000D01*
X103589000Y-77548922D01*
X103589000Y-73621400D01*
X103604605Y-73611358D01*
X103682009Y-73498074D01*
X103709241Y-73363600D01*
X103709241Y-73034628D01*
X103894723Y-73400034D01*
X104326330Y-73769802D01*
X104646757Y-73902514D01*
X104871000Y-73797389D01*
X104871000Y-72669000D01*
X105209000Y-72669000D01*
X105209000Y-73797389D01*
X105433243Y-73902514D01*
X105753670Y-73769802D01*
X106185277Y-73400034D01*
X106442526Y-72893245D01*
X106338526Y-72669000D01*
X105209000Y-72669000D01*
X104871000Y-72669000D01*
X104851000Y-72669000D01*
X104851000Y-72331000D01*
X104871000Y-72331000D01*
X104871000Y-72311000D01*
X105209000Y-72311000D01*
X105209000Y-72331000D01*
X106338526Y-72331000D01*
X106442526Y-72106755D01*
X106185277Y-71599966D01*
X105753670Y-71230198D01*
X105450294Y-71104548D01*
X105500215Y-71094618D01*
X105890367Y-70833927D01*
X106151058Y-70443775D01*
X106242600Y-69983560D01*
X106242600Y-69936440D01*
X106151058Y-69476225D01*
X105890367Y-69086073D01*
X105579000Y-68878024D01*
X105579000Y-66540005D01*
X105579001Y-66540000D01*
X105537971Y-66333733D01*
X105491171Y-66263693D01*
X105421131Y-66158869D01*
X105421128Y-66158867D01*
X104381131Y-65118869D01*
X104206267Y-65002029D01*
X104000000Y-64960999D01*
X103999995Y-64961000D01*
X78500005Y-64961000D01*
X78500000Y-64960999D01*
X78303934Y-65000000D01*
X78293734Y-65002029D01*
X78118869Y-65118869D01*
X78118867Y-65118872D01*
X77118869Y-66118869D01*
X77002029Y-66293733D01*
X76960999Y-66500000D01*
X76961000Y-66500005D01*
X76961000Y-68878024D01*
X76649633Y-69086073D01*
X76388942Y-69476225D01*
X76297400Y-69936440D01*
X66589000Y-69936440D01*
X66589000Y-62451078D01*
X68951079Y-60089000D01*
X72500000Y-60089000D01*
X72916742Y-60006105D01*
X73270039Y-59770039D01*
X73506105Y-59416742D01*
X73589000Y-59000000D01*
X73506105Y-58583258D01*
X73270039Y-58229961D01*
X72916742Y-57993895D01*
X72500000Y-57911000D01*
X68500000Y-57911000D01*
X68083258Y-57993895D01*
X67729961Y-58229960D01*
X65500000Y-60459922D01*
X63270039Y-58229961D01*
X62916743Y-57993895D01*
X62500000Y-57911000D01*
X56295841Y-57911000D01*
X56295841Y-57249940D01*
X56272203Y-57124314D01*
X56197958Y-57008935D01*
X56084674Y-56931531D01*
X55950200Y-56904299D01*
X52450080Y-56904299D01*
X52324454Y-56927937D01*
X52209075Y-57002182D01*
X52131671Y-57115466D01*
X52104439Y-57249940D01*
X50543720Y-57249940D01*
X50543720Y-57131985D01*
X50453441Y-56914032D01*
X50286627Y-56747219D01*
X50068675Y-56656940D01*
X48517910Y-56656940D01*
X48369660Y-56805190D01*
X48031660Y-56805190D01*
X47883410Y-56656940D01*
X46332645Y-56656940D01*
X46114693Y-56747219D01*
X45947879Y-56914032D01*
X45857600Y-57131985D01*
X45539000Y-57131985D01*
X45539000Y-55723262D01*
X45723261Y-55539000D01*
X48635165Y-55539000D01*
X48637563Y-55541402D01*
X48872337Y-55638889D01*
X49126547Y-55639111D01*
X49361492Y-55542034D01*
X49541402Y-55362437D01*
X49638889Y-55127663D01*
X49639111Y-54873453D01*
X49542034Y-54638508D01*
X49362437Y-54458598D01*
X49127663Y-54361111D01*
X48873453Y-54360889D01*
X48638508Y-54457966D01*
X48635469Y-54461000D01*
X45500005Y-54461000D01*
X45500000Y-54460999D01*
X45293734Y-54502029D01*
X45118869Y-54618869D01*
X45118867Y-54618872D01*
X44618869Y-55118869D01*
X44502029Y-55293733D01*
X44460999Y-55500000D01*
X44461000Y-55500005D01*
X44461000Y-57135165D01*
X44458598Y-57137563D01*
X44361111Y-57372337D01*
X44360889Y-57626547D01*
X44039000Y-57626547D01*
X44039000Y-55223262D01*
X45223261Y-54039000D01*
X50135165Y-54039000D01*
X50137563Y-54041402D01*
X50372337Y-54138889D01*
X50626547Y-54139111D01*
X50861492Y-54042034D01*
X51041402Y-53862437D01*
X51138889Y-53627663D01*
X51139111Y-53373453D01*
X51042034Y-53138508D01*
X50862437Y-52958598D01*
X50627663Y-52861111D01*
X50373453Y-52860889D01*
X50138508Y-52957966D01*
X50135469Y-52961000D01*
X45000000Y-52961000D01*
X44793733Y-53002029D01*
X44750067Y-53031206D01*
X44618869Y-53118869D01*
X44618867Y-53118872D01*
X43118869Y-54618869D01*
X43002029Y-54793733D01*
X42960999Y-55000000D01*
X42961000Y-55000005D01*
X42961000Y-58635165D01*
X42958598Y-58637563D01*
X42861111Y-58872337D01*
X42860889Y-59126547D01*
X40414000Y-59126547D01*
X40414000Y-47893243D01*
X40557486Y-47893243D01*
X40690198Y-48213670D01*
X41059966Y-48645277D01*
X41566755Y-48902526D01*
X41791000Y-48798526D01*
X41791000Y-47669000D01*
X40662611Y-47669000D01*
X40557486Y-47893243D01*
X40414000Y-47893243D01*
X40414000Y-45353243D01*
X40557486Y-45353243D01*
X40690198Y-45673670D01*
X41059966Y-46105277D01*
X41305674Y-46230000D01*
X41059966Y-46354723D01*
X40690198Y-46786330D01*
X40557486Y-47106757D01*
X40662611Y-47331000D01*
X41791000Y-47331000D01*
X41791000Y-45129000D01*
X40662611Y-45129000D01*
X40557486Y-45353243D01*
X40414000Y-45353243D01*
X40414000Y-44566757D01*
X40557486Y-44566757D01*
X40662611Y-44791000D01*
X41791000Y-44791000D01*
X41791000Y-43661474D01*
X42129000Y-43661474D01*
X42129000Y-44791000D01*
X42149000Y-44791000D01*
X42149000Y-45129000D01*
X42129000Y-45129000D01*
X42129000Y-47331000D01*
X42149000Y-47331000D01*
X42149000Y-47669000D01*
X42129000Y-47669000D01*
X42129000Y-48798526D01*
X42353245Y-48902526D01*
X42860034Y-48645277D01*
X43229802Y-48213670D01*
X43290759Y-48066492D01*
X43290759Y-48363600D01*
X43314397Y-48489226D01*
X43388642Y-48604605D01*
X43501926Y-48682009D01*
X43636400Y-48709241D01*
X45363600Y-48709241D01*
X45489226Y-48685603D01*
X45604605Y-48611358D01*
X45682009Y-48498074D01*
X45709241Y-48363600D01*
X45709241Y-46636400D01*
X51290759Y-46636400D01*
X51290759Y-48363600D01*
X51314397Y-48489226D01*
X51388642Y-48604605D01*
X51411000Y-48619882D01*
X51411000Y-50000000D01*
X51493895Y-50416743D01*
X51729961Y-50770039D01*
X52729961Y-51770040D01*
X53083258Y-52006105D01*
X53500000Y-52089000D01*
X63548922Y-52089000D01*
X64729960Y-53270039D01*
X65074120Y-53500000D01*
X65083257Y-53506105D01*
X65500000Y-53589000D01*
X65916743Y-53506105D01*
X66270039Y-53270039D01*
X67451079Y-52089000D01*
X76000000Y-52089000D01*
X76416743Y-52006105D01*
X76770039Y-51770039D01*
X78270039Y-50270040D01*
X78506105Y-49916743D01*
X78561373Y-49638889D01*
X78589000Y-49500000D01*
X78589000Y-48621400D01*
X78604605Y-48611358D01*
X78682009Y-48498074D01*
X78709241Y-48363600D01*
X78709241Y-48034628D01*
X78894723Y-48400034D01*
X79326330Y-48769802D01*
X79646757Y-48902514D01*
X79871000Y-48797389D01*
X79871000Y-47669000D01*
X80209000Y-47669000D01*
X80209000Y-48797389D01*
X80433243Y-48902514D01*
X80753670Y-48769802D01*
X80920882Y-48626547D01*
X84860889Y-48626547D01*
X84957966Y-48861492D01*
X84961000Y-48864531D01*
X84961000Y-62135165D01*
X84958598Y-62137563D01*
X84861111Y-62372337D01*
X84860889Y-62626547D01*
X84957966Y-62861492D01*
X85137563Y-63041402D01*
X85372337Y-63138889D01*
X85626547Y-63139111D01*
X85861492Y-63042034D01*
X86041402Y-62862437D01*
X86138889Y-62627663D01*
X86139111Y-62373453D01*
X86042034Y-62138508D01*
X86039000Y-62135469D01*
X86039000Y-55626547D01*
X111860889Y-55626547D01*
X111957966Y-55861492D01*
X112137563Y-56041402D01*
X112372337Y-56138889D01*
X112376631Y-56138893D01*
X112618867Y-56381128D01*
X112618869Y-56381131D01*
X112793734Y-56497971D01*
X113000000Y-56539001D01*
X113000005Y-56539000D01*
X129635165Y-56539000D01*
X129637563Y-56541402D01*
X129872337Y-56638889D01*
X130126547Y-56639111D01*
X130361492Y-56542034D01*
X130541402Y-56362437D01*
X130638889Y-56127663D01*
X130639111Y-55873453D01*
X130542034Y-55638508D01*
X130362437Y-55458598D01*
X130127663Y-55361111D01*
X129873453Y-55360889D01*
X129638508Y-55457966D01*
X129635469Y-55461000D01*
X113223261Y-55461000D01*
X113139108Y-55376847D01*
X113139111Y-55373453D01*
X113042034Y-55138508D01*
X112862437Y-54958598D01*
X112627663Y-54861111D01*
X112373453Y-54860889D01*
X112138508Y-54957966D01*
X111958598Y-55137563D01*
X111861111Y-55372337D01*
X111860889Y-55626547D01*
X86039000Y-55626547D01*
X86039000Y-48864835D01*
X86041402Y-48862437D01*
X86138889Y-48627663D01*
X86139111Y-48373453D01*
X86042034Y-48138508D01*
X85862437Y-47958598D01*
X85627663Y-47861111D01*
X85373453Y-47860889D01*
X85138508Y-47957966D01*
X84958598Y-48137563D01*
X84861111Y-48372337D01*
X84860889Y-48626547D01*
X80920882Y-48626547D01*
X81185277Y-48400034D01*
X81442526Y-47893245D01*
X81338526Y-47669000D01*
X80209000Y-47669000D01*
X79871000Y-47669000D01*
X79851000Y-47669000D01*
X79851000Y-47331000D01*
X79871000Y-47331000D01*
X79871000Y-47311000D01*
X80209000Y-47311000D01*
X80209000Y-47331000D01*
X81338526Y-47331000D01*
X81442526Y-47106755D01*
X81203772Y-46636400D01*
X101290759Y-46636400D01*
X101290759Y-48363600D01*
X101314397Y-48489226D01*
X101388642Y-48604605D01*
X101411000Y-48619882D01*
X101411000Y-50500000D01*
X101493895Y-50916743D01*
X101729961Y-51270039D01*
X102729961Y-52270040D01*
X103025339Y-52467405D01*
X103083258Y-52506105D01*
X103500000Y-52589000D01*
X113548922Y-52589000D01*
X114729960Y-53770039D01*
X115071084Y-53997971D01*
X115083257Y-54006105D01*
X115500000Y-54089000D01*
X115916743Y-54006105D01*
X116270039Y-53770039D01*
X117451079Y-52589000D01*
X126500000Y-52589000D01*
X126916743Y-52506105D01*
X127270039Y-52270039D01*
X128270040Y-51270039D01*
X128506105Y-50916742D01*
X128589000Y-50500000D01*
X128589000Y-48621400D01*
X128604605Y-48611358D01*
X128682009Y-48498074D01*
X128709241Y-48363600D01*
X128709241Y-48034628D01*
X128894723Y-48400034D01*
X129326330Y-48769802D01*
X129646757Y-48902514D01*
X129871000Y-48797389D01*
X129871000Y-47669000D01*
X130209000Y-47669000D01*
X130209000Y-48797389D01*
X130433243Y-48902514D01*
X130753670Y-48769802D01*
X131185277Y-48400034D01*
X131442526Y-47893245D01*
X131338526Y-47669000D01*
X130209000Y-47669000D01*
X129871000Y-47669000D01*
X129851000Y-47669000D01*
X129851000Y-47331000D01*
X129871000Y-47331000D01*
X129871000Y-47311000D01*
X130209000Y-47311000D01*
X130209000Y-47331000D01*
X131338526Y-47331000D01*
X131442526Y-47106755D01*
X131185277Y-46599966D01*
X130753670Y-46230198D01*
X130450294Y-46104548D01*
X130500215Y-46094618D01*
X130890367Y-45833927D01*
X131114158Y-45499000D01*
X131736738Y-45499000D01*
X132461000Y-46223261D01*
X132461000Y-64776739D01*
X131276738Y-65961000D01*
X128500005Y-65961000D01*
X128500000Y-65960999D01*
X128298907Y-66001000D01*
X128293734Y-66002029D01*
X128118869Y-66118869D01*
X128118867Y-66118872D01*
X127118869Y-67118869D01*
X127002029Y-67293733D01*
X126960999Y-67500000D01*
X126961000Y-67500005D01*
X126961000Y-68878024D01*
X126649633Y-69086073D01*
X126388942Y-69476225D01*
X126297400Y-69936440D01*
X126297400Y-69983560D01*
X126388942Y-70443775D01*
X126649633Y-70833927D01*
X127039785Y-71094618D01*
X127500000Y-71186160D01*
X127960215Y-71094618D01*
X128350367Y-70833927D01*
X128611058Y-70443775D01*
X128702600Y-69983560D01*
X128702600Y-69936440D01*
X128611058Y-69476225D01*
X128350367Y-69086073D01*
X128039000Y-68878024D01*
X128039000Y-67723262D01*
X128723261Y-67039000D01*
X131499995Y-67039000D01*
X131500000Y-67039001D01*
X131706267Y-66997971D01*
X131881131Y-66881131D01*
X133381128Y-65381133D01*
X133381131Y-65381131D01*
X133451171Y-65276307D01*
X133497971Y-65206267D01*
X133539000Y-65000000D01*
X133539000Y-50433243D01*
X134097486Y-50433243D01*
X134230198Y-50753670D01*
X134599966Y-51185277D01*
X135106755Y-51442526D01*
X135331000Y-51338526D01*
X135331000Y-50209000D01*
X134202611Y-50209000D01*
X134097486Y-50433243D01*
X133539000Y-50433243D01*
X133539000Y-49646757D01*
X134097486Y-49646757D01*
X134202611Y-49871000D01*
X135331000Y-49871000D01*
X135331000Y-49851000D01*
X135669000Y-49851000D01*
X135669000Y-49871000D01*
X135689000Y-49871000D01*
X135689000Y-50209000D01*
X135669000Y-50209000D01*
X135669000Y-51338526D01*
X135893245Y-51442526D01*
X136400034Y-51185277D01*
X136769802Y-50753670D01*
X136895452Y-50450294D01*
X136905382Y-50500215D01*
X137166073Y-50890367D01*
X137556225Y-51151058D01*
X138016440Y-51242600D01*
X138063560Y-51242600D01*
X138523775Y-51151058D01*
X138913927Y-50890367D01*
X139174618Y-50500215D01*
X139266160Y-50040000D01*
X139174618Y-49579785D01*
X138913927Y-49189633D01*
X138523775Y-48928942D01*
X138063560Y-48837400D01*
X138016440Y-48837400D01*
X137556225Y-48928942D01*
X137166073Y-49189633D01*
X136905382Y-49579785D01*
X136895452Y-49629706D01*
X136769802Y-49326330D01*
X136400034Y-48894723D01*
X136034628Y-48709241D01*
X136363600Y-48709241D01*
X136489226Y-48685603D01*
X136604605Y-48611358D01*
X136682009Y-48498074D01*
X136709241Y-48363600D01*
X136709241Y-47500000D01*
X136813840Y-47500000D01*
X136905382Y-47960215D01*
X137166073Y-48350367D01*
X137556225Y-48611058D01*
X138016440Y-48702600D01*
X138063560Y-48702600D01*
X138523775Y-48611058D01*
X138913927Y-48350367D01*
X139174618Y-47960215D01*
X139266160Y-47500000D01*
X139174618Y-47039785D01*
X138913927Y-46649633D01*
X138523775Y-46388942D01*
X138063560Y-46297400D01*
X138016440Y-46297400D01*
X137556225Y-46388942D01*
X137166073Y-46649633D01*
X136905382Y-47039785D01*
X136813840Y-47500000D01*
X136709241Y-47500000D01*
X136709241Y-46636400D01*
X136685603Y-46510774D01*
X136611358Y-46395395D01*
X136498074Y-46317991D01*
X136363600Y-46290759D01*
X134636400Y-46290759D01*
X134510774Y-46314397D01*
X134395395Y-46388642D01*
X134317991Y-46501926D01*
X134290759Y-46636400D01*
X134290759Y-48363600D01*
X134314397Y-48489226D01*
X134388642Y-48604605D01*
X134501926Y-48682009D01*
X134636400Y-48709241D01*
X134965372Y-48709241D01*
X134599966Y-48894723D01*
X134230198Y-49326330D01*
X134097486Y-49646757D01*
X133539000Y-49646757D01*
X133539000Y-46000005D01*
X133539001Y-46000000D01*
X133497971Y-45793733D01*
X133451171Y-45723693D01*
X133381131Y-45618869D01*
X133381128Y-45618867D01*
X132341131Y-44578869D01*
X132166267Y-44462029D01*
X131960000Y-44420999D01*
X131959995Y-44421000D01*
X131114158Y-44421000D01*
X130890367Y-44086073D01*
X130500215Y-43825382D01*
X130040000Y-43733840D01*
X129579785Y-43825382D01*
X129189633Y-44086073D01*
X128928942Y-44476225D01*
X128837400Y-44936440D01*
X128837400Y-44983560D01*
X128928942Y-45443775D01*
X129189633Y-45833927D01*
X129579785Y-46094618D01*
X129629706Y-46104548D01*
X129326330Y-46230198D01*
X128894723Y-46599966D01*
X128709241Y-46965372D01*
X128709241Y-46636400D01*
X128685603Y-46510774D01*
X128611358Y-46395395D01*
X128498074Y-46317991D01*
X128363600Y-46290759D01*
X126636400Y-46290759D01*
X126510774Y-46314397D01*
X126395395Y-46388642D01*
X126317991Y-46501926D01*
X126290759Y-46636400D01*
X126290759Y-48363600D01*
X126314397Y-48489226D01*
X126388642Y-48604605D01*
X126411000Y-48619882D01*
X126411000Y-50048921D01*
X126048922Y-50411000D01*
X117000000Y-50411000D01*
X116652399Y-50480142D01*
X116583257Y-50493895D01*
X116229960Y-50729961D01*
X115500000Y-51459921D01*
X114770039Y-50729961D01*
X114416743Y-50493895D01*
X114000000Y-50411000D01*
X103951079Y-50411000D01*
X103589000Y-50048922D01*
X103589000Y-48621400D01*
X103604605Y-48611358D01*
X103682009Y-48498074D01*
X103709241Y-48363600D01*
X103709241Y-48034628D01*
X103894723Y-48400034D01*
X104326330Y-48769802D01*
X104646757Y-48902514D01*
X104871000Y-48797389D01*
X104871000Y-47669000D01*
X105209000Y-47669000D01*
X105209000Y-48797389D01*
X105433243Y-48902514D01*
X105753670Y-48769802D01*
X106185277Y-48400034D01*
X106442526Y-47893245D01*
X106338526Y-47669000D01*
X105209000Y-47669000D01*
X104871000Y-47669000D01*
X104851000Y-47669000D01*
X104851000Y-47331000D01*
X104871000Y-47331000D01*
X104871000Y-47311000D01*
X105209000Y-47311000D01*
X105209000Y-47331000D01*
X106338526Y-47331000D01*
X106442526Y-47106755D01*
X106185277Y-46599966D01*
X105753670Y-46230198D01*
X105450294Y-46104548D01*
X105500215Y-46094618D01*
X105890367Y-45833927D01*
X106151058Y-45443775D01*
X106242600Y-44983560D01*
X106242600Y-44936440D01*
X106151058Y-44476225D01*
X105890367Y-44086073D01*
X105500215Y-43825382D01*
X105040000Y-43733840D01*
X104579785Y-43825382D01*
X104189633Y-44086073D01*
X103928942Y-44476225D01*
X103837400Y-44936440D01*
X103837400Y-44983560D01*
X103928942Y-45443775D01*
X104189633Y-45833927D01*
X104579785Y-46094618D01*
X104629706Y-46104548D01*
X104326330Y-46230198D01*
X103894723Y-46599966D01*
X103709241Y-46965372D01*
X103709241Y-46636400D01*
X103685603Y-46510774D01*
X103611358Y-46395395D01*
X103498074Y-46317991D01*
X103363600Y-46290759D01*
X101636400Y-46290759D01*
X101510774Y-46314397D01*
X101395395Y-46388642D01*
X101317991Y-46501926D01*
X101290759Y-46636400D01*
X81203772Y-46636400D01*
X81185277Y-46599966D01*
X80753670Y-46230198D01*
X80450294Y-46104548D01*
X80500215Y-46094618D01*
X80890367Y-45833927D01*
X81114158Y-45499000D01*
X101425842Y-45499000D01*
X101649633Y-45833927D01*
X102039785Y-46094618D01*
X102500000Y-46186160D01*
X102960215Y-46094618D01*
X103350367Y-45833927D01*
X103611058Y-45443775D01*
X103702600Y-44983560D01*
X103702600Y-44936440D01*
X103611058Y-44476225D01*
X103350367Y-44086073D01*
X102960215Y-43825382D01*
X102500000Y-43733840D01*
X102039785Y-43825382D01*
X101649633Y-44086073D01*
X101425842Y-44421000D01*
X81114158Y-44421000D01*
X80890367Y-44086073D01*
X80500215Y-43825382D01*
X80040000Y-43733840D01*
X79579785Y-43825382D01*
X79189633Y-44086073D01*
X78928942Y-44476225D01*
X78837400Y-44936440D01*
X78837400Y-44983560D01*
X78928942Y-45443775D01*
X79189633Y-45833927D01*
X79579785Y-46094618D01*
X79629706Y-46104548D01*
X79326330Y-46230198D01*
X78894723Y-46599966D01*
X78709241Y-46965372D01*
X78709241Y-46636400D01*
X78685603Y-46510774D01*
X78611358Y-46395395D01*
X78498074Y-46317991D01*
X78363600Y-46290759D01*
X76636400Y-46290759D01*
X76510774Y-46314397D01*
X76395395Y-46388642D01*
X76317991Y-46501926D01*
X76290759Y-46636400D01*
X76290759Y-48363600D01*
X76314397Y-48489226D01*
X76388642Y-48604605D01*
X76411000Y-48619882D01*
X76411000Y-49048921D01*
X75548922Y-49911000D01*
X67000000Y-49911000D01*
X66652399Y-49980142D01*
X66583257Y-49993895D01*
X66229960Y-50229961D01*
X65500000Y-50959921D01*
X64770039Y-50229961D01*
X64416743Y-49993895D01*
X64000000Y-49911000D01*
X53951079Y-49911000D01*
X53589000Y-49548922D01*
X53589000Y-49126547D01*
X62360889Y-49126547D01*
X62457966Y-49361492D01*
X62637563Y-49541402D01*
X62872337Y-49638889D01*
X63126547Y-49639111D01*
X63361492Y-49542034D01*
X63541402Y-49362437D01*
X63638889Y-49127663D01*
X63638893Y-49123369D01*
X65381128Y-47381133D01*
X65381131Y-47381131D01*
X65451171Y-47276307D01*
X65497971Y-47206267D01*
X65539001Y-47000000D01*
X65539000Y-46999995D01*
X65539000Y-44936440D01*
X76297400Y-44936440D01*
X76297400Y-44983560D01*
X76388942Y-45443775D01*
X76649633Y-45833927D01*
X77039785Y-46094618D01*
X77500000Y-46186160D01*
X77960215Y-46094618D01*
X78350367Y-45833927D01*
X78611058Y-45443775D01*
X78702600Y-44983560D01*
X78702600Y-44936440D01*
X78611058Y-44476225D01*
X78350367Y-44086073D01*
X77960215Y-43825382D01*
X77500000Y-43733840D01*
X77039785Y-43825382D01*
X76649633Y-44086073D01*
X76388942Y-44476225D01*
X76297400Y-44936440D01*
X65539000Y-44936440D01*
X65539000Y-44364835D01*
X65541402Y-44362437D01*
X65638889Y-44127663D01*
X65639111Y-43873453D01*
X65542034Y-43638508D01*
X65362437Y-43458598D01*
X65127663Y-43361111D01*
X64873453Y-43360889D01*
X64638508Y-43457966D01*
X64458598Y-43637563D01*
X64361111Y-43872337D01*
X64360889Y-44126547D01*
X64457966Y-44361492D01*
X64461000Y-44364531D01*
X64461000Y-46776739D01*
X62876846Y-48360892D01*
X62873453Y-48360889D01*
X62638508Y-48457966D01*
X62458598Y-48637563D01*
X62361111Y-48872337D01*
X62360889Y-49126547D01*
X53589000Y-49126547D01*
X53589000Y-48621400D01*
X53604605Y-48611358D01*
X53682009Y-48498074D01*
X53709241Y-48363600D01*
X53709241Y-48034628D01*
X53894723Y-48400034D01*
X54326330Y-48769802D01*
X54646757Y-48902514D01*
X54871000Y-48797389D01*
X54871000Y-47669000D01*
X55209000Y-47669000D01*
X55209000Y-48797389D01*
X55433243Y-48902514D01*
X55753670Y-48769802D01*
X56185277Y-48400034D01*
X56324100Y-48126547D01*
X60360889Y-48126547D01*
X60457966Y-48361492D01*
X60637563Y-48541402D01*
X60872337Y-48638889D01*
X61126547Y-48639111D01*
X61361492Y-48542034D01*
X61541402Y-48362437D01*
X61638889Y-48127663D01*
X61638893Y-48123369D01*
X62881128Y-46881133D01*
X62881131Y-46881131D01*
X62982139Y-46729961D01*
X62997971Y-46706267D01*
X63039000Y-46500000D01*
X63039000Y-44364835D01*
X63041402Y-44362437D01*
X63138889Y-44127663D01*
X63139111Y-43873453D01*
X63042034Y-43638508D01*
X62862437Y-43458598D01*
X62627663Y-43361111D01*
X62373453Y-43360889D01*
X62138508Y-43457966D01*
X61958598Y-43637563D01*
X61861111Y-43872337D01*
X61860889Y-44126547D01*
X61957966Y-44361492D01*
X61961000Y-44364531D01*
X61961000Y-46276739D01*
X60876846Y-47360892D01*
X60873453Y-47360889D01*
X60638508Y-47457966D01*
X60458598Y-47637563D01*
X60361111Y-47872337D01*
X60360889Y-48126547D01*
X56324100Y-48126547D01*
X56442526Y-47893245D01*
X56338526Y-47669000D01*
X55209000Y-47669000D01*
X54871000Y-47669000D01*
X54851000Y-47669000D01*
X54851000Y-47331000D01*
X54871000Y-47331000D01*
X54871000Y-47311000D01*
X55209000Y-47311000D01*
X55209000Y-47331000D01*
X56338526Y-47331000D01*
X56442526Y-47106755D01*
X56185277Y-46599966D01*
X55753670Y-46230198D01*
X55450294Y-46104548D01*
X55500215Y-46094618D01*
X55890367Y-45833927D01*
X56151058Y-45443775D01*
X56242600Y-44983560D01*
X56242600Y-44936440D01*
X56151058Y-44476225D01*
X55890367Y-44086073D01*
X55500215Y-43825382D01*
X55040000Y-43733840D01*
X54579785Y-43825382D01*
X54189633Y-44086073D01*
X53928942Y-44476225D01*
X53837400Y-44936440D01*
X53837400Y-44983560D01*
X53928942Y-45443775D01*
X54189633Y-45833927D01*
X54579785Y-46094618D01*
X54629706Y-46104548D01*
X54326330Y-46230198D01*
X53894723Y-46599966D01*
X53709241Y-46965372D01*
X53709241Y-46636400D01*
X53685603Y-46510774D01*
X53611358Y-46395395D01*
X53498074Y-46317991D01*
X53363600Y-46290759D01*
X51636400Y-46290759D01*
X51510774Y-46314397D01*
X51395395Y-46388642D01*
X51317991Y-46501926D01*
X51290759Y-46636400D01*
X45709241Y-46636400D01*
X45685603Y-46510774D01*
X45611358Y-46395395D01*
X45589000Y-46380118D01*
X45589000Y-45488487D01*
X45634618Y-45420215D01*
X45726160Y-44960000D01*
X45634618Y-44499785D01*
X45373927Y-44109633D01*
X44983775Y-43848942D01*
X44523560Y-43757400D01*
X44476440Y-43757400D01*
X44016225Y-43848942D01*
X43626073Y-44109633D01*
X43365382Y-44499785D01*
X43355452Y-44549706D01*
X43229802Y-44246330D01*
X42860034Y-43814723D01*
X42353245Y-43557474D01*
X42129000Y-43661474D01*
X41791000Y-43661474D01*
X41566755Y-43557474D01*
X41059966Y-43814723D01*
X40690198Y-44246330D01*
X40557486Y-44566757D01*
X40414000Y-44566757D01*
X40414000Y-37500000D01*
X49460999Y-37500000D01*
X49461000Y-37500005D01*
X49461000Y-40499995D01*
X49460999Y-40500000D01*
X49502029Y-40706267D01*
X49618869Y-40881131D01*
X50618867Y-41881128D01*
X50618869Y-41881131D01*
X50793734Y-41997971D01*
X51000000Y-42039001D01*
X51000005Y-42039000D01*
X53238402Y-42039000D01*
X53118869Y-42118869D01*
X53118867Y-42118872D01*
X52118869Y-43118869D01*
X52002029Y-43293733D01*
X51960999Y-43500000D01*
X51961000Y-43500005D01*
X51961000Y-43878024D01*
X51649633Y-44086073D01*
X51388942Y-44476225D01*
X51297400Y-44936440D01*
X51297400Y-44983560D01*
X51388942Y-45443775D01*
X51649633Y-45833927D01*
X52039785Y-46094618D01*
X52500000Y-46186160D01*
X52960215Y-46094618D01*
X53350367Y-45833927D01*
X53611058Y-45443775D01*
X53702600Y-44983560D01*
X53702600Y-44936440D01*
X53611058Y-44476225D01*
X53350367Y-44086073D01*
X53039000Y-43878024D01*
X53039000Y-43723262D01*
X53723261Y-43039000D01*
X57999995Y-43039000D01*
X58000000Y-43039001D01*
X58206267Y-42997971D01*
X58381131Y-42881131D01*
X58500000Y-42762262D01*
X58618867Y-42881128D01*
X58618869Y-42881131D01*
X58793734Y-42997971D01*
X59000000Y-43039001D01*
X59000005Y-43039000D01*
X66776738Y-43039000D01*
X67618867Y-43881128D01*
X67618869Y-43881131D01*
X67727769Y-43953895D01*
X67793734Y-43997971D01*
X68000000Y-44039001D01*
X68000005Y-44039000D01*
X72135165Y-44039000D01*
X72137563Y-44041402D01*
X72372337Y-44138889D01*
X72626547Y-44139111D01*
X72861492Y-44042034D01*
X73041402Y-43862437D01*
X73138889Y-43627663D01*
X73139111Y-43373453D01*
X73042034Y-43138508D01*
X72862437Y-42958598D01*
X72627663Y-42861111D01*
X72373453Y-42860889D01*
X72138508Y-42957966D01*
X72135469Y-42961000D01*
X68223261Y-42961000D01*
X67381131Y-42118869D01*
X67206267Y-42002029D01*
X67000000Y-41960999D01*
X66999995Y-41961000D01*
X59223261Y-41961000D01*
X59139108Y-41876847D01*
X59139111Y-41873453D01*
X59042034Y-41638508D01*
X58862437Y-41458598D01*
X58627663Y-41361111D01*
X58373453Y-41360889D01*
X58138508Y-41457966D01*
X57958598Y-41637563D01*
X57861111Y-41872337D01*
X57861107Y-41876631D01*
X57776738Y-41961000D01*
X57261598Y-41961000D01*
X57381131Y-41881131D01*
X59135714Y-40126547D01*
X63360889Y-40126547D01*
X63457966Y-40361492D01*
X63637563Y-40541402D01*
X63872337Y-40638889D01*
X64126547Y-40639111D01*
X64361492Y-40542034D01*
X64364531Y-40539000D01*
X65057333Y-40539000D01*
X64958598Y-40637563D01*
X64861111Y-40872337D01*
X64860889Y-41126547D01*
X64957966Y-41361492D01*
X65137563Y-41541402D01*
X65372337Y-41638889D01*
X65626547Y-41639111D01*
X65861492Y-41542034D01*
X65864531Y-41539000D01*
X71557333Y-41539000D01*
X71458598Y-41637563D01*
X71361111Y-41872337D01*
X71360889Y-42126547D01*
X71457966Y-42361492D01*
X71637563Y-42541402D01*
X71872337Y-42638889D01*
X72126547Y-42639111D01*
X72361492Y-42542034D01*
X72364531Y-42539000D01*
X84276738Y-42539000D01*
X84860892Y-43123153D01*
X84860889Y-43126547D01*
X84957966Y-43361492D01*
X85137563Y-43541402D01*
X85372337Y-43638889D01*
X85626547Y-43639111D01*
X85861492Y-43542034D01*
X86041402Y-43362437D01*
X86138889Y-43127663D01*
X86139111Y-42873453D01*
X86042034Y-42638508D01*
X85862437Y-42458598D01*
X85627663Y-42361111D01*
X85623369Y-42361107D01*
X84881131Y-41618869D01*
X84761598Y-41539000D01*
X85135165Y-41539000D01*
X85137563Y-41541402D01*
X85372337Y-41638889D01*
X85626547Y-41639111D01*
X85861492Y-41542034D01*
X86041402Y-41362437D01*
X86138889Y-41127663D01*
X86138889Y-41126547D01*
X100860889Y-41126547D01*
X100957966Y-41361492D01*
X101137563Y-41541402D01*
X101372337Y-41638889D01*
X101626547Y-41639111D01*
X101861492Y-41542034D01*
X102041402Y-41362437D01*
X102138889Y-41127663D01*
X102138893Y-41123369D01*
X103135714Y-40126547D01*
X105360889Y-40126547D01*
X105457966Y-40361492D01*
X105637563Y-40541402D01*
X105872337Y-40638889D01*
X106126547Y-40639111D01*
X106361492Y-40542034D01*
X106364531Y-40539000D01*
X109276738Y-40539000D01*
X111961000Y-43223261D01*
X111961000Y-48135165D01*
X111958598Y-48137563D01*
X111861111Y-48372337D01*
X111860889Y-48626547D01*
X111957966Y-48861492D01*
X112137563Y-49041402D01*
X112372337Y-49138889D01*
X112626547Y-49139111D01*
X112861492Y-49042034D01*
X113041402Y-48862437D01*
X113138889Y-48627663D01*
X113139111Y-48373453D01*
X113042034Y-48138508D01*
X113039000Y-48135469D01*
X113039000Y-44936440D01*
X126297400Y-44936440D01*
X126297400Y-44983560D01*
X126388942Y-45443775D01*
X126649633Y-45833927D01*
X127039785Y-46094618D01*
X127500000Y-46186160D01*
X127960215Y-46094618D01*
X128350367Y-45833927D01*
X128611058Y-45443775D01*
X128702600Y-44983560D01*
X128702600Y-44936440D01*
X128611058Y-44476225D01*
X128350367Y-44086073D01*
X127960215Y-43825382D01*
X127500000Y-43733840D01*
X127039785Y-43825382D01*
X126649633Y-44086073D01*
X126388942Y-44476225D01*
X126297400Y-44936440D01*
X113039000Y-44936440D01*
X113039000Y-43000005D01*
X113039001Y-43000000D01*
X112997971Y-42793734D01*
X112894656Y-42639111D01*
X112881131Y-42618869D01*
X112881128Y-42618867D01*
X109881131Y-39618869D01*
X109706267Y-39502029D01*
X109500000Y-39460999D01*
X109499995Y-39461000D01*
X106364835Y-39461000D01*
X106362437Y-39458598D01*
X106127663Y-39361111D01*
X105873453Y-39360889D01*
X105638508Y-39457966D01*
X105458598Y-39637563D01*
X105361111Y-39872337D01*
X105360889Y-40126547D01*
X103135714Y-40126547D01*
X104223261Y-39039000D01*
X110276738Y-39039000D01*
X112118867Y-40881128D01*
X112118869Y-40881131D01*
X112223693Y-40951171D01*
X112293733Y-40997971D01*
X112500000Y-41039001D01*
X112500005Y-41039000D01*
X123135165Y-41039000D01*
X123137563Y-41041402D01*
X123372337Y-41138889D01*
X123626547Y-41139111D01*
X123861492Y-41042034D01*
X124041402Y-40862437D01*
X124138889Y-40627663D01*
X124139111Y-40373453D01*
X124042034Y-40138508D01*
X123862437Y-39958598D01*
X123627663Y-39861111D01*
X123373453Y-39860889D01*
X123138508Y-39957966D01*
X123135469Y-39961000D01*
X112723261Y-39961000D01*
X110881131Y-38118869D01*
X110706267Y-38002029D01*
X110500000Y-37960999D01*
X110499995Y-37961000D01*
X104000005Y-37961000D01*
X104000000Y-37960999D01*
X103793733Y-38002029D01*
X103618869Y-38118869D01*
X103618867Y-38118872D01*
X101376846Y-40360892D01*
X101373453Y-40360889D01*
X101138508Y-40457966D01*
X100958598Y-40637563D01*
X100861111Y-40872337D01*
X100860889Y-41126547D01*
X86138889Y-41126547D01*
X86139111Y-40873453D01*
X86042034Y-40638508D01*
X85942699Y-40539000D01*
X86135165Y-40539000D01*
X86137563Y-40541402D01*
X86372337Y-40638889D01*
X86626547Y-40639111D01*
X86861492Y-40542034D01*
X87041402Y-40362437D01*
X87138889Y-40127663D01*
X87139111Y-39873453D01*
X87042034Y-39638508D01*
X86862437Y-39458598D01*
X86627663Y-39361111D01*
X86373453Y-39360889D01*
X86138508Y-39457966D01*
X86135469Y-39461000D01*
X64364835Y-39461000D01*
X64362437Y-39458598D01*
X64127663Y-39361111D01*
X63873453Y-39360889D01*
X63638508Y-39457966D01*
X63458598Y-39637563D01*
X63361111Y-39872337D01*
X63360889Y-40126547D01*
X59135714Y-40126547D01*
X60223261Y-39039000D01*
X64635165Y-39039000D01*
X64637563Y-39041402D01*
X64872337Y-39138889D01*
X65126547Y-39139111D01*
X65361492Y-39042034D01*
X65541402Y-38862437D01*
X65638889Y-38627663D01*
X65639111Y-38373453D01*
X65542034Y-38138508D01*
X65362437Y-37958598D01*
X65127663Y-37861111D01*
X64873453Y-37860889D01*
X64638508Y-37957966D01*
X64635469Y-37961000D01*
X64442667Y-37961000D01*
X64541402Y-37862437D01*
X64638889Y-37627663D01*
X64639111Y-37373453D01*
X64542034Y-37138508D01*
X64362437Y-36958598D01*
X64127663Y-36861111D01*
X63873453Y-36860889D01*
X63638508Y-36957966D01*
X63635469Y-36961000D01*
X57223261Y-36961000D01*
X56841131Y-36578869D01*
X56666267Y-36462029D01*
X56460000Y-36420999D01*
X56459995Y-36421000D01*
X56114158Y-36421000D01*
X55890367Y-36086073D01*
X55500215Y-35825382D01*
X55040000Y-35733840D01*
X54579785Y-35825382D01*
X54189633Y-36086073D01*
X53928942Y-36476225D01*
X53837400Y-36936440D01*
X53837400Y-36983560D01*
X53928942Y-37443775D01*
X54189633Y-37833927D01*
X54579785Y-38094618D01*
X54629706Y-38104548D01*
X54326330Y-38230198D01*
X53894723Y-38599966D01*
X53709241Y-38965372D01*
X53709241Y-38636400D01*
X53685603Y-38510774D01*
X53611358Y-38395395D01*
X53498074Y-38317991D01*
X53363600Y-38290759D01*
X51636400Y-38290759D01*
X51510774Y-38314397D01*
X51395395Y-38388642D01*
X51317991Y-38501926D01*
X51290759Y-38636400D01*
X51290759Y-40363600D01*
X51314397Y-40489226D01*
X51388642Y-40604605D01*
X51501926Y-40682009D01*
X51636400Y-40709241D01*
X53363600Y-40709241D01*
X53489226Y-40685603D01*
X53604605Y-40611358D01*
X53682009Y-40498074D01*
X53709241Y-40363600D01*
X53709241Y-40034628D01*
X53894723Y-40400034D01*
X54326330Y-40769802D01*
X54646757Y-40902514D01*
X54871000Y-40797389D01*
X54871000Y-39669000D01*
X55209000Y-39669000D01*
X55209000Y-40797389D01*
X55433243Y-40902514D01*
X55753670Y-40769802D01*
X56185277Y-40400034D01*
X56442526Y-39893245D01*
X56338526Y-39669000D01*
X55209000Y-39669000D01*
X54871000Y-39669000D01*
X54851000Y-39669000D01*
X54851000Y-39331000D01*
X54871000Y-39331000D01*
X54871000Y-39311000D01*
X55209000Y-39311000D01*
X55209000Y-39331000D01*
X56338526Y-39331000D01*
X56442526Y-39106755D01*
X56185277Y-38599966D01*
X55753670Y-38230198D01*
X55450294Y-38104548D01*
X55500215Y-38094618D01*
X55890367Y-37833927D01*
X56114158Y-37499000D01*
X56236738Y-37499000D01*
X56618867Y-37881128D01*
X56618869Y-37881131D01*
X56723693Y-37951171D01*
X56793733Y-37997971D01*
X57000000Y-38039000D01*
X59738402Y-38039000D01*
X59618869Y-38118869D01*
X59618867Y-38118872D01*
X56776738Y-40961000D01*
X51223261Y-40961000D01*
X50539000Y-40276738D01*
X50539000Y-37723262D01*
X50763261Y-37499000D01*
X51425842Y-37499000D01*
X51649633Y-37833927D01*
X52039785Y-38094618D01*
X52500000Y-38186160D01*
X52960215Y-38094618D01*
X53350367Y-37833927D01*
X53611058Y-37443775D01*
X53702600Y-36983560D01*
X53702600Y-36936440D01*
X53611058Y-36476225D01*
X53350367Y-36086073D01*
X52960215Y-35825382D01*
X52500000Y-35733840D01*
X52039785Y-35825382D01*
X51649633Y-36086073D01*
X51425842Y-36421000D01*
X50540000Y-36421000D01*
X50333733Y-36462029D01*
X50263693Y-36508829D01*
X50158869Y-36578869D01*
X50158867Y-36578872D01*
X49618869Y-37118869D01*
X49502029Y-37293733D01*
X49460999Y-37500000D01*
X40414000Y-37500000D01*
X40414000Y-35414000D01*
X139586000Y-35414000D01*
X139586000Y-134586000D01*
M02*
