M48
;DRILL file {KiCad 4.0.1-stable} date 2016/01/10 9:36:44
;FORMAT={-:-/ absolute / metric / decimal}
FMAT,2
METRIC,TZ
T1C0.400
T2C1.001
T3C1.016
T4C1.200
T5C3.200
%
G90
G05
M71
T1
X43.5Y-59.
X45.Y-57.5
X45.Y-68.5
X45.Y-86.5
X45.Y-109.5
X47.Y-67.
X47.Y-84.
X47.Y-109.
X48.Y-114.5
X48.Y-120.
X49.Y-55.
X50.5Y-53.5
X58.1Y-128.5
X58.5Y-42.
X61.Y-48.
X62.5Y-44.
X63.Y-49.
X64.Y-37.5
X64.Y-40.
X65.Y-38.5
X65.Y-44.
X65.5Y-41.
X70.5Y-121.
X72.Y-42.
X72.5Y-43.5
X72.5Y-114.5
X85.5Y-41.
X85.5Y-43.
X85.5Y-48.5
X85.5Y-62.5
X85.5Y-72.5
X85.5Y-93.
X85.5Y-99.
X85.5Y-112.5
X86.5Y-40.
X101.5Y-41.
X106.Y-40.
X112.5Y-48.5
X112.5Y-55.5
X123.5Y-40.5
X130.Y-56.
T3
X41.96Y-44.96
X41.96Y-47.5
X41.96Y-119.96
X41.96Y-122.5
X44.5Y-44.96
X44.5Y-47.5
X44.5Y-119.96
X44.5Y-122.5
X52.5Y-36.96
X52.5Y-39.5
X52.5Y-44.96
X52.5Y-47.5
X52.5Y-69.96
X52.5Y-72.5
X52.5Y-94.96
X52.5Y-97.5
X52.5Y-119.96
X52.5Y-122.5
X52.5Y-130.5
X52.5Y-133.04
X55.04Y-36.96
X55.04Y-39.5
X55.04Y-44.96
X55.04Y-47.5
X55.04Y-69.96
X55.04Y-72.5
X55.04Y-94.96
X55.04Y-97.5
X55.04Y-119.96
X55.04Y-122.5
X55.04Y-130.5
X55.04Y-133.04
X77.5Y-44.96
X77.5Y-47.5
X77.5Y-69.96
X77.5Y-72.5
X77.5Y-94.96
X77.5Y-97.5
X77.5Y-119.96
X77.5Y-122.5
X80.04Y-44.96
X80.04Y-47.5
X80.04Y-69.96
X80.04Y-72.5
X80.04Y-94.96
X80.04Y-97.5
X80.04Y-119.96
X80.04Y-122.5
X102.5Y-44.96
X102.5Y-47.5
X102.5Y-69.96
X102.5Y-72.5
X102.5Y-94.96
X102.5Y-97.5
X102.5Y-119.96
X102.5Y-122.5
X105.04Y-44.96
X105.04Y-47.5
X105.04Y-69.96
X105.04Y-72.5
X105.04Y-94.96
X105.04Y-97.5
X105.04Y-119.96
X105.04Y-122.5
X127.5Y-44.96
X127.5Y-47.5
X127.5Y-69.96
X127.5Y-72.5
X127.5Y-94.96
X127.5Y-97.5
X127.5Y-119.96
X127.5Y-122.5
X130.04Y-44.96
X130.04Y-47.5
X130.04Y-69.96
X130.04Y-72.5
X130.04Y-94.96
X130.04Y-97.5
X130.04Y-119.96
X130.04Y-122.5
X135.5Y-47.5
X135.5Y-50.04
X138.04Y-47.5
X138.04Y-50.04
T4
X42.6Y-111.8
X42.8Y-76.1
X43.1Y-95.6
X48.3Y-50.6
X55.7Y-79.9
X60.4Y-62.4
X60.4Y-100.6
X60.8Y-114.7
X60.8Y-131.8
X61.4Y-90.1
X61.6Y-78.9
X62.6Y-123.7
X62.9Y-55.9
X65.5Y-52.5
X65.5Y-62.
X65.5Y-77.5
X65.5Y-87.5
X65.5Y-103.
X65.5Y-111.5
X65.5Y-125.
X65.5Y-130.
X68.1Y-47.2
X69.8Y-63.5
X69.9Y-55.1
X70.Y-133.
X70.4Y-75.7
X70.9Y-83.
X72.5Y-59.
X73.9Y-125.5
X80.5Y-107.
X82.5Y-61.8
X82.7Y-90.6
X82.9Y-37.4
X82.9Y-99.1
X83.Y-46.5
X83.Y-73.5
X85.3Y-126.5
X87.6Y-118.2
X90.Y-59.
X96.9Y-37.8
X96.9Y-42.9
X96.9Y-47.8
X97.Y-55.4
X97.1Y-69.4
X97.2Y-82.3
X98.1Y-126.6
X98.2Y-97.7
X98.6Y-109.
X101.2Y-132.8
X108.7Y-62.
X109.Y-42.4
X109.Y-70.6
X109.1Y-47.2
X109.4Y-82.3
X109.7Y-109.1
X109.8Y-97.3
X109.9Y-119.8
X110.3Y-127.4
X114.1Y-37.3
X115.5Y-53.
X115.5Y-64.
X115.5Y-77.5
X115.5Y-88.
X115.5Y-103.
X115.5Y-111.5
X115.5Y-125.
X115.5Y-130.
X119.5Y-127.4
X124.1Y-70.
X124.2Y-82.5
X124.2Y-119.9
X124.3Y-54.
X124.3Y-58.6
X124.3Y-97.
X124.4Y-108.9
X125.3Y-38.4
X134.9Y-70.4
X135.7Y-90.1
X136.1Y-58.1
X137.1Y-116.5
T5
X44.Y-39.
X44.Y-131.
X136.Y-39.
X136.Y-131.
T2
X48.201Y-58.001G85X48.201Y-59.999
G05
X50.201Y-63.699G85X52.2Y-63.699
G05
X54.2Y-58.001G85X54.2Y-59.999
G05
T0
M30
